<?xml version="1.0" encoding="UTF-8"?>
<svg width="151px" height="86px" viewBox="0 0 151 86" version="1.1" xmlns="http://www.w3.org/2000/svg" xmlns:xlink="http://www.w3.org/1999/xlink">
    <!-- Generator: Sketch 48.2 (47327) - http://www.bohemiancoding.com/sketch -->
    <title>beta</title>
    <desc>Created with Sketch.</desc>
    <defs>
        <polygon id="path-1" points="0 0 151 0 151 86 0 86"></polygon>
    </defs>
    <g id="Desktop" stroke="none" stroke-width="1" fill="none" fill-rule="evenodd" transform="translate(-112.000000, -108.000000)">
        <g id="intro">
            <g id="beta" transform="translate(112.000000, 108.000000)">
                <mask id="mask-2" fill="white">
                    <use xlink:href="#path-1"></use>
                </mask>
                <g id="Clip-2"></g>
                <path d="M118.823808,0 L32.176192,0 C14.40594,0 0,14.814005 0,33.0891137 L0,35.301786 C0,53.576226 14.40594,68.3908997 32.176192,68.3908997 L86.9473741,68.3908997 L116.855549,86 L117.001852,68.3908997 L118.823808,68.3908997 C136.59471,68.3908997 151,53.576226 151,35.301786 L151,33.0891137 C151,14.814005 136.59471,0 118.823808,0" id="Fill-1" fill="#87AF3F" mask="url(#mask-2)"></path>
                <path d="M39.4544504,42 L32.8016183,42 L32.8016183,24.3852539 L39.4788644,24.3852539 C40.9844058,24.3852539 42.2030622,24.7880819 43.1348703,25.59375 C44.0666783,26.3994181 44.5325754,27.4614192 44.5325754,28.7797852 C44.5325754,29.691248 44.2375751,30.5213179 43.6475656,31.2700195 C43.0575561,32.0187212 42.339383,32.4703768 41.4930246,32.625 L41.4930246,32.7226562 C42.6893196,32.8772794 43.643493,33.3452109 44.3555734,34.1264648 C45.0676538,34.9077188 45.4236887,35.8842715 45.4236887,37.0561523 C45.4236887,38.602384 44.8967571,39.8129025 43.8428781,40.6877441 C42.7889991,41.5625858 41.3262045,42 39.4544504,42 Z M34.998884,26.3261719 L34.998884,31.9780273 L38.2947824,31.9780273 C39.5968722,31.9780273 40.5917353,31.7257512 41.2794015,31.2211914 C41.9670677,30.7166316 42.3108957,29.988286 42.3108957,29.0361328 C42.3108957,28.1653602 42.0219988,27.4960147 41.4441965,27.0280762 C40.8663941,26.5601376 40.0444622,26.3261719 38.9783762,26.3261719 L34.998884,26.3261719 Z M34.998884,40.059082 L39.1248605,40.059082 C40.4513646,40.059082 41.4564001,39.794599 42.1399972,39.265625 C42.8235944,38.736651 43.1653879,37.9635468 43.1653879,36.9462891 C43.1653879,35.9290314 42.809353,35.1620306 42.0972726,34.6452637 C41.3851923,34.1284968 40.3252256,33.8701172 38.917341,33.8701172 L34.998884,33.8701172 L34.998884,40.059082 Z M65.4310129,40.0224609 L65.4310129,42 L54.5179269,42 L54.5179269,24.3852539 L65.4310129,24.3852539 L65.4310129,26.362793 L56.7151926,26.362793 L56.7151926,32.0146484 L64.9793527,32.0146484 L64.9793527,33.9677734 L56.7151926,33.9677734 L56.7151926,40.0224609 L65.4310129,40.0224609 Z M81.5809152,42 L79.3836496,42 L79.3836496,26.362793 L73.8294504,26.362793 L73.8294504,24.3852539 L87.1351144,24.3852539 L87.1351144,26.362793 L81.5809152,26.362793 L81.5809152,42 Z M105.067243,42 L104.798689,41.2370605 C104.619651,40.7284317 104.414168,40.1425001 104.182234,39.479248 C103.950299,38.815996 103.744816,38.2300644 103.565778,37.7214355 L103.297224,36.9584961 L96.2903879,36.9584961 L94.5203683,42 L92.2132394,42 L98.7073801,24.3852539 L100.880232,24.3852539 L107.374372,42 L105.067243,42 Z M99.7571847,27.0585938 L99.4703195,27.8703613 C99.2790751,28.4115424 99.0451093,29.0808879 98.7684152,29.878418 C98.4917211,30.675948 98.2129967,31.4734661 97.9322336,32.2709961 C97.6514704,33.0685261 97.4154702,33.7378716 97.2242258,34.2790527 L96.9373605,35.0908203 L102.650251,35.0908203 L99.8304269,27.0585938 L99.7571847,27.0585938 Z M116.517439,24.3852539 L118.714704,24.3852539 L118.56822,36.152832 L116.663923,36.152832 L116.517439,24.3852539 Z M117.616071,42.1220703 C117.225445,42.1220703 116.895858,41.9877943 116.627302,41.7192383 C116.358746,41.4506823 116.22447,41.1210957 116.22447,40.7304688 C116.22447,40.3317037 116.358746,40.0000827 116.627302,39.7355957 C116.895858,39.4711087 117.225445,39.3388672 117.616071,39.3388672 C118.014836,39.3388672 118.346458,39.4711087 118.610945,39.7355957 C118.875432,40.0000827 119.007673,40.3317037 119.007673,40.7304688 C119.007673,41.1210957 118.875432,41.4506823 118.610945,41.7192383 C118.346458,41.9877943 118.014836,42.1220703 117.616071,42.1220703 Z" id="BETA!" fill="#FFFFFF" mask="url(#mask-2)"></path>
            </g>
        </g>
    </g>
</svg>