<svg xmlns="http://www.w3.org/2000/svg" viewBox="0 0 160 161.46"><defs><style>.cls-1{fill:#f7e60e;}</style></defs><title>Asset 2</title><g id="Layer_2" data-name="Layer 2"><g id="Layer_1-2" data-name="Layer 1"><path class="cls-1" d="M160,83.79c-.09-1.34-1-3.75-1.3-3.26,0,.53-.32,1.33-.73,1.36l-.15-1.17-.22,0v-.18a78.26,78.26,0,0,0-1.23-13.7l.16.08-.2-.29c-.11-.61-.21-1.22-.33-1.82.16,0,.31.14.43.47.28-1.39-.63-1-.32-2.26.06-.14.13-.1.2,0l-.63-1.17c.28.19.68-.38.73.42,0-2.4-1.7-3.38-1.14-4.44l.11.16c-.94-2.15-.94-1.19-1.53-1.3-.16-.48-.33-1-.5-1.45l.85-1.41-.85,0c-.09-.32-.26-1,.08-1-.92-1-.25.32-1-.17a6.12,6.12,0,0,0-.75-2.71c-.42-.83-.71-1.55-.21-2-.79-.26.23,1.55-.88.21,1-1-1.05-1.65-1.12-3.21.82.08,1.09,1.49,1-.1-1.4-.26-1-2.67-1.9-3.6-.84.42-1.72-2.08-3-3.66.42-.12-1.79-3.44-2.69-5.18l.16-.05c-1,.3-1.95-1.46-3.09-2.37.47-.32.83-.29,1.53.15-.29-.35-.61-.68-.91-1a2.65,2.65,0,0,1-1.52-.82l.76-.22c-1.28-1.3-3-2.18-4.34-4.12-.38.27-.24,1.31-.75,1.57l-.86-.83a.6.6,0,0,1,.68,0c-.19-.11-.75-.29-1-.68l1.14.22c-.6-.9-.76,0-1.33-.61.36-.36-.22-.68.15-.9.19.11.4.65.77.72A5,5,0,0,1,133,21.22c-.13.27-.46.51-1,.09-1.35-1.18,0-.88-.67-1.79-.53-.05-1.23-1-1.73-.45-.42-.32-.28-.65-.31-.94-1-.3-3.57-2.54-3.2-1.26l.16.19-.14-.06c-2.78-1.31-5.07-3.79-7.79-5.15l.13-.22c-1.69-.67-3.69-1.64-5.06-1.73-.48-.23-.94-1-.61-1.14A9.18,9.18,0,0,1,109.5,7.4c1.47.07-.31-.53,1.46.19-1.6-.82-1.86-1.35-3.92-1.36.85-.39-1-1.24-1.88-1.36l1,.88a16.25,16.25,0,0,1-2.5-.93l.7-.66c-1.63-1.05-3.43-1-5-1.05a6.47,6.47,0,0,1-4.29-1.24C94,2.32,97,2.6,96,3.15c-1.64-.37-3.2-1.85-3.74-1.94-2.28-.79-2.33.84-4.71.3.28.32.48,1.15-1.33,1.34-1.66-.19-2-1.38-.9-1.57.41,0,.6.1.58.2.55-.08,1.29-.18.64-.54l-.25.29C85.47.88,83.11.79,83.68.32c-1.31.22-.57.47.38.68A26.88,26.88,0,0,0,78.37.58c.37.15.7.49.34.51-3.31-.22-1.43.65-3.64.9-1.3-.4.38-1.14-1.84-.63-1.41-.25-.37-.8.16-1.07-2,.61-3.89.11-5.11.12L69.34,0a7.6,7.6,0,0,1-1.71.4l.71.51c-.65,0-1.19.08-1.22-.18-.59.5.66.93-.54,1.67-.89-.16-2.48.68-2.92,0,2.68-.22-.47-.78,1.76-1.27a4.75,4.75,0,0,1-1.61.24c-.11-.07.06-.2.22-.26-2.68-.11-1,1.18-3.54,1.82.21-.53-.82-.69-1.22-.49,1-.26.69.62-.17,1.2-1.75.08-1.72.71-2.58.9l1-.1c-.21.52-1,.66-2.09,1.24-.21-.31.93-.6.48-.61-1,1.21-3,.23-4.59,1.37-.91,0-.39-.77-1.17-.71C48.45,7,47.86,6,46.07,7.41c.83.28.85.1-.26,1.3l3-1.93-1.69,1.8c1-.43,1.85-1.37,2.51-1.47-.82.85-.75.72-.1,1C47.88,7.85,47.2,9.8,45.43,10l-.63-1.4a7.12,7.12,0,0,0-3.23,1.71,13.3,13.3,0,0,1-3.45,2.46l1.05-.33c-.06.75-1.69,1.13-2.47,1.89-.2-.47-.87-.29-1.44-.3.26.28-2,1.43-1.62,2.43l-1.58.35c-2.31,1.4-1.58,2.9-3.54,4.5.21-.94-.89-.43.13-1.89-.64.58-1.28,1-1,1.3-.59.1-1.3,2.11-2.21,2.28-.11.4.17.87-.56,1.48-.15,0-.17-.19-.17-.19.14.16-.81,1.3.16,1.1-1.43.4-2.65,1.78-3.81,3.13-.58.68-1.15,1.35-1.72,1.92a4.68,4.68,0,0,1-1.68,1.33c-1,1.61-2.22,3.47-3.14,4.87-.07-.17-.21-.14,0-.39-1.61,1.74.49,2-1.32,4-1.4.73.35-1.42-.36-.87-1.59-.53-1.53,2.81-3.16,3.94l.1-.44c-1.11,1-.9,3.31-2,5.26,0,0-.09-.16-.23-.11a31,31,0,0,1-1.12,6.57c-.39-.84,0-1-.76-.87-.24.93,1.1.1.63,1.94-.54.46-1.35,1.65-2,1.63a17.2,17.2,0,0,1,.55-1.72c-1.24.57-.72,2.24-1.09,3.12l-.35-.23c-.58,2.75.4,3-.41,5.88L3.34,64C4,65.81,2.54,65.27,3,67l-1.08.32c.1,1.11.35,3.85.37,5.75-.71-1.14-.67-3.41-.93-4.88C1.2,69.24.9,71.8,1.32,72.4a2.56,2.56,0,0,1,0-1.4,12.22,12.22,0,0,1,.77,5.2c-1.95-.47-.84,5.47-2.11,7A23.74,23.74,0,0,1,.46,89a52.75,52.75,0,0,0,.61,6.2c1.27-1.82.24,1.27,1.75.7.25,1,.38,1.33.29,1.45v0h0L3,100.55c-.26.84-.58-.86-.9-.68.45,2.23-.41,1.09-.43,2.67.46-.45,1,.55,1.09,1.87l.24-2c1.56,2.82-.45,3,1.38,5.79l-.81-.79c.82,1.46,2.07,5.77,4,6.63,0,.33-.26.86-.68.26a25.75,25.75,0,0,0,3.23,5.31,15.91,15.91,0,0,1,2.93,4.7l-.48,0c.49.55,1.23.71,1.47,1.64-.15,0-.49,0-.3.26a6.64,6.64,0,0,1,2.1,2.07l-.84-.41a11.65,11.65,0,0,0,3.14,3.59A27.07,27.07,0,0,1,21.72,134c-.83.72.84,3.3,1.86,4.42l-.15.08a28.92,28.92,0,0,0,4.75,3.68c1.57,1,3.32,1.69,5.07,2.76a8,8,0,0,0,1.63,2,22.69,22.69,0,0,0,2.7,1.92l5.87,3.79c-.47-.45.5-.74,1.2-.53.77.63,2.72.44,2.15,1.32l-.3-.17c.23,1.22,2.11,1.93,3.59,2.42l.74-1.18c1.53,1.58,4.07,2.46,6.45,2.9s4.55.71,5.43,1.85a21.68,21.68,0,0,0,3.22-.07l-.18.72a33.94,33.94,0,0,0,7.34,1.1l-.74.48c1.91.15,2.56-2,4.26-1.93l.47,1.12c3.25.29,6.65.86,9.83-.24a.65.65,0,0,1-.64.55c1.56.1,6.07,0,5.3-1.35.17.94,3.38-.39,5-1.15l-.12.77c1.26-1.27,1.24-1.52,3.17-2.28.5,0,.56.45-.12.43,1.68,0,1.06-1,3.07-1.09l-.59.62c1.64-.38,1.46-.52,2.16-1.36.89-.64,3-.91,3.48-.39a2.22,2.22,0,0,1,1.74-1.43c.22.19-.06.45-.21.58,2.87-.44,3.47-2.45,5.52-2.58a.52.52,0,0,0,.49.24,37,37,0,0,1-3.54,1.58c.26.61,2-.07,1,1.4,1.15-1.11,2.92-3.16,4.65-3.65a.94.94,0,0,1,.31.1l-.13.14a2.25,2.25,0,0,0,1-.58,8.22,8.22,0,0,0,1.35-.59c.45.37,2-.83,2.74-1.28-.45-.58.62-1.1-.64-1,.15,0-.1.16-.59.5a1.54,1.54,0,0,0-.29.26l0-.09-1.89,1.21a2.71,2.71,0,0,1,2-1.51c.15-.64.33-1.31.45-1.64,1.58.25,3.91-.57,4.5-.31,1.94-2,5.17-4,5.47-6.33.45-.65.91-.3,1.27-.34-.24.41-.65.75-.71,1.07.93-1.32,3.34-3.22,2.95-4.15,1.73-1-.16,1.4,1.64-.6l0,.47c2.34-1.44,3.38-3.48,4.45-5.48s1.86-4.22,4.42-6c-.34.26-.5.39-.68.37,4.47-5.12,6.46-12.07,9.82-17.79.91-1.68.41-2.07.35-3.28l.89-.15c-.09-.71-.24-1.43-.36-2.14a7.09,7.09,0,0,1,1.5-3.61,9.26,9.26,0,0,0,.94-1.89,5.44,5.44,0,0,0,.05-2.43l-.58.36c.29-1.23.29-4,.86-3.68-.08-.14-.48-.48-.14-.93h.42a20.94,20.94,0,0,0-.4-3.13C158.56,84.45,159.74,87.32,160,83.79ZM120.85,149.6l0-.11a.94.94,0,0,1,0,.44c-.47.4-.71.38-.86.3C120.23,150.07,120.5,149.87,120.85,149.6Zm5.71-84.92L70.05,121.2a9,9,0,0,1-12.78,0L31.55,95.49A9,9,0,0,1,44.33,82.71L63.66,102,113.78,51.9a9,9,0,0,1,12.78,12.78Zm29-2c0-.1-.05-.2-.07-.3,0,.07.07.13.1.21A.24.24,0,0,1,155.52,62.67Z"/></g></g></svg>