<?xml version="1.0" encoding="utf-8"?>
<!-- Generator: Adobe Illustrator 22.0.1, SVG Export Plug-In . SVG Version: 6.00 Build 0)  -->
<svg version="1.1" id="Layer_1" xmlns="http://www.w3.org/2000/svg" xmlns:xlink="http://www.w3.org/1999/xlink" x="0px" y="0px"
	 viewBox="0 0 813.3 312.1" style="enable-background:new 0 0 813.3 312.1;" xml:space="preserve">
<style type="text/css">
	.st0{fill:#FFFFFF;}
	.st1{fill-rule:evenodd;clip-rule:evenodd;fill:#FFFFFF;}
</style>
<g>
	<path class="st0" d="M626.2,43.6c2.3-0.3,4.7-0.4,7-0.8c3.7-0.6,4.8-3.7,2.1-6.3c-2.6-2.5-4.7-5.3-7-8c-3.1-3.6-6.9-4.6-11.3-2.7
		c-1,0.4-1.9,0.8-2.8,0.1c-1.3-1.1-2.8-1.6-4.4-2c-2.1-0.5-3-1.8-2.6-4c0.3-1.7,0.7-3.6-1.3-4.6c-1.8-0.8-3.9-0.6-5.4,0.7
		c-1.8,1.5-3.9,1.8-5.9,2.7c-4.2,1.7-9,1.3-12.9,3.9c-1.3,0.8-2.6,1.7-4.1,2c-1.8,0.4-3,1.4-3.6,3c-0.7,1.9-2.1,3.4-3.3,5
		c-1.1,1.5-2.1,2.4-3-0.3c-0.8-2.3-2.4-3.7-5.1-2.4c-0.7,0.3-1.6,0.4-2-0.3c-1.2-2.8-3.5-2.3-5.3-1.4c-2.6,1.3-4.2,0.2-6-1.4
		c-1.3-1.2-2.2-2.5-2.7-4.3c-0.6-1.9-1.7-3.5-4-3.4c-3.5,0.2-7,1-10.6,0.9c-0.7,0-1.4,0.3-2,0.8c-0.5,0.4-0.8,1.2-1.6,0.7
		c-0.7-0.4-0.6-1.3-0.4-2c0.7-2.8,1.5-5.6,4.3-7.3c1.7-1,3.2-2.4,3.5-4.6c0.2-0.9,0.7-1.7,1.7-1.9c1.9-0.5,3.3-1.7,2.7-3.7
		c-0.6-2.4-3-2.3-4.5-1.7c-6.9,2.9-14.2,5.5-17.5,13.2c-3.2,7.5-9.3,12-16.6,15c-2.8,1.1-5.6,2.3-7.9,4.2c-3.8,3.1-4.3,5.1-2.7,9.5
		c0.2,0.4,0.2,0.9,0.2,1.3c0.3,3.6,0.9,4.3,4.5,4.2c5.1-0.2,9.9,1.2,14.6,2.8c9,3.1,17.9,7.5,28,5c2.2-0.6,3.1,0.9,2.7,3.1
		c-0.2,1.5-0.2,3.2,1.8,3.3c3.4,0.1,4.2,2.4,4.5,5.1c0.3,2.3,0.4,4.5-1.1,6.5c-0.9,1.2-1.2,2.9,0.9,3c2.9,0.1,3.1,1.9,3.2,4.1
		c0,1.9,0.5,3.8,2.7,4.1c2.2,0.4,2.4-1.8,3.1-3.1c0.2-0.4,0.3-0.9,0.5-1.3c1.9-4.2,2.9-8.9,5.8-12.6c1.9-2.5,3-5.1,2.7-8.3
		c-0.1-1.7-0.6-4.4,2.7-2.1c0.7,0.5,1.4,0.1,2.1-0.2c1.3-0.5,2,0,1.8,1.3c-0.2,1.8,0.6,2.7,2.3,3.1c1.9,0.5,2.4-1.1,2.9-2.2
		c3.4-7.5,9.5-11.3,17.5-11.4c3.6,0,5-1.8,6.3-4.3c0.3-0.6,0.5-1.2,0.7-1.8c0.7-1.8,1.8-2.4,3.5-1c2.1,1.6,4.2,3.2,6.4,4.6
		c2.5,1.7,4.5,0.8,5.1-2.2c0.1-0.5,0-1.1,0.1-1.6c0.3-1.8,1.2-2.4,2.5-0.8C621,43.2,623.4,43.7,626.2,43.6"/>
	<path class="st1" d="M626.2,43.6c-2.8,0.1-5.2-0.4-7.1-2.7c-1.2-1.5-2.2-1-2.5,0.8c-0.1,0.5,0,1.1-0.1,1.6c-0.6,3-2.6,3.9-5.1,2.2
		c-2.2-1.5-4.3-3-6.4-4.6c-1.8-1.4-2.8-0.8-3.5,1c-0.2,0.6-0.4,1.2-0.7,1.8c-1.3,2.5-2.7,4.3-6.3,4.3c-8,0.1-14.1,3.8-17.5,11.4
		c-0.5,1.2-1,2.7-2.9,2.2c-1.7-0.4-2.5-1.3-2.3-3.1c0.2-1.4-0.5-1.9-1.8-1.3c-0.7,0.3-1.4,0.7-2.1,0.2c-3.2-2.2-2.8,0.5-2.7,2.1
		c0.2,3.2-0.8,5.8-2.7,8.3c-2.9,3.7-3.9,8.4-5.8,12.6c-0.2,0.4-0.3,0.9-0.5,1.3c-0.7,1.4-0.9,3.5-3.1,3.1c-2.2-0.4-2.7-2.2-2.7-4.1
		c0-2.2-0.3-3.9-3.2-4.1c-2.2-0.1-1.8-1.7-0.9-3c1.5-2,1.4-4.3,1.1-6.5c-0.3-2.7-1.1-5-4.5-5.1c-2-0.1-2.1-1.9-1.8-3.3
		c0.4-2.3-0.5-3.7-2.7-3.1c-10.1,2.6-18.9-1.8-28-5c-4.8-1.7-9.5-3-14.6-2.8c-3.6,0.1-4.1-0.6-4.5-4.2c0-0.4-0.1-0.9-0.2-1.3
		c-1.7-4.4-1.1-6.4,2.7-9.5c2.4-1.9,5.1-3,7.9-4.2c7.3-3,13.3-7.5,16.6-15c3.4-7.7,10.6-10.3,17.5-13.2c1.6-0.7,3.9-0.7,4.5,1.7
		c0.5,2-0.8,3.2-2.7,3.7c-1.1,0.2-1.6,1-1.7,1.9c-0.4,2.2-1.8,3.6-3.5,4.6c-2.8,1.7-3.6,4.4-4.3,7.3c-0.2,0.7-0.3,1.5,0.4,2
		c0.7,0.4,1.1-0.4,1.6-0.7c0.6-0.5,1.2-0.8,2-0.8c3.6,0.1,7.1-0.7,10.6-0.9c2.4-0.1,3.5,1.4,4,3.4c0.5,1.7,1.4,3.1,2.7,4.3
		c1.7,1.6,3.3,2.7,6,1.4c1.8-0.9,4.1-1.4,5.3,1.4c0.3,0.8,1.2,0.7,2,0.3c2.7-1.3,4.3,0.1,5.1,2.4c0.9,2.7,1.9,1.8,3,0.3
		c1.2-1.6,2.5-3.1,3.3-5c0.6-1.6,1.8-2.6,3.6-3c1.4-0.3,2.8-1.2,4.1-2c3.9-2.6,8.7-2.2,12.9-3.9c2-0.8,4.1-1.2,5.9-2.7
		c1.6-1.3,3.6-1.6,5.4-0.7c2,0.9,1.6,2.9,1.3,4.6c-0.4,2.2,0.5,3.5,2.6,4c1.6,0.4,3.1,0.9,4.4,2c0.9,0.7,1.8,0.3,2.8-0.1
		c4.4-1.9,8.1-0.9,11.3,2.7c2.3,2.7,4.4,5.5,7,8c2.7,2.6,1.6,5.6-2.1,6.3C630.9,43.2,628.6,43.3,626.2,43.6"/>
	<path class="st1" d="M543.3,19.1c-0.1,1.1,0.3,2.2-0.3,3.3"/>
	<path class="st1" d="M590.8,45.3c0.5,1.1,0.2,2.2,0.3,3.3"/>
	<path class="st1" d="M607.5,17.7c-1.1,0.2-2.3-0.6-3.3,0.5"/>
	<polygon class="st0" points="17.4,197.1 9.2,197.1 1,197.1 1,87.3 9,87.3 17,87.3 55.7,131.5 55.8,131.5 94.6,87.3 101.5,87.3 
		108.5,87.3 108.5,197.1 100.3,197.1 92.1,197.1 92.1,112.7 92,112.7 55.7,154.2 54.7,154.2 53.8,154.2 17.5,112.6 17.4,112.6 	"/>
	<polygon class="st0" points="132.7,87.3 140.9,87.3 149.1,87.3 149.1,197.1 140.9,197.1 132.7,197.1 	"/>
	<path class="st0" d="M273.2,188.9c-7.9,3.7-14.9,6.2-21,7.7c-6.2,1.4-13,2.2-20.6,2.2c-17.4,0-32.2-5.5-44.3-16.4
		c-12-10.9-18.1-24.2-18.1-40.1c0-15.8,6-29.2,18.1-40.2c12.1-10.9,26.9-16.4,44.3-16.4c7.6,0,14.4,0.7,20.6,2.2
		c6.2,1.4,13.2,4,21,7.6v17.2c-7-4.5-13.7-7.7-20-9.6c-6.2-1.9-13.1-2.9-20.7-2.9c-13.6,0-24.7,3.8-33.3,11.6
		c-8.6,7.8-12.9,17.9-12.9,30.3c0,12.4,4.3,22.5,12.9,30.3c8.6,7.8,19.7,11.7,33.3,11.7c7.5,0,14.4-1,20.7-2.9
		c6.2-1.9,12.9-5.2,20-9.6V188.9z"/>
	<polygon class="st0" points="292.7,87.3 300.9,87.3 309.1,87.3 309.1,134.7 373.9,134.7 373.9,87.3 382.1,87.3 390.3,87.3 
		390.3,197.1 382.1,197.1 373.9,197.1 373.9,148.7 309.1,148.7 309.1,197.1 300.9,197.1 292.7,197.1 	"/>
	<polygon class="st0" points="415.3,87.3 423.5,87.3 431.7,87.3 431.7,197.1 423.5,197.1 415.3,197.1 	"/>
	<path class="st0" d="M511.5,198.8c-16.6,0-30.6-5.5-42.1-16.4c-11.5-10.9-17.2-24.2-17.2-40.1c0-15.8,6.1-29.2,18.3-40.2
		c12.2-10.9,27.1-16.4,44.8-16.4c7.5,0,14.3,0.7,20.5,2.2c6.2,1.4,13.4,4,21.6,7.6v17.2c-7.8-4.5-15.1-7.8-21.7-9.7
		c-6.6-1.9-13.8-2.8-21.8-2.8c-13.1,0-23.8,3.9-32.1,11.6c-8.3,7.8-12.4,17.9-12.4,30.3c0,12.4,4.1,22.5,12.4,30.3
		c8.3,7.8,19,11.7,32.2,11.7c10.3,0,19.2-1.5,27-4.6v-23.5h-23.7v-14h40.1v47.7C544.2,195.7,528.9,198.6,511.5,198.8"/>
	<polygon class="st0" points="708.1,197.1 700.3,197.1 692.4,197.1 692.4,87.3 699.4,87.3 706.4,87.3 783.4,171.1 783.4,87.3 
		791.3,87.3 799.2,87.3 799.2,198.1 792.8,198.1 786.3,198.1 708.1,113.2 	"/>
	<path class="st0" d="M0,218.8c2.2-0.3,4.8-0.6,7.6-0.6c5.1,0,8.7,1.2,11.1,3.6c2.5,2.3,3.9,5.7,3.9,10.4c0,4.7-1.4,8.6-3.9,11.2
		c-2.6,2.7-6.8,4.2-12.2,4.2c-2.6,0-4.6-0.1-6.5-0.3V218.8z M3.6,244.4c0.9,0.2,2.2,0.2,3.6,0.2c7.6,0,11.7-4.5,11.7-12.3
		c0-6.9-3.6-11.2-11.1-11.2c-1.8,0-3.2,0.2-4.2,0.4V244.4z"/>
	<path class="st0" d="M27.8,237.6c0.1,5.1,3.1,7.2,6.7,7.2c2.6,0,4.2-0.5,5.5-1l0.6,2.7c-1.3,0.6-3.5,1.3-6.6,1.3
		c-6,0-9.7-4.2-9.7-10.4c0-6.3,3.6-11.2,9.3-11.2c6.4,0,8.1,6,8.1,9.8c0,0.8,0,1.4-0.1,1.8L27.8,237.6z M38.3,234.9
		c0-2.4-0.9-6.1-4.9-6.1c-3.7,0-5.2,3.5-5.5,6.1H38.3z"/>
	<path class="st0" d="M45,233.4c0-2.7,0-4.8-0.2-6.8H48l0.2,3.6h0.1c1.4-2.6,3.8-4,7-4c4.8,0,8.4,4.2,8.4,10.5
		c0,7.5-4.4,11.2-9,11.2c-2.7,0-4.9-1.2-6.1-3.3h-0.1v11.3H45V233.4z M48.6,238.9c0,0.5,0,1.1,0.2,1.5c0.6,2.6,2.8,4.4,5.3,4.4
		c3.8,0,6-3.3,6-8c0-4.2-2-7.7-5.8-7.7c-2.4,0-4.8,1.8-5.5,4.6c-0.1,0.5-0.2,1.1-0.2,1.5V238.9z"/>
	<path class="st0" d="M80.8,242.4c0,1.8,0.1,3.6,0.3,5h-3.2l-0.3-2.6h-0.1c-1.1,1.6-3.2,3.1-6,3.1c-4,0-6-3-6-6
		c0-5,4.2-7.8,11.8-7.7v-0.4c0-1.7-0.5-4.9-4.5-4.8c-1.9,0-3.8,0.6-5.2,1.5l-0.8-2.5c1.6-1.1,4-1.8,6.5-1.8c6.1,0,7.5,4.3,7.5,8.5
		V242.4z M77.3,236.8c-3.9-0.1-8.3,0.6-8.3,4.7c0,2.5,1.6,3.6,3.3,3.6c2.6,0,4.3-1.7,4.8-3.5c0.1-0.4,0.2-0.8,0.2-1.2V236.8z"/>
	<path class="st0" d="M85.4,233.1c0-2.4,0-4.6-0.2-6.5h3.1l0.2,4.1h0.1c0.9-2.8,3.1-4.5,5.5-4.5c0.4,0,0.6,0,1,0.1v3.5
		c-0.4,0-0.8-0.1-1.3-0.1c-2.5,0-4.3,2-4.8,4.8c-0.1,0.6-0.1,1.1-0.1,1.8v11h-3.6L85.4,233.1z"/>
	<path class="st0" d="M102.5,221.6v5h5.1v2.9h-5.1v11.2c0,2.6,0.7,4,2.7,4c1,0,1.5-0.1,2.1-0.3l0.2,2.9c-0.7,0.3-1.8,0.5-3.2,0.5
		c-1.7,0-3-0.6-3.9-1.6c-1-1.1-1.4-3-1.4-5.4v-11.3H96v-2.9H99v-3.8L102.5,221.6z"/>
	<path class="st0" d="M110.5,232.2c0-2.2-0.1-3.9-0.2-5.6h3.1l0.2,3.3h0.1c1.1-2,2.9-3.8,6.2-3.8c2.6,0,4.7,1.7,5.5,4.2h0.1
		c0.6-1.2,1.4-2.1,2.2-2.7c1.2-1,2.4-1.5,4.3-1.5c2.6,0,6.5,1.8,6.5,9v12.2h-3.5v-11.7c0-4-1.4-6.4-4.3-6.4c-2.1,0-3.6,1.6-4.3,3.4
		c-0.2,0.6-0.3,1.2-0.3,1.9v12.9h-3.5v-12.4c0-3.3-1.4-5.7-4.1-5.7c-2.2,0-3.9,1.9-4.5,3.8c-0.2,0.6-0.3,1.2-0.3,1.9v12.5h-3.5
		V232.2z"/>
	<path class="st0" d="M145.2,237.6c0.1,5.1,3.1,7.2,6.7,7.2c2.6,0,4.2-0.5,5.5-1l0.6,2.7c-1.3,0.6-3.5,1.3-6.6,1.3
		c-6,0-9.7-4.2-9.7-10.4c0-6.3,3.5-11.2,9.3-11.2c6.4,0,8.1,6,8.1,9.8c0,0.8,0,1.4-0.1,1.8L145.2,237.6z M155.7,234.9
		c0-2.4-0.9-6.1-4.9-6.1c-3.7,0-5.2,3.5-5.5,6.1H155.7z"/>
	<path class="st0" d="M162.4,232.2c0-2.2,0-3.9-0.2-5.6h3.2l0.2,3.4h0.1c1-1.9,3.3-3.8,6.5-3.8c2.7,0,7,1.7,7,8.8v12.4h-3.6v-12
		c0-3.3-1.2-6.2-4.6-6.2c-2.3,0-4.2,1.8-4.8,3.9c-0.2,0.5-0.2,1.2-0.2,1.8v12.5h-3.6V232.2z"/>
	<path class="st0" d="M188.1,221.6v5h5.1v2.9h-5.1v11.2c0,2.6,0.7,4,2.7,4c1,0,1.6-0.1,2.1-0.3l0.2,2.9c-0.7,0.3-1.8,0.5-3.2,0.5
		c-1.7,0-3-0.6-3.9-1.6c-1-1.1-1.4-3-1.4-5.4v-11.3h-3.1v-2.9h3.1v-3.8L188.1,221.6z"/>
	<path class="st0" d="M166.9,287.1c-5.3,0-9.4-4.1-9.4-10.7c0-6.9,4.4-11,9.8-11c5.7,0,9.5,4.3,9.5,10.6
		C176.7,283.8,171.7,287.1,166.9,287.1L166.9,287.1z M167.1,284.3c3.4,0,6-3.4,6-8.1c0-3.5-1.7-7.9-5.9-7.9c-4.2,0-6,4.1-6,8.1
		C161.1,280.9,163.5,284.3,167.1,284.3L167.1,284.3z"/>
	<path class="st0" d="M180.4,286.7v-17.9h-2.7v-2.9h2.7v-1c0-2.9,0.6-5.6,2.3-7.2c1.3-1.4,3.1-1.9,4.8-1.9c1.3,0,2.4,0.3,3,0.6
		l-0.4,2.9c-0.6-0.3-1.3-0.5-2.3-0.5c-3,0-3.8,2.8-3.8,6v1.1h4.8v2.9h-4.7v17.9H180.4z"/>
	<path class="st0" d="M236.7,217.2v40.2h2c6.5,0,11.3-2,14.2-5.9c2.9-3.9,4.8-9.7,5.6-17.4h2.5v51.6h-2.5
		c-0.6-5.6-1.9-10.2-3.8-13.8c-1.9-3.6-4.2-6-6.8-7.2c-2.6-1.3-6.3-1.9-11.2-1.9v27.7c0,5.4,0.2,8.8,0.7,10c0.5,1.2,1.4,2.2,2.6,3
		c1.3,0.8,3.4,1.2,6.3,1.2h6c9.5,0,17-2.1,22.7-6.4c5.7-4.3,9.8-10.8,12.3-19.5h2.7l-4.6,31.2h-87.4v-2.5h3.3c2.9,0,5.3-0.5,7.1-1.6
		c1.3-0.7,2.3-1.9,3-3.6c0.6-1.2,0.8-4.3,0.8-9.3v-64.5c0-4.5-0.1-7.3-0.4-8.4c-0.5-1.7-1.4-3.1-2.7-4c-1.9-1.4-4.5-2.1-7.7-2.1
		h-3.3v-2.5h84.8v28.9h-2.5c-1.5-7.1-3.5-12.1-6.1-15.2c-2.6-3.1-6.4-5.3-11.2-6.8c-2.8-0.9-8.1-1.3-15.8-1.3H236.7z"/>
	<path class="st0" d="M362,211.7v78.1c0,5.2,0.2,8.3,0.4,9.3c0.4,1.6,1.2,2.8,2.3,3.5c1.1,0.8,3,1.3,5.8,1.4v2.5l-29.3,5.6v-10.7
		c-3.5,4.2-6.7,7-9.4,8.5c-2.7,1.5-5.9,2.2-9.3,2.2c-8.9,0-15.9-3.9-21-11.6c-4.2-6.3-6.3-14-6.3-23.2c0-7.3,1.3-13.9,3.9-19.6
		c2.6-5.8,6.1-10.1,10.6-13.1c4.5-3,9.3-4.5,14.4-4.5c3.3,0,6.3,0.6,8.8,1.9c2.6,1.2,5.3,3.4,8.3,6.5v-20.4c0-5.1-0.2-8.2-0.7-9.3
		c-0.6-1.4-1.5-2.4-2.8-3.1c-1.2-0.7-3.5-1-6.9-1v-3.1H362z M341.2,257.4c-3.7-6.7-8.1-10.1-13.4-10.1c-1.8,0-3.3,0.5-4.5,1.4
		c-1.8,1.5-3.3,4.1-4.5,7.9c-1.2,3.8-1.7,9.6-1.7,17.4c0,8.6,0.6,14.9,1.9,19c1.3,4.1,3,7.1,5.3,8.9c1.1,0.9,2.7,1.4,4.7,1.4
		c4.3,0,8.4-3.4,12.3-10.1V257.4z"/>
	<path class="st0" d="M440.2,242.2v53.2c0,5.2,0.5,8.4,1.5,9.7c1,1.3,3,2.1,6.1,2.4v2.5H419v-9c-3.4,3.9-6.8,6.7-10.2,8.5
		c-3.4,1.8-7.2,2.7-11.4,2.7c-4,0-7.5-1.2-10.7-3.5c-3.1-2.4-5.2-5.1-6.3-8.2c-1.1-3.2-1.6-8.7-1.6-16.5v-27c0-5.2-0.5-8.4-1.5-9.7
		c-1-1.3-3-2.1-6.2-2.5v-2.5h28.8v46.4c0,4.8,0.2,8,0.7,9.4c0.5,1.4,1.2,2.5,2.3,3.2c1.1,0.7,2.2,1.1,3.6,1.1c1.8,0,3.5-0.5,4.9-1.4
		c2-1.3,4.5-3.8,7.3-7.6v-36.4c0-5.2-0.5-8.4-1.5-9.7c-1-1.3-3-2.1-6.2-2.5v-2.5H440.2z"/>
	<path class="st0" d="M510,292.5l2.4,1.7c-3.4,6-7.5,10.5-12.5,13.4c-5,2.9-10.3,4.4-15.9,4.4c-9.5,0-17.1-3.4-22.8-10.2
		c-5.7-6.8-8.5-15-8.5-24.6c0-9.2,2.6-17.4,7.8-24.4c6.3-8.5,14.9-12.7,25.9-12.7c7.4,0,13.3,1.8,17.6,5.3c4.4,3.5,6.5,7.5,6.5,11.8
		c0,2.8-0.9,5-2.6,6.6c-1.8,1.6-4.1,2.4-6.9,2.4c-3,0-5.5-0.9-7.5-2.8c-2-1.9-3.2-5.3-3.6-10.1c-0.3-3.1-1.1-5.2-2.2-6.4
		c-1.2-1.2-2.6-1.8-4.1-1.8c-2.4,0-4.5,1.2-6.3,3.7c-2.7,3.7-4,9.4-4,17.2c0,6.4,1.1,12.5,3.2,18.4c2.1,5.8,5.1,10.2,8.8,13.1
		c2.8,2.1,6.1,3.1,9.9,3.1c2.5,0,4.8-0.6,7.1-1.7C504.3,297.7,506.9,295.6,510,292.5"/>
	<path class="st0" d="M554.3,299.9c-8.7,7.4-16.5,11.2-23.4,11.2c-4.1,0-7.4-1.3-10.1-3.8c-2.7-2.5-4-5.7-4-9.6c0-5.2,2.3-9.8,7-14
		c4.7-4.1,14.8-9.7,30.5-16.5v-6.8c0-5.1-0.3-8.3-0.9-9.7c-0.6-1.3-1.7-2.5-3.3-3.5c-1.6-1-3.5-1.5-5.5-1.5c-3.3,0-6,0.7-8.1,2.1
		c-1.3,0.9-2,1.9-2,3c0,1,0.7,2.3,2.1,3.8c1.9,2.1,2.9,4.1,2.9,6c0,2.4-0.9,4.4-2.8,6.1c-1.8,1.7-4.3,2.5-7.3,2.5
		c-3.2,0-5.9-0.9-8-2.8c-2.2-1.9-3.2-4-3.2-6.5c0-3.5,1.4-6.8,4.3-10c2.9-3.2,6.9-5.6,12.1-7.3c5.2-1.7,10.5-2.6,16.1-2.6
		c6.7,0,12.1,1.4,16,4.1c3.9,2.7,6.5,5.7,7.6,8.9c0.7,2,1.1,6.7,1.1,14v26.4c0,3.1,0.1,5.1,0.4,5.8c0.2,0.8,0.6,1.4,1.1,1.8
		c0.5,0.4,1.1,0.6,1.7,0.6c1.3,0,2.7-0.9,4.1-2.7l2.3,1.7c-2.5,3.6-5.2,6.2-7.9,7.8c-2.7,1.6-5.8,2.4-9.2,2.4
		c-4.1,0-7.2-0.9-9.5-2.8C556.2,306.4,554.8,303.6,554.3,299.9 M554.3,294.5V272c-6.2,3.4-10.8,7.1-13.8,11c-2,2.6-3,5.3-3,7.9
		c0,2.2,0.8,4.2,2.5,5.9c1.3,1.3,3.1,2,5.3,2C547.9,298.9,550.9,297.4,554.3,294.5"/>
	<path class="st0" d="M614.7,217.2v24.9h17v7h-17v42.2c0,3.9,0.2,6.5,0.6,7.6c0.4,1.1,1.1,2.1,2,2.8c1,0.7,1.9,1.1,2.7,1.1
		c3.3,0,6.5-2.4,9.4-7.2l2.3,1.6c-4.1,9.2-10.8,13.9-20,13.9c-4.5,0-8.3-1.2-11.4-3.6c-3.1-2.4-5.1-5.1-6-8.1
		c-0.5-1.6-0.8-6.1-0.8-13.4v-36.8h-9.3v-2.5c6.4-4.3,11.8-8.8,16.3-13.6c4.5-4.7,8.4-10,11.7-15.9H614.7z"/>
	<path class="st0" d="M661.9,242.2V296c0,4.8,0.6,7.9,1.7,9.2c1.2,1.3,3.4,2.1,6.8,2.3v2.5h-37.7v-2.5c3.1-0.1,5.4-1,7-2.6
		c1-1.1,1.5-4.1,1.5-8.9v-39.6c0-4.9-0.6-8-1.7-9.4c-1.2-1.4-3.4-2.2-6.7-2.4v-2.5H661.9z M651.4,209.4c3.2,0,6,1.1,8.2,3.3
		c2.2,2.2,3.4,4.9,3.4,8c0,3.1-1.1,5.7-3.4,7.9c-2.3,2.2-5,3.3-8.2,3.3c-3.2,0-5.9-1.1-8.2-3.3c-2.2-2.2-3.4-4.8-3.4-7.9
		c0-3.1,1.1-5.8,3.4-8C645.5,210.5,648.2,209.4,651.4,209.4"/>
	<path class="st0" d="M702.3,240.1c6.1,0,11.7,1.5,16.9,4.6c5.2,3,9.2,7.4,11.9,13c2.7,5.6,4.1,11.8,4.1,18.4
		c0,9.6-2.5,17.7-7.5,24.2c-6.1,7.8-14.4,11.8-25.1,11.8c-10.5,0-18.5-3.6-24.2-10.7c-5.7-7.2-8.5-15.5-8.5-24.9
		c0-9.7,2.9-18.2,8.7-25.4C684.3,243.7,692.3,240.1,702.3,240.1 M702.7,245.1c-2.5,0-4.7,0.9-6.5,2.8c-1.8,1.9-3,5.6-3.6,11.1
		c-0.6,5.5-0.9,13.2-0.9,23c0,5.2,0.3,10.1,1.1,14.6c0.5,3.4,1.7,6.1,3.5,7.9c1.8,1.8,3.8,2.7,6.1,2.7c2.2,0,4.1-0.6,5.6-1.8
		c1.9-1.6,3.2-4,3.9-6.9c1-4.6,1.5-13.9,1.5-28c0-8.3-0.5-14-1.4-17c-0.9-3.1-2.3-5.3-4.2-6.7C706.5,245.6,704.8,245.1,702.7,245.1"
		/>
	<path class="st0" d="M766.5,242.2v8.9c3.6-3.8,7-6.6,10.3-8.3c3.3-1.7,6.8-2.6,10.6-2.6c4.5,0,8.3,1.2,11.2,3.7c3,2.4,5,5.5,6,9.1
		c0.8,2.8,1.2,8.1,1.2,16v26.5c0,5.2,0.5,8.4,1.5,9.7c1,1.3,3,2.1,6.2,2.4v2.5h-35.4v-2.5c2.7-0.3,4.6-1.4,5.8-3.2
		c0.8-1.2,1.2-4.2,1.2-9V265c0-5.6-0.2-9.1-0.7-10.6c-0.4-1.4-1.2-2.6-2.3-3.4c-1.1-0.8-2.2-1.2-3.5-1.2c-4.3,0-8.3,3-12,9.1v36.5
		c0,5,0.5,8.3,1.5,9.6c1,1.4,2.8,2.2,5.5,2.5v2.5h-35.4v-2.5c3-0.3,5.1-1.2,6.3-2.7c0.9-1.1,1.3-4.2,1.3-9.4v-38.6
		c0-5.2-0.5-8.4-1.5-9.7c-1-1.3-3-2.1-6.2-2.5v-2.5H766.5z"/>
	<g>
		<path class="st1" d="M638,190.2c0,0-1.8-1.5-2.7-2.8c-0.9-1.4-0.5-1-1.5-2.2c-1.1-1.2-6.5-6.2-6.5-6.2s-0.3,1-1,2.7
			c-0.7,1.7-1.8,1.8-2.5,2.8c-0.7,1.1-0.5,1.2-1.6,2.7c-1,1.5-5.7,5.5-7.6,6.6h24.7c-0.2-0.3-0.4-0.6-0.4-1.1c-0.1-0.9,0-2.6,0-2.6
			L638,190.2z"/>
		<path class="st1" d="M677.7,141.9c-0.8-4-3.7-7.5-3.1-11.7c1-7.2-3.3-12.5-6.2-18.2c-1.2-2.3-2.9-2.4-5-0.7
			c-1.2,1-2.5,1.7-3.9,2.4c-2.9,1.2-4.8,3.6-6,6.4c-0.5,1.1-0.7,2.3-1.2,3.3c-1.3,2.8-3.9,2.6-6.3,2.5c-1.8-0.1-3.2-1-3.5-2.9
			c-0.4-2.4-0.3-4.9,0.5-7.3c0.4-1.4,1.2-2.2,2.7-2.3c3.5-0.2,5.5-2.2,5.9-5.7c0.2-1.8,1-3.2,2.3-4.5c1.9-2,3.1-4.5,3.3-7.3
			c0.5-5.6-0.5-10.9-3.9-15.6c-1.3-1.8-1.4-3.6,0.3-5.1c1.4-1.3,1.2-2.7,0.6-4.2c-1.4-3.9-4.5-5.5-8.3-6.3c-3.4-0.6-7-0.7-9.9-2.7
			c-3.3-2.3-6.9-3.9-10.4-5.9c-2.7-1.6-5.4-2.3-8.8-2c-4,0.4-4.9,3.1-6.1,5.7c-1.2,2.6,0.2,4.5,2.6,5.8c1.6,0.9,1,2-0.2,2.6
			c-0.7,0.3-1.6,0.3-2.4,0.3c-4.1,0.1-4.5,0.4-5.5,4.4c-0.3,1.2-0.4,2.3-0.6,3.5c-0.5,2.7-0.3,5.5-1.2,8.1c-0.3,1-0.7,2.4-2.1,2.2
			c-1.3-0.2-1-1.6-1-2.5c0.1-2.3,0.4-4.5,0.5-6.8c0-0.6,0.1-1.4-0.7-1.6c-0.7-0.3-1.2,0.3-1.6,0.8c-1.8,1.9-3.1,4.6-5.6,5.5
			c-4.3,1.6-4.1,6.8-7.7,8.8c-0.3,0.2-0.4,1-0.4,1.5c0.4,7.2-1.9,13.6-5.2,19.8c-1,1.8-1.4,3.7-0.3,5.7c0.9,1.8,0.9,3.7,0.3,5.6
			c-2.1,6.1-0.8,11.8,1.8,17.4c2.4,5.2,3.9,10.7,3.9,16.3c-0.1,12.8-4,24.3-12.9,33.9c-0.7,0.8-1.3,1.5-1.2,2.6h29.5
			c-0.6-0.4-0.8-1-1.6-2.1c-1.1-1.4-2.2-2.8-2.2-3.5c0-0.8,0.4-1.1,0-1.5c-0.4-0.5-0.5-1.5-0.2-3.3c0.3-1.8,0-4.1-0.2-5.8
			c-0.2-1.7,1.3-8.3,1.9-9.4c0.6-1.2,4.6-8,5.1-8.7c0.5-0.7,2.2-3.6,2.5-3.5c0.3,0,2.9-0.1,2.9-0.1l1.3-3.2l-0.7-0.6
			c0,0-0.2-0.7-0.3-1.3c0-0.6,0.2-3.2,0.2-4.8c0-1.6,1.2-3.7,1-3.6c-0.1,0-0.2,0-0.3,0.1c-0.2,0.1-0.3,0.4-0.3,0.4s0.3-1.4,1.7-2.5
			c1.4-1.1,2.7-1.2,2.7-1.2s-0.2,0.1-0.9-0.3c-0.7-0.3-0.6-1.1-0.6-0.8c0,0.3,2.7,0.7,3.3,0.2c0.6-0.5,1.8-0.7,1.8-1
			c0,0-0.1,0-0.1-0.1c-0.3-0.2-0.5-0.5-0.8-0.5c0.1,0.1,0.3,0.1,0.4,0.2c0.2,0.1,0.3,0.2,0.3,0.3c0.4,0.2,0.9,0.4,1.3,0.8
			c0,0,0.3-0.3,0.2-0.7c-0.1-0.4-1-0.8-1-0.8s0.6,0,1.1,0.4c0.6,0.4,1.2,1.3,1.2,1.3s0.4,0,1.1-0.1c0.7-0.1,1,0.1,1.9,1.1
			c0.9,1,2.2,2,2.2,2s0.4,0.2,0.8,0.5c0.3,0.3,0.7,0.8,1.4,1c0.7,0.2,0.9,0.6,1.1,0.5c0.2-0.2,0.1-0.5,0.1-0.5s0.3,0.6,0.4,1.2
			c0.1,0.6,0.5,0.3,0.3,1.2c-0.2,0.8-0.4,1.5-0.4,1.5s0.2,0.2,0.6,0.1c0.4-0.1,0.3-0.8,0.3-0.8c0.3,0.3,0.1,0.9-0.1,1.1
			c-0.4,0.6-1.5,0.7-1.4,0.9c0.2,0.2,0.8,0.2,0.8,0.2s-0.5,0.2-0.8,0.3c-0.4,0.1-0.6,0.1-0.6,0.1v0.9c0,0.6-0.3,2.2-0.8,2.8
			c-0.4,0.6-2.4,2.6-2.4,2.6s-0.2,1.1,0.1,2.1c0.2,1,0.1,0.9,0,1.1c-0.2,0.1-1.6,0-1.6,0s-0.1,0.7-0.2,1c-0.2,0.3-0.6,0.3-0.6,0.3
			s0,0.2-0.1,0.4c-0.1,0.2-0.3,0.1-0.3,0.1s-0.5,0.4-0.9,0.9c-0.3,0.3-0.9,0.6-1.3,0.7c-0.8,0.2-0.9-0.3-1.5-0.7
			c-0.7-0.5-2.4-1.8-2.4-1.8l-0.2,1.6c0,0,1,2.7,2,4c1,1.4,0.2,4.1,0.6,4.5c0.4,0.4,1.2,1.1,1.2,1.1s3.2-3,4.8-3.8
			c1.6-0.8,2.5-0.7,4.5-0.3c2,0.4,4,3.1,4,3.1s1.5-0.7,2.3-1.4c0.7-0.7,2.7-0.3,2.7-0.3l5.2-9l2.2,0.2l1.1-1.5l2.3,2.4l-6.1,10.9
			c0,0-0.2,1-0.3,1.7c-0.1,0.7-0.6,0.4-0.8,1.2c-0.3,0.8-1.1,1.1-1.1,1.1l-1.8,2.8c0,0,2.9,3.2,4.2,3.9c1.3,0.6,2,0.3,1.9,1.4
			c-0.2,1.1-0.8,3.2-0.8,3.2s8.1,4.5,9.9,4.8c1.2,0.2,2.2,0.3,2.8,0.5c0.2-0.6,0.3-1.3,0.4-1.9c0.3-1.5,0.9-2.8,2.3-3.5
			c2.4-1.1,3-3,3.2-5.5c0.4-4.1,0.6-8.5,4.5-11.3c1.6-1.1,2.4-2.6,2.6-4.5c0.2-2.5,1.4-4.5,4-5.3c1.6-0.5,2.5-1.6,3.2-3.1
			C678.8,151.3,678.7,146.6,677.7,141.9z"/>
		<path class="st1" d="M655.9,193.1c0.1,0.1,0.1,0.2,0.1,0.3c0.1-0.3,0.1-0.6,0.2-0.9C655.9,192.7,655.7,192.9,655.9,193.1z"/>
	</g>
</g>
</svg>
