<svg xmlns="http://www.w3.org/2000/svg" xmlns:xlink="http://www.w3.org/1999/xlink" viewBox="0 0 216.16 215.85"><defs><style>.cls-1{fill:none;}.cls-2{fill:#fff121;}.cls-3{clip-path:url(#clip-path);}.cls-4{clip-path:url(#clip-path-2);}.cls-5{fill:#f6a21e;}.cls-6{clip-path:url(#clip-path-3);}.cls-7{clip-path:url(#clip-path-4);}.cls-8{clip-path:url(#clip-path-5);}.cls-9{clip-path:url(#clip-path-6);}.cls-10{clip-path:url(#clip-path-7);}.cls-11{clip-path:url(#clip-path-8);}.cls-12{clip-path:url(#clip-path-9);}.cls-13{clip-path:url(#clip-path-10);}.cls-14{clip-path:url(#clip-path-11);}.cls-15{clip-path:url(#clip-path-12);}.cls-16{clip-path:url(#clip-path-13);}.cls-17{clip-path:url(#clip-path-14);}.cls-18{clip-path:url(#clip-path-15);}.cls-19{clip-path:url(#clip-path-16);}.cls-20{clip-path:url(#clip-path-17);}.cls-21{clip-path:url(#clip-path-18);}.cls-22{clip-path:url(#clip-path-19);}.cls-23{clip-path:url(#clip-path-20);}.cls-24{clip-path:url(#clip-path-21);}.cls-25{clip-path:url(#clip-path-22);}.cls-26{clip-path:url(#clip-path-23);}.cls-27{clip-path:url(#clip-path-24);}.cls-28{clip-path:url(#clip-path-25);}.cls-29{clip-path:url(#clip-path-26);}.cls-30{clip-path:url(#clip-path-27);}.cls-31{clip-path:url(#clip-path-28);}.cls-32{clip-path:url(#clip-path-29);}.cls-33{clip-path:url(#clip-path-30);}.cls-34{clip-path:url(#clip-path-31);}.cls-35{clip-path:url(#clip-path-32);}.cls-36{clip-path:url(#clip-path-33);}.cls-37{clip-path:url(#clip-path-34);}.cls-38{clip-path:url(#clip-path-35);}.cls-39{clip-path:url(#clip-path-36);}.cls-40{clip-path:url(#clip-path-37);}</style><clipPath id="clip-path"><polygon class="cls-1" points="154.78 104.84 154.78 15.09 90.2 15.09 90.2 104.84 34.34 104.84 122.49 192.99 210.64 104.84 154.78 104.84"/></clipPath><clipPath id="clip-path-2"><rect class="cls-1" x="178.13" y="2.63" width="35.1" height="35.1"/></clipPath><clipPath id="clip-path-3"><rect class="cls-1" x="178.13" y="37.73" width="35.1" height="35.1"/></clipPath><clipPath id="clip-path-4"><rect class="cls-1" x="178.13" y="72.83" width="35.1" height="35.1"/></clipPath><clipPath id="clip-path-5"><rect class="cls-1" x="178.13" y="107.93" width="35.1" height="35.1"/></clipPath><clipPath id="clip-path-6"><rect class="cls-1" x="178.13" y="143.02" width="35.1" height="35.1"/></clipPath><clipPath id="clip-path-7"><rect class="cls-1" x="178.13" y="178.12" width="35.1" height="35.1"/></clipPath><clipPath id="clip-path-8"><rect class="cls-1" x="143.03" y="2.63" width="35.1" height="35.1"/></clipPath><clipPath id="clip-path-9"><rect class="cls-1" x="143.03" y="37.73" width="35.1" height="35.1"/></clipPath><clipPath id="clip-path-10"><rect class="cls-1" x="143.03" y="72.83" width="35.1" height="35.1"/></clipPath><clipPath id="clip-path-11"><rect class="cls-1" x="143.03" y="107.93" width="35.1" height="35.1"/></clipPath><clipPath id="clip-path-12"><rect class="cls-1" x="143.03" y="143.02" width="35.1" height="35.1"/></clipPath><clipPath id="clip-path-13"><rect class="cls-1" x="143.03" y="178.12" width="35.1" height="35.1"/></clipPath><clipPath id="clip-path-14"><rect class="cls-1" x="107.93" y="2.63" width="35.1" height="35.1"/></clipPath><clipPath id="clip-path-15"><rect class="cls-1" x="107.93" y="37.73" width="35.1" height="35.1"/></clipPath><clipPath id="clip-path-16"><rect class="cls-1" x="107.93" y="72.83" width="35.1" height="35.1"/></clipPath><clipPath id="clip-path-17"><rect class="cls-1" x="107.93" y="107.93" width="35.1" height="35.1"/></clipPath><clipPath id="clip-path-18"><rect class="cls-1" x="107.93" y="143.02" width="35.1" height="35.1"/></clipPath><clipPath id="clip-path-19"><rect class="cls-1" x="107.93" y="178.12" width="35.1" height="35.1"/></clipPath><clipPath id="clip-path-20"><rect class="cls-1" x="72.83" y="2.63" width="35.1" height="35.1"/></clipPath><clipPath id="clip-path-21"><rect class="cls-1" x="72.83" y="37.73" width="35.1" height="35.1"/></clipPath><clipPath id="clip-path-22"><rect class="cls-1" x="72.83" y="72.83" width="35.1" height="35.1"/></clipPath><clipPath id="clip-path-23"><rect class="cls-1" x="72.83" y="107.93" width="35.1" height="35.1"/></clipPath><clipPath id="clip-path-24"><rect class="cls-1" x="72.83" y="143.02" width="35.1" height="35.1"/></clipPath><clipPath id="clip-path-25"><rect class="cls-1" x="72.83" y="178.12" width="35.1" height="35.1"/></clipPath><clipPath id="clip-path-26"><rect class="cls-1" x="37.73" y="2.63" width="35.1" height="35.1"/></clipPath><clipPath id="clip-path-27"><rect class="cls-1" x="37.73" y="37.73" width="35.1" height="35.1"/></clipPath><clipPath id="clip-path-28"><rect class="cls-1" x="37.73" y="72.83" width="35.1" height="35.1"/></clipPath><clipPath id="clip-path-29"><rect class="cls-1" x="37.73" y="107.93" width="35.1" height="35.1"/></clipPath><clipPath id="clip-path-30"><rect class="cls-1" x="37.73" y="143.02" width="35.1" height="35.1"/></clipPath><clipPath id="clip-path-31"><rect class="cls-1" x="37.73" y="178.12" width="35.1" height="35.1"/></clipPath><clipPath id="clip-path-32"><rect class="cls-1" x="2.63" y="2.63" width="35.1" height="35.1"/></clipPath><clipPath id="clip-path-33"><rect class="cls-1" x="2.63" y="37.73" width="35.1" height="35.1"/></clipPath><clipPath id="clip-path-34"><rect class="cls-1" x="2.63" y="72.83" width="35.1" height="35.1"/></clipPath><clipPath id="clip-path-35"><rect class="cls-1" x="2.63" y="107.93" width="35.1" height="35.1"/></clipPath><clipPath id="clip-path-36"><rect class="cls-1" x="2.63" y="143.02" width="35.1" height="35.1"/></clipPath><clipPath id="clip-path-37"><rect class="cls-1" x="2.63" y="178.12" width="35.1" height="35.1"/></clipPath></defs><title>Asset 1</title><g id="Layer_2" data-name="Layer 2"><g id="Layer_1-2" data-name="Layer 1"><polygon class="cls-2" points="154.78 104.84 154.78 15.09 90.2 15.09 90.2 104.84 34.34 104.84 122.49 192.99 210.64 104.84 154.78 104.84"/><g class="cls-3"><g class="cls-4"><path class="cls-5" d="M213.22,40.36a2.63,2.63,0,1,0-2.63-2.63A2.64,2.64,0,0,0,213.22,40.36Z"/><path class="cls-5" d="M195.67,40.36A2.63,2.63,0,1,0,193,37.73,2.64,2.64,0,0,0,195.67,40.36Z"/><path class="cls-5" d="M213.22,22.81a2.63,2.63,0,1,0-2.63-2.63A2.63,2.63,0,0,0,213.22,22.81Z"/><path class="cls-5" d="M195.67,22.81A2.63,2.63,0,1,0,193,20.18,2.63,2.63,0,0,0,195.67,22.81Z"/><path class="cls-5" d="M186.9,31.59A2.64,2.64,0,1,0,184.27,29,2.64,2.64,0,0,0,186.9,31.59Z"/><path class="cls-5" d="M204.45,31.59A2.64,2.64,0,1,0,201.82,29,2.64,2.64,0,0,0,204.45,31.59Z"/><path class="cls-5" d="M186.9,14a2.64,2.64,0,1,0-2.63-2.63A2.63,2.63,0,0,0,186.9,14Z"/><path class="cls-5" d="M204.45,14a2.64,2.64,0,1,0-2.63-2.63A2.63,2.63,0,0,0,204.45,14Z"/><path class="cls-5" d="M178.13,40.36a2.63,2.63,0,1,0-2.64-2.63A2.63,2.63,0,0,0,178.13,40.36Z"/><path class="cls-5" d="M178.13,22.81a2.63,2.63,0,1,0-2.64-2.63A2.63,2.63,0,0,0,178.13,22.81Z"/><path class="cls-5" d="M213.22,5.27a2.64,2.64,0,1,0-2.63-2.64A2.64,2.64,0,0,0,213.22,5.27Z"/><path class="cls-5" d="M195.67,5.27A2.64,2.64,0,1,0,193,2.63,2.64,2.64,0,0,0,195.67,5.27Z"/><path class="cls-5" d="M178.13,5.27a2.64,2.64,0,1,0-2.64-2.64A2.64,2.64,0,0,0,178.13,5.27Z"/></g><g class="cls-6"><path class="cls-5" d="M213.22,75.46a2.63,2.63,0,1,0-2.63-2.63A2.64,2.64,0,0,0,213.22,75.46Z"/><path class="cls-5" d="M195.67,75.46A2.63,2.63,0,1,0,193,72.83,2.64,2.64,0,0,0,195.67,75.46Z"/><path class="cls-5" d="M213.22,57.91a2.63,2.63,0,1,0-2.63-2.63A2.64,2.64,0,0,0,213.22,57.91Z"/><path class="cls-5" d="M195.67,57.91A2.63,2.63,0,1,0,193,55.28,2.64,2.64,0,0,0,195.67,57.91Z"/><path class="cls-5" d="M186.9,66.69a2.64,2.64,0,1,0-2.63-2.64A2.64,2.64,0,0,0,186.9,66.69Z"/><path class="cls-5" d="M204.45,66.69a2.64,2.64,0,1,0-2.63-2.64A2.64,2.64,0,0,0,204.45,66.69Z"/><path class="cls-5" d="M186.9,49.14a2.64,2.64,0,1,0-2.63-2.63A2.63,2.63,0,0,0,186.9,49.14Z"/><path class="cls-5" d="M204.45,49.14a2.64,2.64,0,1,0-2.63-2.63A2.63,2.63,0,0,0,204.45,49.14Z"/><path class="cls-5" d="M178.13,75.46a2.63,2.63,0,1,0-2.64-2.63A2.63,2.63,0,0,0,178.13,75.46Z"/><path class="cls-5" d="M178.13,57.91a2.63,2.63,0,1,0-2.64-2.63A2.63,2.63,0,0,0,178.13,57.91Z"/><path class="cls-5" d="M213.22,40.36a2.63,2.63,0,1,0-2.63-2.63A2.64,2.64,0,0,0,213.22,40.36Z"/><path class="cls-5" d="M195.67,40.36A2.63,2.63,0,1,0,193,37.73,2.64,2.64,0,0,0,195.67,40.36Z"/><path class="cls-5" d="M178.13,40.36a2.63,2.63,0,1,0-2.64-2.63A2.63,2.63,0,0,0,178.13,40.36Z"/></g><g class="cls-7"><path class="cls-5" d="M213.22,110.56a2.64,2.64,0,1,0-2.63-2.63A2.64,2.64,0,0,0,213.22,110.56Z"/><path class="cls-5" d="M195.67,110.56a2.64,2.64,0,1,0-2.63-2.63A2.64,2.64,0,0,0,195.67,110.56Z"/><path class="cls-5" d="M213.22,93a2.64,2.64,0,1,0-2.63-2.63A2.64,2.64,0,0,0,213.22,93Z"/><path class="cls-5" d="M195.67,93A2.64,2.64,0,1,0,193,90.38,2.64,2.64,0,0,0,195.67,93Z"/><path class="cls-5" d="M186.9,101.78a2.63,2.63,0,1,0-2.63-2.63A2.63,2.63,0,0,0,186.9,101.78Z"/><path class="cls-5" d="M204.45,101.78a2.63,2.63,0,1,0-2.63-2.63A2.63,2.63,0,0,0,204.45,101.78Z"/><path class="cls-5" d="M186.9,84.23a2.63,2.63,0,1,0-2.63-2.63A2.63,2.63,0,0,0,186.9,84.23Z"/><path class="cls-5" d="M204.45,84.23a2.63,2.63,0,1,0-2.63-2.63A2.63,2.63,0,0,0,204.45,84.23Z"/><path class="cls-5" d="M178.13,110.56a2.64,2.64,0,1,0-2.64-2.63A2.63,2.63,0,0,0,178.13,110.56Z"/><path class="cls-5" d="M178.13,93a2.64,2.64,0,1,0-2.64-2.63A2.63,2.63,0,0,0,178.13,93Z"/><path class="cls-5" d="M213.22,75.46a2.63,2.63,0,1,0-2.63-2.63A2.64,2.64,0,0,0,213.22,75.46Z"/><path class="cls-5" d="M195.67,75.46A2.63,2.63,0,1,0,193,72.83,2.64,2.64,0,0,0,195.67,75.46Z"/><path class="cls-5" d="M178.13,75.46a2.63,2.63,0,1,0-2.64-2.63A2.63,2.63,0,0,0,178.13,75.46Z"/></g><g class="cls-8"><path class="cls-5" d="M213.22,145.66a2.64,2.64,0,1,0-2.63-2.64A2.64,2.64,0,0,0,213.22,145.66Z"/><path class="cls-5" d="M195.67,145.66A2.64,2.64,0,1,0,193,143,2.64,2.64,0,0,0,195.67,145.66Z"/><path class="cls-5" d="M213.22,128.11a2.64,2.64,0,1,0-2.63-2.63A2.64,2.64,0,0,0,213.22,128.11Z"/><path class="cls-5" d="M195.67,128.11a2.64,2.64,0,1,0-2.63-2.63A2.64,2.64,0,0,0,195.67,128.11Z"/><path class="cls-5" d="M186.9,136.88a2.63,2.63,0,1,0-2.63-2.63A2.63,2.63,0,0,0,186.9,136.88Z"/><path class="cls-5" d="M204.45,136.88a2.63,2.63,0,1,0-2.63-2.63A2.63,2.63,0,0,0,204.45,136.88Z"/><path class="cls-5" d="M186.9,119.33a2.63,2.63,0,1,0-2.63-2.63A2.63,2.63,0,0,0,186.9,119.33Z"/><path class="cls-5" d="M204.45,119.33a2.63,2.63,0,1,0-2.63-2.63A2.63,2.63,0,0,0,204.45,119.33Z"/><path class="cls-5" d="M178.13,145.66a2.64,2.64,0,1,0-2.64-2.64A2.64,2.64,0,0,0,178.13,145.66Z"/><path class="cls-5" d="M178.13,128.11a2.64,2.64,0,1,0-2.64-2.63A2.63,2.63,0,0,0,178.13,128.11Z"/><path class="cls-5" d="M213.22,110.56a2.64,2.64,0,1,0-2.63-2.63A2.64,2.64,0,0,0,213.22,110.56Z"/><path class="cls-5" d="M195.67,110.56a2.64,2.64,0,1,0-2.63-2.63A2.64,2.64,0,0,0,195.67,110.56Z"/><path class="cls-5" d="M178.13,110.56a2.64,2.64,0,1,0-2.64-2.63A2.63,2.63,0,0,0,178.13,110.56Z"/></g><g class="cls-9"><path class="cls-5" d="M213.22,180.76a2.64,2.64,0,1,0-2.63-2.64A2.64,2.64,0,0,0,213.22,180.76Z"/><path class="cls-5" d="M195.67,180.76a2.64,2.64,0,1,0-2.63-2.64A2.64,2.64,0,0,0,195.67,180.76Z"/><path class="cls-5" d="M213.22,163.21a2.64,2.64,0,1,0-2.63-2.64A2.64,2.64,0,0,0,213.22,163.21Z"/><path class="cls-5" d="M195.67,163.21a2.64,2.64,0,1,0-2.63-2.64A2.64,2.64,0,0,0,195.67,163.21Z"/><path class="cls-5" d="M186.9,172a2.63,2.63,0,1,0-2.63-2.63A2.63,2.63,0,0,0,186.9,172Z"/><path class="cls-5" d="M204.45,172a2.63,2.63,0,1,0-2.63-2.63A2.63,2.63,0,0,0,204.45,172Z"/><path class="cls-5" d="M186.9,154.43a2.63,2.63,0,1,0-2.63-2.63A2.63,2.63,0,0,0,186.9,154.43Z"/><path class="cls-5" d="M204.45,154.43a2.63,2.63,0,1,0-2.63-2.63A2.63,2.63,0,0,0,204.45,154.43Z"/><path class="cls-5" d="M178.13,180.76a2.64,2.64,0,1,0-2.64-2.64A2.64,2.64,0,0,0,178.13,180.76Z"/><path class="cls-5" d="M178.13,163.21a2.64,2.64,0,1,0-2.64-2.64A2.64,2.64,0,0,0,178.13,163.21Z"/><path class="cls-5" d="M213.22,145.66a2.64,2.64,0,1,0-2.63-2.64A2.64,2.64,0,0,0,213.22,145.66Z"/><path class="cls-5" d="M195.67,145.66A2.64,2.64,0,1,0,193,143,2.64,2.64,0,0,0,195.67,145.66Z"/><path class="cls-5" d="M178.13,145.66a2.64,2.64,0,1,0-2.64-2.64A2.64,2.64,0,0,0,178.13,145.66Z"/></g><g class="cls-10"><path class="cls-5" d="M213.22,215.85a2.63,2.63,0,1,0-2.63-2.63A2.64,2.64,0,0,0,213.22,215.85Z"/><path class="cls-5" d="M195.67,215.85a2.63,2.63,0,1,0-2.63-2.63A2.64,2.64,0,0,0,195.67,215.85Z"/><path class="cls-5" d="M213.22,198.3a2.63,2.63,0,1,0-2.63-2.63A2.63,2.63,0,0,0,213.22,198.3Z"/><path class="cls-5" d="M195.67,198.3a2.63,2.63,0,1,0-2.63-2.63A2.63,2.63,0,0,0,195.67,198.3Z"/><path class="cls-5" d="M186.9,207.08a2.64,2.64,0,1,0-2.63-2.64A2.64,2.64,0,0,0,186.9,207.08Z"/><path class="cls-5" d="M204.45,207.08a2.64,2.64,0,1,0-2.63-2.64A2.64,2.64,0,0,0,204.45,207.08Z"/><path class="cls-5" d="M186.9,189.53a2.64,2.64,0,1,0-2.63-2.63A2.63,2.63,0,0,0,186.9,189.53Z"/><path class="cls-5" d="M204.45,189.53a2.64,2.64,0,1,0-2.63-2.63A2.63,2.63,0,0,0,204.45,189.53Z"/><path class="cls-5" d="M178.13,215.85a2.63,2.63,0,1,0-2.64-2.63A2.63,2.63,0,0,0,178.13,215.85Z"/><path class="cls-5" d="M178.13,198.3a2.63,2.63,0,1,0-2.64-2.63A2.63,2.63,0,0,0,178.13,198.3Z"/><path class="cls-5" d="M213.22,180.76a2.64,2.64,0,1,0-2.63-2.64A2.64,2.64,0,0,0,213.22,180.76Z"/><path class="cls-5" d="M195.67,180.76a2.64,2.64,0,1,0-2.63-2.64A2.64,2.64,0,0,0,195.67,180.76Z"/><path class="cls-5" d="M178.13,180.76a2.64,2.64,0,1,0-2.64-2.64A2.64,2.64,0,0,0,178.13,180.76Z"/></g><g class="cls-11"><path class="cls-5" d="M178.13,40.36a2.63,2.63,0,1,0-2.64-2.63A2.63,2.63,0,0,0,178.13,40.36Z"/><path class="cls-5" d="M160.58,40.36a2.63,2.63,0,1,0-2.64-2.63A2.63,2.63,0,0,0,160.58,40.36Z"/><path class="cls-5" d="M178.13,22.81a2.63,2.63,0,1,0-2.64-2.63A2.63,2.63,0,0,0,178.13,22.81Z"/><path class="cls-5" d="M160.58,22.81a2.63,2.63,0,1,0-2.64-2.63A2.63,2.63,0,0,0,160.58,22.81Z"/><path class="cls-5" d="M151.8,31.59A2.64,2.64,0,1,0,149.17,29,2.64,2.64,0,0,0,151.8,31.59Z"/><path class="cls-5" d="M169.35,31.59A2.64,2.64,0,1,0,166.72,29,2.64,2.64,0,0,0,169.35,31.59Z"/><path class="cls-5" d="M151.8,14a2.64,2.64,0,1,0-2.63-2.63A2.63,2.63,0,0,0,151.8,14Z"/><path class="cls-5" d="M169.35,14a2.64,2.64,0,1,0-2.63-2.63A2.63,2.63,0,0,0,169.35,14Z"/><path class="cls-5" d="M143,40.36a2.63,2.63,0,1,0-2.64-2.63A2.63,2.63,0,0,0,143,40.36Z"/><path class="cls-5" d="M143,22.81a2.63,2.63,0,1,0-2.64-2.63A2.63,2.63,0,0,0,143,22.81Z"/><path class="cls-5" d="M178.13,5.27a2.64,2.64,0,1,0-2.64-2.64A2.64,2.64,0,0,0,178.13,5.27Z"/><path class="cls-5" d="M160.58,5.27a2.64,2.64,0,1,0-2.64-2.64A2.64,2.64,0,0,0,160.58,5.27Z"/><path class="cls-5" d="M143,5.27a2.64,2.64,0,1,0-2.64-2.64A2.64,2.64,0,0,0,143,5.27Z"/></g><g class="cls-12"><path class="cls-5" d="M178.13,75.46a2.63,2.63,0,1,0-2.64-2.63A2.63,2.63,0,0,0,178.13,75.46Z"/><path class="cls-5" d="M160.58,75.46a2.63,2.63,0,1,0-2.64-2.63A2.63,2.63,0,0,0,160.58,75.46Z"/><path class="cls-5" d="M178.13,57.91a2.63,2.63,0,1,0-2.64-2.63A2.63,2.63,0,0,0,178.13,57.91Z"/><path class="cls-5" d="M160.58,57.91a2.63,2.63,0,1,0-2.64-2.63A2.63,2.63,0,0,0,160.58,57.91Z"/><path class="cls-5" d="M151.8,66.69a2.64,2.64,0,1,0-2.63-2.64A2.64,2.64,0,0,0,151.8,66.69Z"/><path class="cls-5" d="M169.35,66.69a2.64,2.64,0,1,0-2.63-2.64A2.64,2.64,0,0,0,169.35,66.69Z"/><path class="cls-5" d="M151.8,49.14a2.64,2.64,0,1,0-2.63-2.63A2.63,2.63,0,0,0,151.8,49.14Z"/><path class="cls-5" d="M169.35,49.14a2.64,2.64,0,1,0-2.63-2.63A2.63,2.63,0,0,0,169.35,49.14Z"/><path class="cls-5" d="M143,75.46a2.63,2.63,0,1,0-2.64-2.63A2.63,2.63,0,0,0,143,75.46Z"/><path class="cls-5" d="M143,57.91a2.63,2.63,0,1,0-2.64-2.63A2.63,2.63,0,0,0,143,57.91Z"/><path class="cls-5" d="M178.13,40.36a2.63,2.63,0,1,0-2.64-2.63A2.63,2.63,0,0,0,178.13,40.36Z"/><path class="cls-5" d="M160.58,40.36a2.63,2.63,0,1,0-2.64-2.63A2.63,2.63,0,0,0,160.58,40.36Z"/><path class="cls-5" d="M143,40.36a2.63,2.63,0,1,0-2.64-2.63A2.63,2.63,0,0,0,143,40.36Z"/></g><g class="cls-13"><path class="cls-5" d="M178.13,110.56a2.64,2.64,0,1,0-2.64-2.63A2.63,2.63,0,0,0,178.13,110.56Z"/><path class="cls-5" d="M160.58,110.56a2.64,2.64,0,1,0-2.64-2.63A2.63,2.63,0,0,0,160.58,110.56Z"/><path class="cls-5" d="M178.13,93a2.64,2.64,0,1,0-2.64-2.63A2.63,2.63,0,0,0,178.13,93Z"/><path class="cls-5" d="M160.58,93a2.64,2.64,0,1,0-2.64-2.63A2.63,2.63,0,0,0,160.58,93Z"/><path class="cls-5" d="M151.8,101.78a2.63,2.63,0,1,0-2.63-2.63A2.63,2.63,0,0,0,151.8,101.78Z"/><path class="cls-5" d="M169.35,101.78a2.63,2.63,0,1,0-2.63-2.63A2.63,2.63,0,0,0,169.35,101.78Z"/><path class="cls-5" d="M151.8,84.23a2.63,2.63,0,1,0-2.63-2.63A2.63,2.63,0,0,0,151.8,84.23Z"/><path class="cls-5" d="M169.35,84.23a2.63,2.63,0,1,0-2.63-2.63A2.63,2.63,0,0,0,169.35,84.23Z"/><path class="cls-5" d="M143,110.56a2.64,2.64,0,1,0-2.64-2.63A2.63,2.63,0,0,0,143,110.56Z"/><path class="cls-5" d="M143,93a2.64,2.64,0,1,0-2.64-2.63A2.63,2.63,0,0,0,143,93Z"/><path class="cls-5" d="M178.13,75.46a2.63,2.63,0,1,0-2.64-2.63A2.63,2.63,0,0,0,178.13,75.46Z"/><path class="cls-5" d="M160.58,75.46a2.63,2.63,0,1,0-2.64-2.63A2.63,2.63,0,0,0,160.58,75.46Z"/><path class="cls-5" d="M143,75.46a2.63,2.63,0,1,0-2.64-2.63A2.63,2.63,0,0,0,143,75.46Z"/></g><g class="cls-14"><path class="cls-5" d="M178.13,145.66a2.64,2.64,0,1,0-2.64-2.64A2.64,2.64,0,0,0,178.13,145.66Z"/><path class="cls-5" d="M160.58,145.66a2.64,2.64,0,1,0-2.64-2.64A2.64,2.64,0,0,0,160.58,145.66Z"/><path class="cls-5" d="M178.13,128.11a2.64,2.64,0,1,0-2.64-2.63A2.63,2.63,0,0,0,178.13,128.11Z"/><path class="cls-5" d="M160.58,128.11a2.64,2.64,0,1,0-2.64-2.63A2.63,2.63,0,0,0,160.58,128.11Z"/><path class="cls-5" d="M151.8,136.88a2.63,2.63,0,1,0-2.63-2.63A2.63,2.63,0,0,0,151.8,136.88Z"/><path class="cls-5" d="M169.35,136.88a2.63,2.63,0,1,0-2.63-2.63A2.63,2.63,0,0,0,169.35,136.88Z"/><path class="cls-5" d="M151.8,119.33a2.63,2.63,0,1,0-2.63-2.63A2.63,2.63,0,0,0,151.8,119.33Z"/><path class="cls-5" d="M169.35,119.33a2.63,2.63,0,1,0-2.63-2.63A2.63,2.63,0,0,0,169.35,119.33Z"/><path class="cls-5" d="M143,145.66a2.64,2.64,0,1,0-2.64-2.64A2.64,2.64,0,0,0,143,145.66Z"/><path class="cls-5" d="M143,128.11a2.64,2.64,0,1,0-2.64-2.63A2.63,2.63,0,0,0,143,128.11Z"/><path class="cls-5" d="M178.13,110.56a2.64,2.64,0,1,0-2.64-2.63A2.63,2.63,0,0,0,178.13,110.56Z"/><path class="cls-5" d="M160.58,110.56a2.64,2.64,0,1,0-2.64-2.63A2.63,2.63,0,0,0,160.58,110.56Z"/><path class="cls-5" d="M143,110.56a2.64,2.64,0,1,0-2.64-2.63A2.63,2.63,0,0,0,143,110.56Z"/></g><g class="cls-15"><path class="cls-5" d="M178.13,180.76a2.64,2.64,0,1,0-2.64-2.64A2.64,2.64,0,0,0,178.13,180.76Z"/><path class="cls-5" d="M160.58,180.76a2.64,2.64,0,1,0-2.64-2.64A2.64,2.64,0,0,0,160.58,180.76Z"/><path class="cls-5" d="M178.13,163.21a2.64,2.64,0,1,0-2.64-2.64A2.64,2.64,0,0,0,178.13,163.21Z"/><path class="cls-5" d="M160.58,163.21a2.64,2.64,0,1,0-2.64-2.64A2.64,2.64,0,0,0,160.58,163.21Z"/><path class="cls-5" d="M151.8,172a2.63,2.63,0,1,0-2.63-2.63A2.63,2.63,0,0,0,151.8,172Z"/><path class="cls-5" d="M169.35,172a2.63,2.63,0,1,0-2.63-2.63A2.63,2.63,0,0,0,169.35,172Z"/><path class="cls-5" d="M151.8,154.43a2.63,2.63,0,1,0-2.63-2.63A2.63,2.63,0,0,0,151.8,154.43Z"/><path class="cls-5" d="M169.35,154.43a2.63,2.63,0,1,0-2.63-2.63A2.63,2.63,0,0,0,169.35,154.43Z"/><path class="cls-5" d="M143,180.76a2.64,2.64,0,1,0-2.64-2.64A2.64,2.64,0,0,0,143,180.76Z"/><path class="cls-5" d="M143,163.21a2.64,2.64,0,1,0-2.64-2.64A2.64,2.64,0,0,0,143,163.21Z"/><path class="cls-5" d="M178.13,145.66a2.64,2.64,0,1,0-2.64-2.64A2.64,2.64,0,0,0,178.13,145.66Z"/><path class="cls-5" d="M160.58,145.66a2.64,2.64,0,1,0-2.64-2.64A2.64,2.64,0,0,0,160.58,145.66Z"/><path class="cls-5" d="M143,145.66a2.64,2.64,0,1,0-2.64-2.64A2.64,2.64,0,0,0,143,145.66Z"/></g><g class="cls-16"><path class="cls-5" d="M178.13,215.85a2.63,2.63,0,1,0-2.64-2.63A2.63,2.63,0,0,0,178.13,215.85Z"/><path class="cls-5" d="M160.58,215.85a2.63,2.63,0,1,0-2.64-2.63A2.63,2.63,0,0,0,160.58,215.85Z"/><path class="cls-5" d="M178.13,198.3a2.63,2.63,0,1,0-2.64-2.63A2.63,2.63,0,0,0,178.13,198.3Z"/><path class="cls-5" d="M160.58,198.3a2.63,2.63,0,1,0-2.64-2.63A2.63,2.63,0,0,0,160.58,198.3Z"/><path class="cls-5" d="M151.8,207.08a2.64,2.64,0,1,0-2.63-2.64A2.64,2.64,0,0,0,151.8,207.08Z"/><path class="cls-5" d="M169.35,207.08a2.64,2.64,0,1,0-2.63-2.64A2.64,2.64,0,0,0,169.35,207.08Z"/><path class="cls-5" d="M151.8,189.53a2.64,2.64,0,1,0-2.63-2.63A2.63,2.63,0,0,0,151.8,189.53Z"/><path class="cls-5" d="M169.35,189.53a2.64,2.64,0,1,0-2.63-2.63A2.63,2.63,0,0,0,169.35,189.53Z"/><path class="cls-5" d="M143,215.85a2.63,2.63,0,1,0-2.64-2.63A2.63,2.63,0,0,0,143,215.85Z"/><path class="cls-5" d="M143,198.3a2.63,2.63,0,1,0-2.64-2.63A2.63,2.63,0,0,0,143,198.3Z"/><path class="cls-5" d="M178.13,180.76a2.64,2.64,0,1,0-2.64-2.64A2.64,2.64,0,0,0,178.13,180.76Z"/><path class="cls-5" d="M160.58,180.76a2.64,2.64,0,1,0-2.64-2.64A2.64,2.64,0,0,0,160.58,180.76Z"/><path class="cls-5" d="M143,180.76a2.64,2.64,0,1,0-2.64-2.64A2.64,2.64,0,0,0,143,180.76Z"/></g><g class="cls-17"><path class="cls-5" d="M143,40.36a2.63,2.63,0,1,0-2.64-2.63A2.63,2.63,0,0,0,143,40.36Z"/><path class="cls-5" d="M125.48,40.36a2.63,2.63,0,1,0-2.64-2.63A2.63,2.63,0,0,0,125.48,40.36Z"/><path class="cls-5" d="M143,22.81a2.63,2.63,0,1,0-2.64-2.63A2.63,2.63,0,0,0,143,22.81Z"/><path class="cls-5" d="M125.48,22.81a2.63,2.63,0,1,0-2.64-2.63A2.63,2.63,0,0,0,125.48,22.81Z"/><path class="cls-5" d="M116.7,31.59A2.64,2.64,0,1,0,114.07,29,2.64,2.64,0,0,0,116.7,31.59Z"/><path class="cls-5" d="M134.25,31.59A2.64,2.64,0,1,0,131.62,29,2.64,2.64,0,0,0,134.25,31.59Z"/><path class="cls-5" d="M116.7,14a2.64,2.64,0,1,0-2.63-2.63A2.64,2.64,0,0,0,116.7,14Z"/><path class="cls-5" d="M134.25,14a2.64,2.64,0,1,0-2.63-2.63A2.63,2.63,0,0,0,134.25,14Z"/><path class="cls-5" d="M107.93,40.36a2.63,2.63,0,1,0-2.63-2.63A2.63,2.63,0,0,0,107.93,40.36Z"/><path class="cls-5" d="M107.93,22.81a2.63,2.63,0,1,0-2.63-2.63A2.63,2.63,0,0,0,107.93,22.81Z"/><path class="cls-5" d="M143,5.27a2.64,2.64,0,1,0-2.64-2.64A2.64,2.64,0,0,0,143,5.27Z"/><path class="cls-5" d="M125.48,5.27a2.64,2.64,0,1,0-2.64-2.64A2.64,2.64,0,0,0,125.48,5.27Z"/><path class="cls-5" d="M107.93,5.27a2.64,2.64,0,1,0-2.63-2.64A2.64,2.64,0,0,0,107.93,5.27Z"/></g><g class="cls-18"><path class="cls-5" d="M143,75.46a2.63,2.63,0,1,0-2.64-2.63A2.63,2.63,0,0,0,143,75.46Z"/><path class="cls-5" d="M125.48,75.46a2.63,2.63,0,1,0-2.64-2.63A2.63,2.63,0,0,0,125.48,75.46Z"/><path class="cls-5" d="M143,57.91a2.63,2.63,0,1,0-2.64-2.63A2.63,2.63,0,0,0,143,57.91Z"/><path class="cls-5" d="M125.48,57.91a2.63,2.63,0,1,0-2.64-2.63A2.63,2.63,0,0,0,125.48,57.91Z"/><path class="cls-5" d="M116.7,66.69a2.64,2.64,0,1,0-2.63-2.64A2.64,2.64,0,0,0,116.7,66.69Z"/><path class="cls-5" d="M134.25,66.69a2.64,2.64,0,1,0-2.63-2.64A2.64,2.64,0,0,0,134.25,66.69Z"/><path class="cls-5" d="M116.7,49.14a2.64,2.64,0,1,0-2.63-2.63A2.64,2.64,0,0,0,116.7,49.14Z"/><path class="cls-5" d="M134.25,49.14a2.64,2.64,0,1,0-2.63-2.63A2.63,2.63,0,0,0,134.25,49.14Z"/><path class="cls-5" d="M107.93,75.46a2.63,2.63,0,1,0-2.63-2.63A2.63,2.63,0,0,0,107.93,75.46Z"/><path class="cls-5" d="M107.93,57.91a2.63,2.63,0,1,0-2.63-2.63A2.63,2.63,0,0,0,107.93,57.91Z"/><path class="cls-5" d="M143,40.36a2.63,2.63,0,1,0-2.64-2.63A2.63,2.63,0,0,0,143,40.36Z"/><path class="cls-5" d="M125.48,40.36a2.63,2.63,0,1,0-2.64-2.63A2.63,2.63,0,0,0,125.48,40.36Z"/><path class="cls-5" d="M107.93,40.36a2.63,2.63,0,1,0-2.63-2.63A2.63,2.63,0,0,0,107.93,40.36Z"/></g><g class="cls-19"><path class="cls-5" d="M143,110.56a2.64,2.64,0,1,0-2.64-2.63A2.63,2.63,0,0,0,143,110.56Z"/><path class="cls-5" d="M125.48,110.56a2.64,2.64,0,1,0-2.64-2.63A2.63,2.63,0,0,0,125.48,110.56Z"/><path class="cls-5" d="M143,93a2.64,2.64,0,1,0-2.64-2.63A2.63,2.63,0,0,0,143,93Z"/><path class="cls-5" d="M125.48,93a2.64,2.64,0,1,0-2.64-2.63A2.63,2.63,0,0,0,125.48,93Z"/><path class="cls-5" d="M116.7,101.78a2.63,2.63,0,1,0-2.63-2.63A2.64,2.64,0,0,0,116.7,101.78Z"/><path class="cls-5" d="M134.25,101.78a2.63,2.63,0,1,0-2.63-2.63A2.63,2.63,0,0,0,134.25,101.78Z"/><path class="cls-5" d="M116.7,84.23a2.63,2.63,0,1,0-2.63-2.63A2.63,2.63,0,0,0,116.7,84.23Z"/><path class="cls-5" d="M134.25,84.23a2.63,2.63,0,1,0-2.63-2.63A2.63,2.63,0,0,0,134.25,84.23Z"/><path class="cls-5" d="M107.93,110.56a2.64,2.64,0,1,0-2.63-2.63A2.63,2.63,0,0,0,107.93,110.56Z"/><path class="cls-5" d="M107.93,93a2.64,2.64,0,1,0-2.63-2.63A2.63,2.63,0,0,0,107.93,93Z"/><path class="cls-5" d="M143,75.46a2.63,2.63,0,1,0-2.64-2.63A2.63,2.63,0,0,0,143,75.46Z"/><path class="cls-5" d="M125.48,75.46a2.63,2.63,0,1,0-2.64-2.63A2.63,2.63,0,0,0,125.48,75.46Z"/><path class="cls-5" d="M107.93,75.46a2.63,2.63,0,1,0-2.63-2.63A2.63,2.63,0,0,0,107.93,75.46Z"/></g><g class="cls-20"><path class="cls-5" d="M143,145.66a2.64,2.64,0,1,0-2.64-2.64A2.64,2.64,0,0,0,143,145.66Z"/><path class="cls-5" d="M125.48,145.66a2.64,2.64,0,1,0-2.64-2.64A2.64,2.64,0,0,0,125.48,145.66Z"/><path class="cls-5" d="M143,128.11a2.64,2.64,0,1,0-2.64-2.63A2.63,2.63,0,0,0,143,128.11Z"/><path class="cls-5" d="M125.48,128.11a2.64,2.64,0,1,0-2.64-2.63A2.63,2.63,0,0,0,125.48,128.11Z"/><path class="cls-5" d="M116.7,136.88a2.63,2.63,0,1,0-2.63-2.63A2.64,2.64,0,0,0,116.7,136.88Z"/><path class="cls-5" d="M134.25,136.88a2.63,2.63,0,1,0-2.63-2.63A2.63,2.63,0,0,0,134.25,136.88Z"/><path class="cls-5" d="M116.7,119.33a2.63,2.63,0,1,0-2.63-2.63A2.64,2.64,0,0,0,116.7,119.33Z"/><path class="cls-5" d="M134.25,119.33a2.63,2.63,0,1,0-2.63-2.63A2.63,2.63,0,0,0,134.25,119.33Z"/><path class="cls-5" d="M107.93,145.66A2.64,2.64,0,1,0,105.3,143,2.64,2.64,0,0,0,107.93,145.66Z"/><path class="cls-5" d="M107.93,128.11a2.64,2.64,0,1,0-2.63-2.63A2.63,2.63,0,0,0,107.93,128.11Z"/><path class="cls-5" d="M143,110.56a2.64,2.64,0,1,0-2.64-2.63A2.63,2.63,0,0,0,143,110.56Z"/><path class="cls-5" d="M125.48,110.56a2.64,2.64,0,1,0-2.64-2.63A2.63,2.63,0,0,0,125.48,110.56Z"/><path class="cls-5" d="M107.93,110.56a2.64,2.64,0,1,0-2.63-2.63A2.63,2.63,0,0,0,107.93,110.56Z"/></g><g class="cls-21"><path class="cls-5" d="M143,180.76a2.64,2.64,0,1,0-2.64-2.64A2.64,2.64,0,0,0,143,180.76Z"/><path class="cls-5" d="M125.48,180.76a2.64,2.64,0,1,0-2.64-2.64A2.64,2.64,0,0,0,125.48,180.76Z"/><path class="cls-5" d="M143,163.21a2.64,2.64,0,1,0-2.64-2.64A2.64,2.64,0,0,0,143,163.21Z"/><path class="cls-5" d="M125.48,163.21a2.64,2.64,0,1,0-2.64-2.64A2.64,2.64,0,0,0,125.48,163.21Z"/><path class="cls-5" d="M116.7,172a2.63,2.63,0,1,0-2.63-2.63A2.64,2.64,0,0,0,116.7,172Z"/><path class="cls-5" d="M134.25,172a2.63,2.63,0,1,0-2.63-2.63A2.63,2.63,0,0,0,134.25,172Z"/><path class="cls-5" d="M116.7,154.43a2.63,2.63,0,1,0-2.63-2.63A2.64,2.64,0,0,0,116.7,154.43Z"/><path class="cls-5" d="M134.25,154.43a2.63,2.63,0,1,0-2.63-2.63A2.63,2.63,0,0,0,134.25,154.43Z"/><path class="cls-5" d="M107.93,180.76a2.64,2.64,0,1,0-2.63-2.64A2.64,2.64,0,0,0,107.93,180.76Z"/><path class="cls-5" d="M107.93,163.21a2.64,2.64,0,1,0-2.63-2.64A2.64,2.64,0,0,0,107.93,163.21Z"/><path class="cls-5" d="M143,145.66a2.64,2.64,0,1,0-2.64-2.64A2.64,2.64,0,0,0,143,145.66Z"/><path class="cls-5" d="M125.48,145.66a2.64,2.64,0,1,0-2.64-2.64A2.64,2.64,0,0,0,125.48,145.66Z"/><path class="cls-5" d="M107.93,145.66A2.64,2.64,0,1,0,105.3,143,2.64,2.64,0,0,0,107.93,145.66Z"/></g><g class="cls-22"><path class="cls-5" d="M143,215.85a2.63,2.63,0,1,0-2.64-2.63A2.63,2.63,0,0,0,143,215.85Z"/><path class="cls-5" d="M125.48,215.85a2.63,2.63,0,1,0-2.64-2.63A2.63,2.63,0,0,0,125.48,215.85Z"/><path class="cls-5" d="M143,198.3a2.63,2.63,0,1,0-2.64-2.63A2.63,2.63,0,0,0,143,198.3Z"/><path class="cls-5" d="M125.48,198.3a2.63,2.63,0,1,0-2.64-2.63A2.63,2.63,0,0,0,125.48,198.3Z"/><path class="cls-5" d="M116.7,207.08a2.64,2.64,0,1,0-2.63-2.64A2.64,2.64,0,0,0,116.7,207.08Z"/><path class="cls-5" d="M134.25,207.08a2.64,2.64,0,1,0-2.63-2.64A2.64,2.64,0,0,0,134.25,207.08Z"/><path class="cls-5" d="M116.7,189.53a2.64,2.64,0,1,0-2.63-2.63A2.64,2.64,0,0,0,116.7,189.53Z"/><path class="cls-5" d="M134.25,189.53a2.64,2.64,0,1,0-2.63-2.63A2.63,2.63,0,0,0,134.25,189.53Z"/><path class="cls-5" d="M107.93,215.85a2.63,2.63,0,1,0-2.63-2.63A2.63,2.63,0,0,0,107.93,215.85Z"/><path class="cls-5" d="M107.93,198.3a2.63,2.63,0,1,0-2.63-2.63A2.63,2.63,0,0,0,107.93,198.3Z"/><path class="cls-5" d="M143,180.76a2.64,2.64,0,1,0-2.64-2.64A2.64,2.64,0,0,0,143,180.76Z"/><path class="cls-5" d="M125.48,180.76a2.64,2.64,0,1,0-2.64-2.64A2.64,2.64,0,0,0,125.48,180.76Z"/><path class="cls-5" d="M107.93,180.76a2.64,2.64,0,1,0-2.63-2.64A2.64,2.64,0,0,0,107.93,180.76Z"/></g><g class="cls-23"><path class="cls-5" d="M107.93,40.36a2.63,2.63,0,1,0-2.63-2.63A2.63,2.63,0,0,0,107.93,40.36Z"/><path class="cls-5" d="M90.38,40.36a2.63,2.63,0,1,0-2.63-2.63A2.63,2.63,0,0,0,90.38,40.36Z"/><path class="cls-5" d="M107.93,22.81a2.63,2.63,0,1,0-2.63-2.63A2.63,2.63,0,0,0,107.93,22.81Z"/><path class="cls-5" d="M90.38,22.81a2.63,2.63,0,1,0-2.63-2.63A2.63,2.63,0,0,0,90.38,22.81Z"/><path class="cls-5" d="M81.6,31.59A2.64,2.64,0,1,0,79,29,2.64,2.64,0,0,0,81.6,31.59Z"/><path class="cls-5" d="M99.15,31.59A2.64,2.64,0,1,0,96.52,29,2.64,2.64,0,0,0,99.15,31.59Z"/><path class="cls-5" d="M81.6,14A2.64,2.64,0,1,0,79,11.41,2.64,2.64,0,0,0,81.6,14Z"/><path class="cls-5" d="M99.15,14a2.64,2.64,0,1,0-2.63-2.63A2.64,2.64,0,0,0,99.15,14Z"/><path class="cls-5" d="M72.83,40.36a2.63,2.63,0,1,0-2.63-2.63A2.63,2.63,0,0,0,72.83,40.36Z"/><path class="cls-5" d="M72.83,22.81a2.63,2.63,0,1,0-2.63-2.63A2.63,2.63,0,0,0,72.83,22.81Z"/><path class="cls-5" d="M107.93,5.27a2.64,2.64,0,1,0-2.63-2.64A2.64,2.64,0,0,0,107.93,5.27Z"/><path class="cls-5" d="M90.38,5.27a2.64,2.64,0,1,0-2.63-2.64A2.64,2.64,0,0,0,90.38,5.27Z"/><path class="cls-5" d="M72.83,5.27A2.64,2.64,0,1,0,70.2,2.63,2.64,2.64,0,0,0,72.83,5.27Z"/></g><g class="cls-24"><path class="cls-5" d="M107.93,75.46a2.63,2.63,0,1,0-2.63-2.63A2.63,2.63,0,0,0,107.93,75.46Z"/><path class="cls-5" d="M90.38,75.46a2.63,2.63,0,1,0-2.63-2.63A2.63,2.63,0,0,0,90.38,75.46Z"/><path class="cls-5" d="M107.93,57.91a2.63,2.63,0,1,0-2.63-2.63A2.63,2.63,0,0,0,107.93,57.91Z"/><path class="cls-5" d="M90.38,57.91a2.63,2.63,0,1,0-2.63-2.63A2.63,2.63,0,0,0,90.38,57.91Z"/><path class="cls-5" d="M81.6,66.69A2.64,2.64,0,1,0,79,64.05,2.64,2.64,0,0,0,81.6,66.69Z"/><path class="cls-5" d="M99.15,66.69a2.64,2.64,0,1,0-2.63-2.64A2.64,2.64,0,0,0,99.15,66.69Z"/><path class="cls-5" d="M81.6,49.14A2.64,2.64,0,1,0,79,46.51,2.64,2.64,0,0,0,81.6,49.14Z"/><path class="cls-5" d="M99.15,49.14a2.64,2.64,0,1,0-2.63-2.63A2.64,2.64,0,0,0,99.15,49.14Z"/><path class="cls-5" d="M72.83,75.46a2.63,2.63,0,1,0-2.63-2.63A2.63,2.63,0,0,0,72.83,75.46Z"/><path class="cls-5" d="M72.83,57.91a2.63,2.63,0,1,0-2.63-2.63A2.63,2.63,0,0,0,72.83,57.91Z"/><path class="cls-5" d="M107.93,40.36a2.63,2.63,0,1,0-2.63-2.63A2.63,2.63,0,0,0,107.93,40.36Z"/><path class="cls-5" d="M90.38,40.36a2.63,2.63,0,1,0-2.63-2.63A2.63,2.63,0,0,0,90.38,40.36Z"/><path class="cls-5" d="M72.83,40.36a2.63,2.63,0,1,0-2.63-2.63A2.63,2.63,0,0,0,72.83,40.36Z"/></g><g class="cls-25"><path class="cls-5" d="M107.93,110.56a2.64,2.64,0,1,0-2.63-2.63A2.63,2.63,0,0,0,107.93,110.56Z"/><path class="cls-5" d="M90.38,110.56a2.64,2.64,0,1,0-2.63-2.63A2.63,2.63,0,0,0,90.38,110.56Z"/><path class="cls-5" d="M107.93,93a2.64,2.64,0,1,0-2.63-2.63A2.63,2.63,0,0,0,107.93,93Z"/><path class="cls-5" d="M90.38,93a2.64,2.64,0,1,0-2.63-2.63A2.63,2.63,0,0,0,90.38,93Z"/><path class="cls-5" d="M81.6,101.78A2.63,2.63,0,1,0,79,99.15,2.64,2.64,0,0,0,81.6,101.78Z"/><path class="cls-5" d="M99.15,101.78a2.63,2.63,0,1,0-2.63-2.63A2.64,2.64,0,0,0,99.15,101.78Z"/><path class="cls-5" d="M81.6,84.23A2.63,2.63,0,1,0,79,81.6,2.63,2.63,0,0,0,81.6,84.23Z"/><path class="cls-5" d="M99.15,84.23a2.63,2.63,0,1,0-2.63-2.63A2.63,2.63,0,0,0,99.15,84.23Z"/><path class="cls-5" d="M72.83,110.56a2.64,2.64,0,1,0-2.63-2.63A2.63,2.63,0,0,0,72.83,110.56Z"/><path class="cls-5" d="M72.83,93a2.64,2.64,0,1,0-2.63-2.63A2.63,2.63,0,0,0,72.83,93Z"/><path class="cls-5" d="M107.93,75.46a2.63,2.63,0,1,0-2.63-2.63A2.63,2.63,0,0,0,107.93,75.46Z"/><path class="cls-5" d="M90.38,75.46a2.63,2.63,0,1,0-2.63-2.63A2.63,2.63,0,0,0,90.38,75.46Z"/><path class="cls-5" d="M72.83,75.46a2.63,2.63,0,1,0-2.63-2.63A2.63,2.63,0,0,0,72.83,75.46Z"/></g><g class="cls-26"><path class="cls-5" d="M107.93,145.66A2.64,2.64,0,1,0,105.3,143,2.64,2.64,0,0,0,107.93,145.66Z"/><path class="cls-5" d="M90.38,145.66A2.64,2.64,0,1,0,87.75,143,2.64,2.64,0,0,0,90.38,145.66Z"/><path class="cls-5" d="M107.93,128.11a2.64,2.64,0,1,0-2.63-2.63A2.63,2.63,0,0,0,107.93,128.11Z"/><path class="cls-5" d="M90.38,128.11a2.64,2.64,0,1,0-2.63-2.63A2.63,2.63,0,0,0,90.38,128.11Z"/><path class="cls-5" d="M81.6,136.88A2.63,2.63,0,1,0,79,134.25,2.64,2.64,0,0,0,81.6,136.88Z"/><path class="cls-5" d="M99.15,136.88a2.63,2.63,0,1,0-2.63-2.63A2.64,2.64,0,0,0,99.15,136.88Z"/><path class="cls-5" d="M81.6,119.33A2.63,2.63,0,1,0,79,116.7,2.64,2.64,0,0,0,81.6,119.33Z"/><path class="cls-5" d="M99.15,119.33a2.63,2.63,0,1,0-2.63-2.63A2.64,2.64,0,0,0,99.15,119.33Z"/><path class="cls-5" d="M72.83,145.66A2.64,2.64,0,1,0,70.2,143,2.64,2.64,0,0,0,72.83,145.66Z"/><path class="cls-5" d="M72.83,128.11a2.64,2.64,0,1,0-2.63-2.63A2.63,2.63,0,0,0,72.83,128.11Z"/><path class="cls-5" d="M107.93,110.56a2.64,2.64,0,1,0-2.63-2.63A2.63,2.63,0,0,0,107.93,110.56Z"/><path class="cls-5" d="M90.38,110.56a2.64,2.64,0,1,0-2.63-2.63A2.63,2.63,0,0,0,90.38,110.56Z"/><path class="cls-5" d="M72.83,110.56a2.64,2.64,0,1,0-2.63-2.63A2.63,2.63,0,0,0,72.83,110.56Z"/></g><g class="cls-27"><path class="cls-5" d="M107.93,180.76a2.64,2.64,0,1,0-2.63-2.64A2.64,2.64,0,0,0,107.93,180.76Z"/><path class="cls-5" d="M90.38,180.76a2.64,2.64,0,1,0-2.63-2.64A2.64,2.64,0,0,0,90.38,180.76Z"/><path class="cls-5" d="M107.93,163.21a2.64,2.64,0,1,0-2.63-2.64A2.64,2.64,0,0,0,107.93,163.21Z"/><path class="cls-5" d="M90.38,163.21a2.64,2.64,0,1,0-2.63-2.64A2.64,2.64,0,0,0,90.38,163.21Z"/><path class="cls-5" d="M81.6,172A2.63,2.63,0,1,0,79,169.35,2.64,2.64,0,0,0,81.6,172Z"/><path class="cls-5" d="M99.15,172a2.63,2.63,0,1,0-2.63-2.63A2.64,2.64,0,0,0,99.15,172Z"/><path class="cls-5" d="M81.6,154.43A2.63,2.63,0,1,0,79,151.8,2.64,2.64,0,0,0,81.6,154.43Z"/><path class="cls-5" d="M99.15,154.43a2.63,2.63,0,1,0-2.63-2.63A2.64,2.64,0,0,0,99.15,154.43Z"/><path class="cls-5" d="M72.83,180.76a2.64,2.64,0,1,0-2.63-2.64A2.64,2.64,0,0,0,72.83,180.76Z"/><path class="cls-5" d="M72.83,163.21a2.64,2.64,0,1,0-2.63-2.64A2.64,2.64,0,0,0,72.83,163.21Z"/><path class="cls-5" d="M107.93,145.66A2.64,2.64,0,1,0,105.3,143,2.64,2.64,0,0,0,107.93,145.66Z"/><path class="cls-5" d="M90.38,145.66A2.64,2.64,0,1,0,87.75,143,2.64,2.64,0,0,0,90.38,145.66Z"/><path class="cls-5" d="M72.83,145.66A2.64,2.64,0,1,0,70.2,143,2.64,2.64,0,0,0,72.83,145.66Z"/></g><g class="cls-28"><path class="cls-5" d="M107.93,215.85a2.63,2.63,0,1,0-2.63-2.63A2.63,2.63,0,0,0,107.93,215.85Z"/><path class="cls-5" d="M90.38,215.85a2.63,2.63,0,1,0-2.63-2.63A2.63,2.63,0,0,0,90.38,215.85Z"/><path class="cls-5" d="M107.93,198.3a2.63,2.63,0,1,0-2.63-2.63A2.63,2.63,0,0,0,107.93,198.3Z"/><path class="cls-5" d="M90.38,198.3a2.63,2.63,0,1,0-2.63-2.63A2.63,2.63,0,0,0,90.38,198.3Z"/><path class="cls-5" d="M81.6,207.08A2.64,2.64,0,1,0,79,204.44,2.64,2.64,0,0,0,81.6,207.08Z"/><path class="cls-5" d="M99.15,207.08a2.64,2.64,0,1,0-2.63-2.64A2.64,2.64,0,0,0,99.15,207.08Z"/><path class="cls-5" d="M81.6,189.53A2.64,2.64,0,1,0,79,186.9,2.64,2.64,0,0,0,81.6,189.53Z"/><path class="cls-5" d="M99.15,189.53a2.64,2.64,0,1,0-2.63-2.63A2.64,2.64,0,0,0,99.15,189.53Z"/><path class="cls-5" d="M72.83,215.85a2.63,2.63,0,1,0-2.63-2.63A2.63,2.63,0,0,0,72.83,215.85Z"/><path class="cls-5" d="M72.83,198.3a2.63,2.63,0,1,0-2.63-2.63A2.63,2.63,0,0,0,72.83,198.3Z"/><path class="cls-5" d="M107.93,180.76a2.64,2.64,0,1,0-2.63-2.64A2.64,2.64,0,0,0,107.93,180.76Z"/><path class="cls-5" d="M90.38,180.76a2.64,2.64,0,1,0-2.63-2.64A2.64,2.64,0,0,0,90.38,180.76Z"/><path class="cls-5" d="M72.83,180.76a2.64,2.64,0,1,0-2.63-2.64A2.64,2.64,0,0,0,72.83,180.76Z"/></g><g class="cls-29"><path class="cls-5" d="M72.83,40.36a2.63,2.63,0,1,0-2.63-2.63A2.63,2.63,0,0,0,72.83,40.36Z"/><path class="cls-5" d="M55.28,40.36a2.63,2.63,0,1,0-2.63-2.63A2.63,2.63,0,0,0,55.28,40.36Z"/><path class="cls-5" d="M72.83,22.81a2.63,2.63,0,1,0-2.63-2.63A2.63,2.63,0,0,0,72.83,22.81Z"/><path class="cls-5" d="M55.28,22.81a2.63,2.63,0,1,0-2.63-2.63A2.63,2.63,0,0,0,55.28,22.81Z"/><path class="cls-5" d="M46.51,31.59A2.64,2.64,0,1,0,43.87,29,2.64,2.64,0,0,0,46.51,31.59Z"/><path class="cls-5" d="M64.06,31.59A2.64,2.64,0,1,0,61.42,29,2.64,2.64,0,0,0,64.06,31.59Z"/><path class="cls-5" d="M46.51,14a2.64,2.64,0,1,0-2.64-2.63A2.63,2.63,0,0,0,46.51,14Z"/><path class="cls-5" d="M64.06,14a2.64,2.64,0,1,0-2.64-2.63A2.63,2.63,0,0,0,64.06,14Z"/><path class="cls-5" d="M37.73,40.36a2.63,2.63,0,1,0-2.63-2.63A2.63,2.63,0,0,0,37.73,40.36Z"/><path class="cls-5" d="M37.73,22.81a2.63,2.63,0,1,0-2.63-2.63A2.63,2.63,0,0,0,37.73,22.81Z"/><path class="cls-5" d="M72.83,5.27A2.64,2.64,0,1,0,70.2,2.63,2.64,2.64,0,0,0,72.83,5.27Z"/><path class="cls-5" d="M55.28,5.27a2.64,2.64,0,1,0-2.63-2.64A2.64,2.64,0,0,0,55.28,5.27Z"/><path class="cls-5" d="M37.73,5.27A2.64,2.64,0,1,0,35.1,2.63,2.64,2.64,0,0,0,37.73,5.27Z"/></g><g class="cls-30"><path class="cls-5" d="M72.83,75.46a2.63,2.63,0,1,0-2.63-2.63A2.63,2.63,0,0,0,72.83,75.46Z"/><path class="cls-5" d="M55.28,75.46a2.63,2.63,0,1,0-2.63-2.63A2.63,2.63,0,0,0,55.28,75.46Z"/><path class="cls-5" d="M72.83,57.91a2.63,2.63,0,1,0-2.63-2.63A2.63,2.63,0,0,0,72.83,57.91Z"/><path class="cls-5" d="M55.28,57.91a2.63,2.63,0,1,0-2.63-2.63A2.63,2.63,0,0,0,55.28,57.91Z"/><path class="cls-5" d="M46.51,66.69a2.64,2.64,0,1,0-2.64-2.64A2.64,2.64,0,0,0,46.51,66.69Z"/><path class="cls-5" d="M64.06,66.69a2.64,2.64,0,1,0-2.64-2.64A2.64,2.64,0,0,0,64.06,66.69Z"/><path class="cls-5" d="M46.51,49.14a2.64,2.64,0,1,0-2.64-2.63A2.63,2.63,0,0,0,46.51,49.14Z"/><path class="cls-5" d="M64.06,49.14a2.64,2.64,0,1,0-2.64-2.63A2.63,2.63,0,0,0,64.06,49.14Z"/><path class="cls-5" d="M37.73,75.46a2.63,2.63,0,1,0-2.63-2.63A2.63,2.63,0,0,0,37.73,75.46Z"/><path class="cls-5" d="M37.73,57.91a2.63,2.63,0,1,0-2.63-2.63A2.63,2.63,0,0,0,37.73,57.91Z"/><path class="cls-5" d="M72.83,40.36a2.63,2.63,0,1,0-2.63-2.63A2.63,2.63,0,0,0,72.83,40.36Z"/><path class="cls-5" d="M55.28,40.36a2.63,2.63,0,1,0-2.63-2.63A2.63,2.63,0,0,0,55.28,40.36Z"/><path class="cls-5" d="M37.73,40.36a2.63,2.63,0,1,0-2.63-2.63A2.63,2.63,0,0,0,37.73,40.36Z"/></g><g class="cls-31"><path class="cls-5" d="M72.83,110.56a2.64,2.64,0,1,0-2.63-2.63A2.63,2.63,0,0,0,72.83,110.56Z"/><path class="cls-5" d="M55.28,110.56a2.64,2.64,0,1,0-2.63-2.63A2.63,2.63,0,0,0,55.28,110.56Z"/><path class="cls-5" d="M72.83,93a2.64,2.64,0,1,0-2.63-2.63A2.63,2.63,0,0,0,72.83,93Z"/><path class="cls-5" d="M55.28,93a2.64,2.64,0,1,0-2.63-2.63A2.63,2.63,0,0,0,55.28,93Z"/><path class="cls-5" d="M46.51,101.78a2.63,2.63,0,1,0-2.64-2.63A2.63,2.63,0,0,0,46.51,101.78Z"/><path class="cls-5" d="M64.06,101.78a2.63,2.63,0,1,0-2.64-2.63A2.63,2.63,0,0,0,64.06,101.78Z"/><path class="cls-5" d="M46.51,84.23a2.63,2.63,0,1,0-2.64-2.63A2.63,2.63,0,0,0,46.51,84.23Z"/><path class="cls-5" d="M64.06,84.23a2.63,2.63,0,1,0-2.64-2.63A2.63,2.63,0,0,0,64.06,84.23Z"/><path class="cls-5" d="M37.73,110.56a2.64,2.64,0,1,0-2.63-2.63A2.63,2.63,0,0,0,37.73,110.56Z"/><path class="cls-5" d="M37.73,93a2.64,2.64,0,1,0-2.63-2.63A2.63,2.63,0,0,0,37.73,93Z"/><path class="cls-5" d="M72.83,75.46a2.63,2.63,0,1,0-2.63-2.63A2.63,2.63,0,0,0,72.83,75.46Z"/><path class="cls-5" d="M55.28,75.46a2.63,2.63,0,1,0-2.63-2.63A2.63,2.63,0,0,0,55.28,75.46Z"/><path class="cls-5" d="M37.73,75.46a2.63,2.63,0,1,0-2.63-2.63A2.63,2.63,0,0,0,37.73,75.46Z"/></g><g class="cls-32"><path class="cls-5" d="M72.83,145.66A2.64,2.64,0,1,0,70.2,143,2.64,2.64,0,0,0,72.83,145.66Z"/><path class="cls-5" d="M55.28,145.66A2.64,2.64,0,1,0,52.65,143,2.64,2.64,0,0,0,55.28,145.66Z"/><path class="cls-5" d="M72.83,128.11a2.64,2.64,0,1,0-2.63-2.63A2.63,2.63,0,0,0,72.83,128.11Z"/><path class="cls-5" d="M55.28,128.11a2.64,2.64,0,1,0-2.63-2.63A2.63,2.63,0,0,0,55.28,128.11Z"/><path class="cls-5" d="M46.51,136.88a2.63,2.63,0,1,0-2.64-2.63A2.63,2.63,0,0,0,46.51,136.88Z"/><path class="cls-5" d="M64.06,136.88a2.63,2.63,0,1,0-2.64-2.63A2.63,2.63,0,0,0,64.06,136.88Z"/><path class="cls-5" d="M46.51,119.33a2.63,2.63,0,1,0-2.64-2.63A2.63,2.63,0,0,0,46.51,119.33Z"/><path class="cls-5" d="M64.06,119.33a2.63,2.63,0,1,0-2.64-2.63A2.63,2.63,0,0,0,64.06,119.33Z"/><path class="cls-5" d="M37.73,145.66A2.64,2.64,0,1,0,35.1,143,2.64,2.64,0,0,0,37.73,145.66Z"/><path class="cls-5" d="M37.73,128.11a2.64,2.64,0,1,0-2.63-2.63A2.63,2.63,0,0,0,37.73,128.11Z"/><path class="cls-5" d="M72.83,110.56a2.64,2.64,0,1,0-2.63-2.63A2.63,2.63,0,0,0,72.83,110.56Z"/><path class="cls-5" d="M55.28,110.56a2.64,2.64,0,1,0-2.63-2.63A2.63,2.63,0,0,0,55.28,110.56Z"/><path class="cls-5" d="M37.73,110.56a2.64,2.64,0,1,0-2.63-2.63A2.63,2.63,0,0,0,37.73,110.56Z"/></g><g class="cls-33"><path class="cls-5" d="M72.83,180.76a2.64,2.64,0,1,0-2.63-2.64A2.64,2.64,0,0,0,72.83,180.76Z"/><path class="cls-5" d="M55.28,180.76a2.64,2.64,0,1,0-2.63-2.64A2.64,2.64,0,0,0,55.28,180.76Z"/><path class="cls-5" d="M72.83,163.21a2.64,2.64,0,1,0-2.63-2.64A2.64,2.64,0,0,0,72.83,163.21Z"/><path class="cls-5" d="M55.28,163.21a2.64,2.64,0,1,0-2.63-2.64A2.64,2.64,0,0,0,55.28,163.21Z"/><path class="cls-5" d="M46.51,172a2.63,2.63,0,1,0-2.64-2.63A2.63,2.63,0,0,0,46.51,172Z"/><path class="cls-5" d="M64.06,172a2.63,2.63,0,1,0-2.64-2.63A2.63,2.63,0,0,0,64.06,172Z"/><path class="cls-5" d="M46.51,154.43a2.63,2.63,0,1,0-2.64-2.63A2.63,2.63,0,0,0,46.51,154.43Z"/><path class="cls-5" d="M64.06,154.43a2.63,2.63,0,1,0-2.64-2.63A2.63,2.63,0,0,0,64.06,154.43Z"/><path class="cls-5" d="M37.73,180.76a2.64,2.64,0,1,0-2.63-2.64A2.64,2.64,0,0,0,37.73,180.76Z"/><path class="cls-5" d="M37.73,163.21a2.64,2.64,0,1,0-2.63-2.64A2.64,2.64,0,0,0,37.73,163.21Z"/><path class="cls-5" d="M72.83,145.66A2.64,2.64,0,1,0,70.2,143,2.64,2.64,0,0,0,72.83,145.66Z"/><path class="cls-5" d="M55.28,145.66A2.64,2.64,0,1,0,52.65,143,2.64,2.64,0,0,0,55.28,145.66Z"/><path class="cls-5" d="M37.73,145.66A2.64,2.64,0,1,0,35.1,143,2.64,2.64,0,0,0,37.73,145.66Z"/></g><g class="cls-34"><path class="cls-5" d="M72.83,215.85a2.63,2.63,0,1,0-2.63-2.63A2.63,2.63,0,0,0,72.83,215.85Z"/><path class="cls-5" d="M55.28,215.85a2.63,2.63,0,1,0-2.63-2.63A2.63,2.63,0,0,0,55.28,215.85Z"/><path class="cls-5" d="M72.83,198.3a2.63,2.63,0,1,0-2.63-2.63A2.63,2.63,0,0,0,72.83,198.3Z"/><path class="cls-5" d="M55.28,198.3a2.63,2.63,0,1,0-2.63-2.63A2.63,2.63,0,0,0,55.28,198.3Z"/><path class="cls-5" d="M46.51,207.08a2.64,2.64,0,1,0-2.64-2.64A2.64,2.64,0,0,0,46.51,207.08Z"/><path class="cls-5" d="M64.06,207.08a2.64,2.64,0,1,0-2.64-2.64A2.64,2.64,0,0,0,64.06,207.08Z"/><path class="cls-5" d="M46.51,189.53a2.64,2.64,0,1,0-2.64-2.63A2.63,2.63,0,0,0,46.51,189.53Z"/><path class="cls-5" d="M64.06,189.53a2.64,2.64,0,1,0-2.64-2.63A2.63,2.63,0,0,0,64.06,189.53Z"/><path class="cls-5" d="M37.73,215.85a2.63,2.63,0,1,0-2.63-2.63A2.63,2.63,0,0,0,37.73,215.85Z"/><path class="cls-5" d="M37.73,198.3a2.63,2.63,0,1,0-2.63-2.63A2.63,2.63,0,0,0,37.73,198.3Z"/><path class="cls-5" d="M72.83,180.76a2.64,2.64,0,1,0-2.63-2.64A2.64,2.64,0,0,0,72.83,180.76Z"/><path class="cls-5" d="M55.28,180.76a2.64,2.64,0,1,0-2.63-2.64A2.64,2.64,0,0,0,55.28,180.76Z"/><path class="cls-5" d="M37.73,180.76a2.64,2.64,0,1,0-2.63-2.64A2.64,2.64,0,0,0,37.73,180.76Z"/></g><g class="cls-35"><path class="cls-5" d="M37.73,40.36a2.63,2.63,0,1,0-2.63-2.63A2.63,2.63,0,0,0,37.73,40.36Z"/><path class="cls-5" d="M20.18,40.36a2.63,2.63,0,1,0-2.63-2.63A2.63,2.63,0,0,0,20.18,40.36Z"/><path class="cls-5" d="M37.73,22.81a2.63,2.63,0,1,0-2.63-2.63A2.63,2.63,0,0,0,37.73,22.81Z"/><path class="cls-5" d="M20.18,22.81a2.63,2.63,0,1,0-2.63-2.63A2.63,2.63,0,0,0,20.18,22.81Z"/><path class="cls-5" d="M11.41,31.59A2.64,2.64,0,1,0,8.77,29,2.64,2.64,0,0,0,11.41,31.59Z"/><path class="cls-5" d="M29,31.59A2.64,2.64,0,1,0,26.32,29,2.64,2.64,0,0,0,29,31.59Z"/><path class="cls-5" d="M11.41,14a2.64,2.64,0,1,0-2.64-2.63A2.63,2.63,0,0,0,11.41,14Z"/><path class="cls-5" d="M29,14a2.64,2.64,0,1,0-2.64-2.63A2.63,2.63,0,0,0,29,14Z"/><path class="cls-5" d="M2.63,40.36A2.63,2.63,0,1,0,0,37.73,2.63,2.63,0,0,0,2.63,40.36Z"/><path class="cls-5" d="M2.63,22.81A2.63,2.63,0,1,0,0,20.18,2.63,2.63,0,0,0,2.63,22.81Z"/><path class="cls-5" d="M37.73,5.27A2.64,2.64,0,1,0,35.1,2.63,2.64,2.64,0,0,0,37.73,5.27Z"/><path class="cls-5" d="M20.18,5.27a2.64,2.64,0,1,0-2.63-2.64A2.64,2.64,0,0,0,20.18,5.27Z"/><path class="cls-5" d="M2.63,5.27A2.64,2.64,0,1,0,0,2.63,2.64,2.64,0,0,0,2.63,5.27Z"/></g><g class="cls-36"><path class="cls-5" d="M37.73,75.46a2.63,2.63,0,1,0-2.63-2.63A2.63,2.63,0,0,0,37.73,75.46Z"/><path class="cls-5" d="M20.18,75.46a2.63,2.63,0,1,0-2.63-2.63A2.63,2.63,0,0,0,20.18,75.46Z"/><path class="cls-5" d="M37.73,57.91a2.63,2.63,0,1,0-2.63-2.63A2.63,2.63,0,0,0,37.73,57.91Z"/><path class="cls-5" d="M20.18,57.91a2.63,2.63,0,1,0-2.63-2.63A2.63,2.63,0,0,0,20.18,57.91Z"/><path class="cls-5" d="M11.41,66.69a2.64,2.64,0,1,0-2.64-2.64A2.64,2.64,0,0,0,11.41,66.69Z"/><path class="cls-5" d="M29,66.69a2.64,2.64,0,1,0-2.64-2.64A2.64,2.64,0,0,0,29,66.69Z"/><path class="cls-5" d="M11.41,49.14a2.64,2.64,0,1,0-2.64-2.63A2.63,2.63,0,0,0,11.41,49.14Z"/><path class="cls-5" d="M29,49.14a2.64,2.64,0,1,0-2.64-2.63A2.63,2.63,0,0,0,29,49.14Z"/><path class="cls-5" d="M2.63,75.46A2.63,2.63,0,1,0,0,72.83,2.63,2.63,0,0,0,2.63,75.46Z"/><path class="cls-5" d="M2.63,57.91A2.63,2.63,0,1,0,0,55.28,2.63,2.63,0,0,0,2.63,57.91Z"/><path class="cls-5" d="M37.73,40.36a2.63,2.63,0,1,0-2.63-2.63A2.63,2.63,0,0,0,37.73,40.36Z"/><path class="cls-5" d="M20.18,40.36a2.63,2.63,0,1,0-2.63-2.63A2.63,2.63,0,0,0,20.18,40.36Z"/><path class="cls-5" d="M2.63,40.36A2.63,2.63,0,1,0,0,37.73,2.63,2.63,0,0,0,2.63,40.36Z"/></g><g class="cls-37"><path class="cls-5" d="M37.73,110.56a2.64,2.64,0,1,0-2.63-2.63A2.63,2.63,0,0,0,37.73,110.56Z"/><path class="cls-5" d="M20.18,110.56a2.64,2.64,0,1,0-2.63-2.63A2.63,2.63,0,0,0,20.18,110.56Z"/><path class="cls-5" d="M37.73,93a2.64,2.64,0,1,0-2.63-2.63A2.63,2.63,0,0,0,37.73,93Z"/><path class="cls-5" d="M20.18,93a2.64,2.64,0,1,0-2.63-2.63A2.63,2.63,0,0,0,20.18,93Z"/><path class="cls-5" d="M11.41,101.78a2.63,2.63,0,1,0-2.64-2.63A2.63,2.63,0,0,0,11.41,101.78Z"/><path class="cls-5" d="M29,101.78a2.63,2.63,0,1,0-2.64-2.63A2.63,2.63,0,0,0,29,101.78Z"/><path class="cls-5" d="M11.41,84.23A2.63,2.63,0,1,0,8.77,81.6,2.63,2.63,0,0,0,11.41,84.23Z"/><path class="cls-5" d="M29,84.23a2.63,2.63,0,1,0-2.64-2.63A2.63,2.63,0,0,0,29,84.23Z"/><path class="cls-5" d="M2.63,110.56A2.64,2.64,0,1,0,0,107.93,2.63,2.63,0,0,0,2.63,110.56Z"/><path class="cls-5" d="M2.63,93A2.64,2.64,0,1,0,0,90.38,2.63,2.63,0,0,0,2.63,93Z"/><path class="cls-5" d="M37.73,75.46a2.63,2.63,0,1,0-2.63-2.63A2.63,2.63,0,0,0,37.73,75.46Z"/><path class="cls-5" d="M20.18,75.46a2.63,2.63,0,1,0-2.63-2.63A2.63,2.63,0,0,0,20.18,75.46Z"/><path class="cls-5" d="M2.63,75.46A2.63,2.63,0,1,0,0,72.83,2.63,2.63,0,0,0,2.63,75.46Z"/></g><g class="cls-38"><path class="cls-5" d="M37.73,145.66A2.64,2.64,0,1,0,35.1,143,2.64,2.64,0,0,0,37.73,145.66Z"/><path class="cls-5" d="M20.18,145.66A2.64,2.64,0,1,0,17.55,143,2.64,2.64,0,0,0,20.18,145.66Z"/><path class="cls-5" d="M37.73,128.11a2.64,2.64,0,1,0-2.63-2.63A2.63,2.63,0,0,0,37.73,128.11Z"/><path class="cls-5" d="M20.18,128.11a2.64,2.64,0,1,0-2.63-2.63A2.63,2.63,0,0,0,20.18,128.11Z"/><path class="cls-5" d="M11.41,136.88a2.63,2.63,0,1,0-2.64-2.63A2.63,2.63,0,0,0,11.41,136.88Z"/><path class="cls-5" d="M29,136.88a2.63,2.63,0,1,0-2.64-2.63A2.63,2.63,0,0,0,29,136.88Z"/><path class="cls-5" d="M11.41,119.33a2.63,2.63,0,1,0-2.64-2.63A2.63,2.63,0,0,0,11.41,119.33Z"/><path class="cls-5" d="M29,119.33a2.63,2.63,0,1,0-2.64-2.63A2.63,2.63,0,0,0,29,119.33Z"/><path class="cls-5" d="M2.63,145.66A2.64,2.64,0,1,0,0,143,2.64,2.64,0,0,0,2.63,145.66Z"/><path class="cls-5" d="M2.63,128.11A2.64,2.64,0,1,0,0,125.48,2.63,2.63,0,0,0,2.63,128.11Z"/><path class="cls-5" d="M37.73,110.56a2.64,2.64,0,1,0-2.63-2.63A2.63,2.63,0,0,0,37.73,110.56Z"/><path class="cls-5" d="M20.18,110.56a2.64,2.64,0,1,0-2.63-2.63A2.63,2.63,0,0,0,20.18,110.56Z"/><path class="cls-5" d="M2.63,110.56A2.64,2.64,0,1,0,0,107.93,2.63,2.63,0,0,0,2.63,110.56Z"/></g><g class="cls-39"><path class="cls-5" d="M37.73,180.76a2.64,2.64,0,1,0-2.63-2.64A2.64,2.64,0,0,0,37.73,180.76Z"/><path class="cls-5" d="M20.18,180.76a2.64,2.64,0,1,0-2.63-2.64A2.64,2.64,0,0,0,20.18,180.76Z"/><path class="cls-5" d="M37.73,163.21a2.64,2.64,0,1,0-2.63-2.64A2.64,2.64,0,0,0,37.73,163.21Z"/><path class="cls-5" d="M20.18,163.21a2.64,2.64,0,1,0-2.63-2.64A2.64,2.64,0,0,0,20.18,163.21Z"/><path class="cls-5" d="M11.41,172a2.63,2.63,0,1,0-2.64-2.63A2.63,2.63,0,0,0,11.41,172Z"/><path class="cls-5" d="M29,172a2.63,2.63,0,1,0-2.64-2.63A2.63,2.63,0,0,0,29,172Z"/><path class="cls-5" d="M11.41,154.43a2.63,2.63,0,1,0-2.64-2.63A2.63,2.63,0,0,0,11.41,154.43Z"/><path class="cls-5" d="M29,154.43a2.63,2.63,0,1,0-2.64-2.63A2.63,2.63,0,0,0,29,154.43Z"/><path class="cls-5" d="M2.63,180.76A2.64,2.64,0,1,0,0,178.12,2.64,2.64,0,0,0,2.63,180.76Z"/><path class="cls-5" d="M2.63,163.21A2.64,2.64,0,1,0,0,160.57,2.64,2.64,0,0,0,2.63,163.21Z"/><path class="cls-5" d="M37.73,145.66A2.64,2.64,0,1,0,35.1,143,2.64,2.64,0,0,0,37.73,145.66Z"/><path class="cls-5" d="M20.18,145.66A2.64,2.64,0,1,0,17.55,143,2.64,2.64,0,0,0,20.18,145.66Z"/><path class="cls-5" d="M2.63,145.66A2.64,2.64,0,1,0,0,143,2.64,2.64,0,0,0,2.63,145.66Z"/></g><g class="cls-40"><path class="cls-5" d="M37.73,215.85a2.63,2.63,0,1,0-2.63-2.63A2.63,2.63,0,0,0,37.73,215.85Z"/><path class="cls-5" d="M20.18,215.85a2.63,2.63,0,1,0-2.63-2.63A2.63,2.63,0,0,0,20.18,215.85Z"/><path class="cls-5" d="M37.73,198.3a2.63,2.63,0,1,0-2.63-2.63A2.63,2.63,0,0,0,37.73,198.3Z"/><path class="cls-5" d="M20.18,198.3a2.63,2.63,0,1,0-2.63-2.63A2.63,2.63,0,0,0,20.18,198.3Z"/><path class="cls-5" d="M11.41,207.08a2.64,2.64,0,1,0-2.64-2.64A2.64,2.64,0,0,0,11.41,207.08Z"/><path class="cls-5" d="M29,207.08a2.64,2.64,0,1,0-2.64-2.64A2.64,2.64,0,0,0,29,207.08Z"/><path class="cls-5" d="M11.41,189.53a2.64,2.64,0,1,0-2.64-2.63A2.63,2.63,0,0,0,11.41,189.53Z"/><path class="cls-5" d="M29,189.53a2.64,2.64,0,1,0-2.64-2.63A2.63,2.63,0,0,0,29,189.53Z"/><path class="cls-5" d="M2.63,215.85A2.63,2.63,0,1,0,0,213.22,2.63,2.63,0,0,0,2.63,215.85Z"/><path class="cls-5" d="M2.63,198.3A2.63,2.63,0,1,0,0,195.67,2.63,2.63,0,0,0,2.63,198.3Z"/><path class="cls-5" d="M37.73,180.76a2.64,2.64,0,1,0-2.63-2.64A2.64,2.64,0,0,0,37.73,180.76Z"/><path class="cls-5" d="M20.18,180.76a2.64,2.64,0,1,0-2.63-2.64A2.64,2.64,0,0,0,20.18,180.76Z"/><path class="cls-5" d="M2.63,180.76A2.64,2.64,0,1,0,0,178.12,2.64,2.64,0,0,0,2.63,180.76Z"/></g></g><path d="M94.64,23.68c0,.37,0,.53.09.55C94.7,23.88,94.68,23.6,94.64,23.68Z"/><path d="M95.41,25.24l-1-.46c-.37-.19-.42-.6-.43-1.09v-.13l.23-.56.49.06c.51.08.54.52.59,1.12Z"/><path d="M97.31,20l-.5,0A1.27,1.27,0,0,0,97.31,20Z"/><path d="M97.17,20.6a2.23,2.23,0,0,1-.47-.06l.15-1.2,4.36.23-3.74,1A1.36,1.36,0,0,1,97.17,20.6Z"/><path d="M94.42,72.83l.13-1.31C94.42,71.42,94.45,72.19,94.42,72.83Z"/><path d="M95,72.89l-1.22-.09c0-.16,0-.33,0-.49,0-.76,0-1.14.41-1.34l.32-.17.63.42Z"/><path d="M94.75,94.5v.4a2.49,2.49,0,0,0,.16.33Z"/><path d="M96.33,98.77l-1.94-3.23a2.74,2.74,0,0,1-.21-.42l0-.22V89Z"/><path d="M90.33,109a1.84,1.84,0,0,1-.84.24c0,.07,0,.14.17.24C90,109.47,90.15,109.13,90.33,109Z"/><path d="M89.68,110.06h-.24l-.16-.13a.89.89,0,0,1-.4-.76l0-.52.52-.05a1.19,1.19,0,0,0,.56-.14l.74,1A1.3,1.3,0,0,1,89.68,110.06Z"/><path d="M63.29,108.85l-.46.05Z"/><rect x="62.82" y="108.27" width="0.47" height="1.22" transform="translate(-10.94 7.12) rotate(-5.94)"/><path d="M94.82,82.6a.29.29,0,0,0,.12-.16S94.86,82.5,94.82,82.6Z"/><path d="M93.59,84l.67-1.64a.73.73,0,0,1,.68-.53h.91l-.34.84a.93.93,0,0,1-.39.46Zm1.35-1.36v.41a.54.54,0,0,0,.45-.23Zm-.42-.57a.31.31,0,0,0-.14.14l.29.12Z"/><path d="M112.67,20.41h-.07C112.2,20.44,112.42,20.44,112.67,20.41Z"/><path d="M112.42,21a.61.61,0,0,1-.54-.25l-.2-.29.14-.32c.15-.33.43-.36.72-.38h.13l0,.6.29,0-.29,0,0,.62Z"/><path d="M165.47,109.92c-1.6-.31,2.6-.4.19-.74C165.89,109.32,163.48,109.72,165.47,109.92Z"/><path d="M165.41,110.52c-.54,0-1.27-.12-1.34-.74a.66.66,0,0,1,.31-.66l-1.58-1,2.95.42c.62.09,1.27.18,1.28.79s-.56.7-1.16.81l-.43.09Z"/><path d="M148.05,20.2a1.25,1.25,0,0,0-.36-.15S147.79,20.13,148.05,20.2Z"/><path d="M150.62,21.52l-2.72-.73a1,1,0,0,1-.79-.54l-.37-1.12,1.13.34a1.56,1.56,0,0,1,.57.26Z"/><path d="M121.69,19.72l.65,0A5.36,5.36,0,0,0,121.69,19.72Z"/><path d="M122.3,20.37l-.65-.05.06-1.21a4.9,4.9,0,0,1,.71.05Z"/><path d="M150.15,29.36a3.56,3.56,0,0,0,0,.95.47.47,0,0,0,0-.14A1.88,1.88,0,0,1,150.15,29.36Z"/><path d="M149.75,32.85l-.24-2.48a3.74,3.74,0,0,1,0-.76l0-.34,1.21.13,0,.26v0a.84.84,0,0,0,0,.31l0,.14,0,.14a1.23,1.23,0,0,1-.08.25Z"/><path d="M150.15,43.6c0-.07,0-.17.07-.26s0-.31,0-.45Z"/><path d="M149.22,48.19l.37-5.34h1.22l0,.55,0,.09a1.62,1.62,0,0,1-.09.3Z"/><path d="M108.57,172.61l.24.09-.26-.25c-.07-.07-.12-.09-.21-.18Z"/><path d="M111.27,174.24l-3.1-1.14-3.52-5.17,4.11,3.9.09.08.33.3Z"/><path d="M94.32,73.53c0-.06,0-.06,0-.1v-.09A.53.53,0,0,1,94.32,73.53Z"/><path d="M94.88,73.79l-1.14-.42.07-.19.47.17h.09l.61.06,0,.24h0A.88.88,0,0,1,94.88,73.79Zm-1-.47-.11,0Z"/><path d="M76.29,109.33c3.29.4-.68-.29,2.74-.24l-2.61-.1C76.88,109.12,77.48,109.3,76.29,109.33Z"/><path d="M77.54,110.06c-.29,0-.71,0-1.32-.12v-.37l-4.77-1.38,7.59.29,0,1.22c-.34,0-.59,0-.77,0C78.13,110,78,110.06,77.54,110.06Z"/><path d="M87.12,109.28c-1.4.06,0,.19-.05.27C88,109.43,88.17,109.4,87.12,109.28Z"/><path d="M85.38,110.39l.64-.65a.53.53,0,0,1-.12-.43c0-.59.61-.61,1.2-.64h.09c.72.07,1.24.13,1.24.72s-.45.64-1.28.75Z"/><path d="M94.64,55.17l.31.14C94.91,54.23,94.83,55.3,94.64,55.17Z"/><path d="M95.6,56.27l-1-.44,0,0-.3-.18.2-.34h-.15c0-.17,0-.28,0-.34l.28,0-.07-.36a.5.5,0,0,0-.31.22c.23-.6.58-.62.77-.59.53.09.55.58.57,1.06Z"/><polygon points="95.25 37.38 95.29 37.85 95.18 36.05 95.25 37.38"/><polygon points="94.69 37.91 94.57 36.08 95.79 36.01 95.9 37.81 94.69 37.91"/><path d="M150.23,40.74c-.07-.73-.5-.88-.38.33Z"/><path d="M149.35,42.29l-.11-1.16c-.08-.78,0-1.21.35-1.44l.28-.2.4.14a1.26,1.26,0,0,1,.57,1l0,.32Z"/><path d="M150.24,83.48a4.77,4.77,0,0,0-.13,2.39C150.14,84.91,150.29,84,150.24,83.48Z"/><path d="M150.6,90.22,149.52,86a5.43,5.43,0,0,1,.15-2.78L150.6,81l.24,2.4a7.42,7.42,0,0,1,0,1.29c0,.37-.07.77-.08,1.18Z"/><polygon points="163.23 144.94 163.74 144.25 162.68 145.46 163.23 144.94"/><polygon points="163.1 145.9 162.22 145.06 163.29 143.85 164.23 144.61 163.65 145.38 163.1 145.9"/><path d="M197.15,100.4c.42,0,.59-.05.61-.09C197.37,100.34,197.05,100.37,197.15,100.4Z"/><path d="M197,101l-.57-.21.06-.5c.07-.52.49-.54,1.19-.59l1.13-.08-.56,1c-.19.35-.59.39-1.13.4Z"/><path d="M187.77,100l.55,0A1.76,1.76,0,0,0,187.77,100Z"/><path d="M188.3,100.59l-4.85-.23,4.18-1a2.19,2.19,0,0,1,.8,0Z"/><path d="M190.43,131l1.13-.95C191.54,129.91,191,130.54,190.43,131Z"/><path d="M190.82,131.49l-.8-.91.4-.39c.63-.61.89-.86,1.32-.71l.36.12.1.73Z"/><path d="M173.54,148.37l-.31.32a3,3,0,0,0-.15.38Z"/><path d="M171.32,152.83l1.18-3.94a2.5,2.5,0,0,1,.18-.47l.12-.16.31-.32.94.77Z"/><path d="M160.45,161.55c.31-.28.17-.63.18-.85a2.05,2.05,0,0,1-.49.82C160.19,161.57,160.28,161.58,160.45,161.55Z"/><path d="M160.31,162.18a.77.77,0,0,1-.63-.27l-.33-.4.33-.39a1.61,1.61,0,0,0,.36-.57l1.41-5.57-.21,5.75a1.41,1.41,0,0,1-.37,1.27l-.14.12-.18,0Z"/><path d="M139.19,182l-.33.4Z"/><rect x="138.76" y="181.55" width="0.53" height="1.22" transform="translate(-89.88 171.52) rotate(-49.99)"/><path d="M183,139a.29.29,0,0,0,.2,0S183.1,139,183,139Z"/><path d="M183,139.64l-.19,0-1.71-.42,1.61-.73a.71.71,0,0,1,.88.09l.62.62-.79.36A.92.92,0,0,1,183,139.64Zm0-.5-.28.28a.51.51,0,0,0,.5.15Zm0-.72-.09,0,.12.27.07-.28Z"/><path d="M122.49,196.74h-.31a1,1,0,0,0-.08.19A3.54,3.54,0,0,0,122.49,196.74Z"/><path d="M121.4,197.88l.09-1a1,1,0,0,1,.17-.44l.17-.28.65,0,2.42,0-2.11,1.18a3.88,3.88,0,0,1-.46.22Zm1.16-.91.13.09a.64.64,0,0,0,0-.07Z"/><path d="M170.61,99.52h.08C171.14,99.49,170.88,99.49,170.61,99.52Z"/><path d="M170.74,100.13h-.19v-.59h0v-.62c.38,0,.66-.06.87.24l.21.29-.15.32C171.34,100.08,171.06,100.1,170.74,100.13Z"/><path d="M101.28,10c1.79.31-2.9.39-.21.73C100.82,10.61,103.51,10.21,101.28,10Z"/><path d="M104.23,11.76,101,11.35c-.74-.09-1.37-.17-1.38-.8s.54-.69,1.25-.81l.44-.07,0-.27c.64.06,1.37.13,1.44.76a.65.65,0,0,1-.32.64Z"/><path d="M159.9,73.83a1.61,1.61,0,0,0-.15.4S159.83,74.13,159.9,73.83Z"/><path d="M158.86,75.21l.3-1.14a1.81,1.81,0,0,1,.25-.6L161.2,71,160.5,74c-.08.33-.17.7-.54.83Zm.72-1.46,0-.09Z"/><path d="M160.53,100.21c-.24,0-.27,0-.41,0A1.53,1.53,0,0,0,160.53,100.21Z"/><path d="M160.52,100.82a1.9,1.9,0,0,1-.48,0l.14-1.21.14,0,.25,0Z"/><path d="M159.45,58.21c0,.09,0,.2,0,.32C159.43,58.41,159.44,58.3,159.45,58.21Z"/><path d="M160,58.6l-1.22-.11,0-.25v-.06l1,.06h.26Q160,58.41,160,58.6Z"/><path d="M159.45,58.21a3.65,3.65,0,0,0,0-.75.71.71,0,0,0,0,.17A2.3,2.3,0,0,1,159.45,58.21Z"/><path d="M160.05,58.27l-1.21-.09a1.25,1.25,0,0,0,0-.41l0-.13,0-.12a1,1,0,0,1,.06-.26l.95-2.64.23,2.79A3.44,3.44,0,0,1,160.05,58.27Z"/><path d="M159.42,42.62a2.06,2.06,0,0,0-.07.29c0,.16,0,.34,0,.51Z"/><path d="M160,43.45h-1.22l0-.59,0-.08a1.41,1.41,0,0,1,.08-.33l1.5-4.87Z"/><path d="M29.89,103.82a4.55,4.55,0,0,1,.18-.57A3.19,3.19,0,0,0,29.89,103.82Z"/><path d="M30.49,103.94l-1.19-.28.47.12-.48-.08a3.24,3.24,0,0,1,.18-.58.69.69,0,0,1,0-.1l1.13.46,0,.07c-.05.14-.08.25-.12.37h0Z"/><path d="M215,102.8a5.07,5.07,0,0,0-2.72-2.28,6.31,6.31,0,0,0-1.67-.35,10,10,0,0,1-1.33-.21c-1.26.28,2.56.2,1.42.53-2.14-.06-4.36-.64-5-.64-2.93-.23-2.73.59-5.79.44.39.14.76.53-1.53.67-2.14-.06-2.63-.61-1.28-.73.52,0,.76,0,.74.08.69,0,1.6-.11.75-.27l-.28.15c-1.06-.15-4-.13-3.31-.37-1.61.14-.69.24.51.31-2.74-.21-4.28,0-7.11-.15.45.08.87.25.42.25-4.14-.18-1.82.28-4.63.34-1.59-.22.57-.53-2.25-.34-1.72-.15-.36-.39.32-.5a34.72,34.72,0,0,1-6.27-.24l1.35-.11c-.81.07-1.47.06-2.15.06l.77.29c-.79,0-1.46,0-1.45-.17-.82.19.63.48-1,.74-1.06-.15-3.23.16-3.6-.23,3.34.13-.36-.38,2.46-.44a15.06,15.06,0,0,1-2,0c-.12,0,.12-.08.33-.1-3.19-.35-1.46.43-4.77.42.42-.21-.77-.41-1.31-.36,1.34,0,.64.36-.58.53a20.73,20.73,0,0,0-3.42.1l1.27.08a3,3,0,0,1-1.09.18l-1.37.08c.07-.17.91-.12.63-.19a2.5,2.5,0,0,1-.81.1,6.1,6.1,0,0,1,.08-.72l.07-.35,0-.17,0-.29a11.81,11.81,0,0,0,0-2.53c.14-1.07.4-.11.5-1-.28-2.56.3-2.78.07-5.47-.29.77-.22.91-.5-1l.2,4.43-.42-2.84c0,1.34.18,2.82.13,3.62-.24-1.35-.16-1.21-.41-.57.44-1.83-.25-3.63,0-5.75l.72.07c.33-3.18-.37-5.66-.18-9.79l-.13,1.33c-.29-.55,0-2.55-.16-3.89.25.13.33-.71.48-1.28-.18.07,0-3-.46-3.4l.32-1.84c.13-3.34-.69-3.81-.61-7,.26,1,.43-.49.62,1.66,0-1.07,0-2-.12-2.05.15-.63-.32-3-.09-3.95a3.89,3.89,0,0,1-.34-1.8c.05-.14.12,0,.12,0S159,54,158.76,55c.75-3.3-.06-9.22.59-12.09-.08-2.34-.16-5.15-.18-7.27.07.13.12,0,.1.41.22-2.93-.69-1.8-.44-5.13.39-1.7.21,1.77.35.71.8-.47-.1-4,.36-6.26l.05.54c.26-1.71-.3-4.18-.25-7,0,0,.07.14.12,0a31,31,0,0,1-.43-3.82,4.37,4.37,0,0,0-.86-2.39,4.13,4.13,0,0,0-1.9-1.4c1,.09,1.28.6.95,0-.65-.37-.62-.16-.74-.08a.58.58,0,0,1-.39,0,8.23,8.23,0,0,0-1.27-.1c-.79-.17-2.52-.32-2.75-.65l2.27,0c-1.17-.44-2.94,0-4.14-.06l.15-.19c-3.48.06-3.53.54-7.27.5l.39.15c-2.05.47-1.72-.27-3.76.08l-.61-.48c-1.35.12-4.73.47-7.15.56,1.37-.36,4.2-.54,6-.75a32.33,32.33,0,0,0-5.24.27,8.6,8.6,0,0,1,1.75-.09,29.73,29.73,0,0,1-6.46.56c.47-.94-7-.24-8.88-1-4.72.34-9.36-.15-14.85-.1,2,.73-1.6,0-1.27.77a8.68,8.68,0,0,1-1.87,0l.26,0-.27,0h0l-3.88-.45c-.91-.21,1.22-.16,1.1-.33-2.8-.06-1.17-.32-3-.51.38.26-1,.38-2.57.28l2.25.34A11.09,11.09,0,0,1,91.29,10l-.66-.12a4.18,4.18,0,0,0-.9,0,4.46,4.46,0,0,0-2.93,1.31A5.34,5.34,0,0,1,88.24,10a5.65,5.65,0,0,0-2.36,1.87A5.41,5.41,0,0,0,85,13.57a5.56,5.56,0,0,0-.18,1l0,.51v.36a22.62,22.62,0,0,0,.47,4.71c-.08.36-.29.83-.34-.06-.09,4.84.64,10.77.27,14.53l-.19-.37A9.38,9.38,0,0,1,85.22,37c-.07-.06-.18-.37-.19,0a20.08,20.08,0,0,1,.21,3.6l-.2-1c-.24,4.72.5,7.25.62,11.21-.53,0-.71,3.7-.79,5.55l-.08-.06c-.07,5.5.44,9.34.65,14.43-.58,3.16-.24,10.7-.57,15.78.1-.78.42.12.48,1-.11,1.19.37,3.29-.12,3.1v-.42c-.49.89-.36,3.34-.37,5.26l.64.31a20.13,20.13,0,0,0-.29,2.58l-.06,1c0,.14,0,.28,0,.43l-1.73.07-3,.08a15.87,15.87,0,0,1-4.34-.29c-1.2.16-2.7.16-3.89.32l.06-.34c-3.34-.09-5-.13-9.15,0l.85-.25c-2.34,0-3,1-5.1,1l-.65-.52c-4.06,0-8.18-.44-12.2,0,.06-.07.18-.22.84-.24-1.91,0-7.4-.35-6.71.36,0-.23-1.07-.24-2.39-.17-.66,0-1.39.09-2.08.15s-1.3.08-2.08.23a5.14,5.14,0,0,1,.42-.38,5,5,0,0,0-2.3,1.24,5.17,5.17,0,0,0-1.61,2.58c-.15.53-.33.59-.25.19a2.94,2.94,0,0,0,0,1.72,6.83,6.83,0,0,0,1.22,2.34,4.48,4.48,0,0,1-.84-.79,4.31,4.31,0,0,0,.91,1.16,6.82,6.82,0,0,0,.53.45c.3.21.54.32,1,.64,1,.84,2.76,2.89,2.76,3.32a5.76,5.76,0,0,1,2.14,1.65c0,.2-.33-.07-.52-.21,2.33,2.66,4,3.42,5.46,5.37,0,.12,0,.27.14.43-2-2-3.55-3.58-3.38-3.45-.22.22,1.34,1.85-.24.89a40.36,40.36,0,0,1,5.45,4.6.93.93,0,0,1,.13.29l-.18-.14a7.42,7.42,0,0,0,1,1c.46.53.75.87,1.22,1.35,0,.37,1.73,1.93,2.52,2.74.17-.31,1.18.77.4-.41.11.15-.18-.12-.72-.64a4.08,4.08,0,0,0-.36-.31l.07,0-2-2A8.34,8.34,0,0,1,49,125.91c.56.26,1.17.54,1.5.72.75,1.43,2.67,3.71,2.75,4.21,2.57,2.3,5.82,5.64,7.8,6.71a2.46,2.46,0,0,1,.85,1.26,14.91,14.91,0,0,0-1.19-1c1.49,1.27,4.14,4.05,4.78,4.06,1.6,1.89-1.27-.68,1.18,1.66l-.42-.23c4.2,5.22,8.46,6.84,13,12.71-.32-.4-.49-.6-.51-.73,5.66,6.24,12.53,12,18,18.32a12.89,12.89,0,0,0,3.13,2.61l.1.62,2,1.44c2.69,2.25,3.64,4.91,7.18,7.62l-.22-.57c1.09,1.15,3.66,3.45,3.27,3.46a2,2,0,0,1,.9.72l-.11.17,3,2.52c2,2.24-.87.21,2.22,3.36.32.29.65.56,1.13.94a4.26,4.26,0,0,0,1.68.78c1.11.21,1.8-.07,1.45-.11-.79,0-1.84-.56-1.76-.77a3.65,3.65,0,0,0,1.51.34l.09-.11.22,0a3.7,3.7,0,0,0,2.59-1.07l10.5-10.51-.06.19.31-.44,1.62-1.62c0,.1-.1.3-.4.64,1.35-1,.91-1.17,2.12-2,.15-.08.11,0,0,.11l1.05-1.26c-.15.3.44.06-.32.72,2.27-1.86,3.06-3.6,4.11-4.11l-.15.2c2.05-2.23,1.05-1.43,1.17-1.91l1.34-1.34,1.44-.54,0-.55c.3-.29.91-.85.91-.64.91-1.28-.31.08.16-.73,1.66-1.18,3.81-4,4.55-3.94.31-.71-1.51,1.21-.13-.45.88,0,1.67-1.83,3.18-2.92-.17.63-1.52,1.73,0,.64.39-1.17,2.61-2.44,3.63-3.61-.26-.37,2.26-2.52,4-4.46,0,.22,3.63-3.29,5.46-4.89v.11c0-.65,1.84-2.36,3.06-3.71.14.24,0,.55-.63,1.33l1.21-1.21a6.94,6.94,0,0,1,1.25-1.64l-.07.54a73.51,73.51,0,0,1,5.19-5.42c-.07-.23-1.08.32-1.09,0l1.12-1.12c0,.11,0,.3-.29.62a6.5,6.5,0,0,1,1-1.1l-.67,1.08c1-.86.32-.66,1.09-1.4.16.19.68-.44.71-.19a7.56,7.56,0,0,0-.95.94,15,15,0,0,1,2.48-2c-.17,0-.23-.22.37-.87,1.59-1.62.75-.34,1.78-1.19.27-.51,1.42-1.42,1.19-1.7a2,2,0,0,1,.93-.55c.72-.94,3.85-3.92,2.64-3.25l-.23.2.13-.15c2.47-3,5.81-5.52,8.41-8.34l.08.09c1.51-1.71,3.53-3.65,4.51-5,.47-.48,1.28-1,1.18-.66a22.1,22.1,0,0,1,3.13-3.18c-1.09,1.39.56-.3-1.16,1.38a21.16,21.16,0,0,0,3.67-3.71c-.37.8,1.48-.94,2.18-1.76l-1.28,1c.82-.89,1.59-1.62,2.37-2.36l-.12.7c.45-.37.87-.74,1.27-1.13a4.6,4.6,0,0,0,1.2-1.76A4.7,4.7,0,0,0,215,102.8Zm-167,22.7.09,0a.86.86,0,0,1-.33-.09c-.56-.5-.69-.72-.71-.84Zm122.25,12.94c-.83.67-1.83,2.34-2.05,1.88l.27-.26c-.91.22-2.37,1.86-3.59,3.06l.26.66c-3.83,2.5-8.05,8.54-10.37,9.67-.65.88-1.6,1.82-2.24,2.69l-.21-.28c-2.18,2-3.26,3.08-5.82,5.76l.36-.71c-1.49,1.46-1.16,2.56-2.51,3.94l-.77,0c-2.57,2.59-5.5,4.87-7.71,7.75,0-.1,0-.28.36-.71-1.22,1.2-4.94,4.44-4,4.5-.35-.3-2.68,2.62-3.93,4.16l0-.46a13.34,13.34,0,0,1-2.38,3.33c-.42.35-.53.14,0-.31-1.42,1.17-.78,1.24-2.48,2.68l.43-.74-.44.43a3.55,3.55,0,0,0-.26.28,1.88,1.88,0,0,0-.2.28c-.1.19-.15.37-.39.79l-.06.07a5.13,5.13,0,0,1-.52-.48l-.27-.31-.3-.37a3.71,3.71,0,0,1-.82-1.32,4.72,4.72,0,0,1-1.94-1.45c0-.19.31.05.48.17-2.06-2.39-3.59-3-4.88-4.8,0-.11,0-.25-.12-.41,1.76,1.78,3.17,3.22,3,3.1.23-.22-1.16-1.69.28-.86a33.07,33.07,0,0,1-4.93-4.07,1.83,1.83,0,0,1-.11-.26l.17.12a5.93,5.93,0,0,0-.91-.85c-.41-.48-.67-.79-1.09-1.22,0-.35-1.54-1.74-2.24-2.46-.19.3-1.08-.67-.41.41-.09-.13.17.1.65.57.12.1.25.22.33.27l-.07,0,1.79,1.75a6.57,6.57,0,0,1-2-1.84c-.52-.21-1.09-.46-1.39-.61-.64-1.31-2.33-3.37-2.39-3.84-2.31-2-5.21-5-7-5.95a2,2,0,0,1-.74-1.15,10.84,10.84,0,0,0,1.08.88c-1.36-1.12-3.71-3.62-4.33-3.6-1.41-1.7,1.17.58-1-1.51l.38.2c-3.7-4.73-7.66-6-11.68-11.37.29.37.43.55.44.67-5-5.62-11.24-10.71-16-16.42a10.32,10.32,0,0,0-2.83-2.3L63,127l-1.86-1.26c-2.43-2-3.19-4.47-6.41-6.85l.19.54c-1-1-3.29-3.08-2.92-3.12a1.52,1.52,0,0,1-.81-.63l.1-.17-2.7-2.23c-1.81-2,.84-.24-1.92-3.06a22.73,22.73,0,0,0-2.29-1.75H59l-.16.09.47-.09h2.06a1.19,1.19,0,0,1-.66.16c1.49.25,1.32-.18,2.6.1.14,0,.07.07-.06.09l1.46-.15c-.29.11.24.36-.65.29,2.61.29,4.21-.39,5.19,0l-.21,0c2.71-.13,1.56-.27,2-.52h1.69l1.26.63.35-.37c.38,0,1.12,0,1,.19,1.39-.26-.24-.16.57-.4,1.8.33,5-.16,5.37.43.65-.28-1.72-.22.2-.42.55.64,2.22-.1,3.87.19-.51.33-2.07.15-.42.45,1-.56,3.2.12,4.59,0,0-.11.21-.18.54-.22a6.79,6.79,0,0,0,1.4-.24,4.25,4.25,0,0,0,1.62-1,3.78,3.78,0,0,0,1-1.72s.16-.21.25-.7a17.41,17.41,0,0,0,.13-1.81c.06-1.38.13-3.05.21-4.14l.07.07c-.45-.42-.36-2.66-.45-4.28.26.06.37.35.49,1.24V94.9a5.65,5.65,0,0,1-.27-1.83l.33.38a58.9,58.9,0,0,1-.17-6.72c-.21-.1-.53.89-.78.68V86c.1.05.2.2.23.58A5.69,5.69,0,0,1,94,85.24l.29,1.11c.12-1.19-.24-.63-.21-1.58.24,0,.17-.7.36-.57a6.74,6.74,0,0,0,0,1.2,12,12,0,0,1,.37-2.8c-.13.09-.32,0-.35-.79,0-2,.29-.7.41-1.89-.17-.49,0-1.79-.35-1.82a1.64,1.64,0,0,1,.26-.94c-.16-1,0-4.92-.43-3.73l0,.27a1.11,1.11,0,0,0,0-.17c-.35-3.45.21-7.17.05-10.6h.12c-.13-2-.08-4.55-.34-6,0-.6.22-1.42.37-1.16a17.83,17.83,0,0,1,0-4c.21,1.57.19-.54.15,1.61a16.63,16.63,0,0,0,0-4.67c.31.74.39-1.53.3-2.5l-.22,1.43c0-1.09,0-2,0-3l.4.52c.49-4.16-.84-7.5,0-10.66-.29-1.1-.2,2.26-.53,1.27,0-1.91.63-3.9.63-4.5.23-2.62-.59-2.44-.43-5.18-.15.35-.54.68-.67-1.37,0-1.91.61-2.35.72-1.14,0,.46,0,.68-.08.66,0,.62.11,1.43.27.67l-.15-.25c.15-.95.14-3.58.37-3-.13-1.45-.23-.62-.31.45,0-.33,0-.64.07-.94s0-.44,0-.64,0-.44,0-.67h.57l1.23.05c-.4-.08-.77-.25-.37-.24,3.71.18,1.63-.28,4.14-.34,1.43.22-.51.53,2,.34,1.54.15.33.38-.29.5a27.18,27.18,0,0,1,5.62.24l-1.21.11a18.55,18.55,0,0,1,1.92-.06L108,20.2c.71.05,1.31.05,1.3.17.73-.19-.56-.48.9-.74.94.15,2.89-.16,3.21.22-3-.13.33.39-2.19.45a11.94,11.94,0,0,1,1.79,0c.11,0-.1.08-.29.1,2.85.34,1.31-.43,4.27-.42-.38.21.69.41,1.17.36-1.19,0-.57-.36.52-.53a16.58,16.58,0,0,0,3.06-.1l-1.13-.08a9.2,9.2,0,0,1,2.65-.26c.12.17-1.2.12-.73.19,1.47-.38,3.32.4,5.37.14,1,.15.1.41.93.51,2.3-.28,2.49.29,4.9.06-.7-.29-.82-.22.88-.5l-4,.2,2.55-.42c-1.2,0-2.53.18-3.24.13,1.21-.24,1.08-.16.51-.4,1.64.43,3.25-.26,5.14,0l-.05.72c2.84.32,5.06-.37,8.75-.19l-1.19-.13c.5-.28,2.29,0,3.48-.15-.11.24.64.33,1.15.47a4.82,4.82,0,0,1,1.37-.11,1.77,1.77,0,0,0,1-.35l.15.08a6.73,6.73,0,0,1-.24.75,8.3,8.3,0,0,0,0,1.42c.06.5.15.92.23,1.34a11.38,11.38,0,0,1,.32,3.1c-.26-.87-.43.44-.62-1.49,0,1,0,1.82.12,1.84-.15.56.33,2.66.1,3.54a3.15,3.15,0,0,1,.34,1.61c-.05.12-.12,0-.12,0s.16,1.68.43.74c-.75,2.95.05,8.25-.59,10.82.08,2.09.16,4.61.17,6.51-.07-.12-.12,0-.09-.37-.23,2.62.69,1.61.44,4.59-.39,1.53-.21-1.58-.36-.63-.79.41.11,3.6-.35,5.6l-.05-.48c-.27,1.53.3,3.74.24,6.24,0,0-.07-.12-.12,0a50.32,50.32,0,0,1,.65,7.36c-.31-.75-.16-1.09-.47-.64,0,1.08.5-.31.59,1.84-.17.7-.32,2.26-.65,2.47l0-2c-.44,1,0,2.63-.06,3.71l-.19-.14c.06,3.12.54,3.16.5,6.51l.15-.35c.47,1.83-.27,1.54.08,3.36l-.48.55c.12,1.21.47,4.24.56,6.4a49.23,49.23,0,0,1-.75-5.33,25.84,25.84,0,0,0,.27,4.69,6.32,6.32,0,0,1-.09-1.56,23.48,23.48,0,0,1,.55,5.78c-.46-.21-.52,1.35-.55,3.17,0,.91,0,1.89-.08,2.75s-.18,1.51-.27,2.22a5.26,5.26,0,0,0,2.33,3.42,5.19,5.19,0,0,0,2,.73c.79.09,1.19.06,1.77.09,2.18.07,4.45.18,6.91.15-1.74-.72,1.43,0,1.13-.76a7.06,7.06,0,0,1,1.68,0l-.24,0,.25,0h0l3.47.45c.82.21-1.09.16-1,.33,2.51.06,1.06.31,2.71.51-.34-.27.88-.38,2.31-.28l-2-.34c3.51-.4,3,.62,6.56.23l-1.11.24c1.81-.14,6.68,0,8.46-.6.32.09.74.29-.05.35,2.16,0,4.57-.12,6.86-.24,1.15-.07,2.26-.12,3.3-.13.52,0,1,0,1.5,0H197l.16,0a1.05,1.05,0,0,1,.21.06,1.41,1.41,0,0,0-.17.18c.11,0,.25-.11.43-.17s.39-.08.42,0c-.14.07-.36.18-.29.19a5.89,5.89,0,0,1,.87-.19.83.83,0,0,1-.33.35.39.39,0,0,0-.23-.06,1.51,1.51,0,0,0-.5.47l-.15.26-.73.89c-1,1.21-1.83,2.39-3,3.68-.38-.38-2.85,1.85-4.08,3l0-.1c-3.52,3.44-5.59,6.23-8.66,9.6-2.42,1.59-7,6.6-10.4,9.58C171.06,137,170.72,137.83,170.19,138.44Zm-127-29.94h.13l.13.11a.51.51,0,0,0,.18-.09l-.09,0h.35c.34.4.66.86.58,1l-1-.88-.11,0Zm67.19,65.24-.86-.8-.09,0a.65.65,0,0,1,.31.07C110.23,173.42,110.34,173.63,110.36,173.74ZM64.56,108.5l-.63,0a.49.49,0,0,1-.18,0Zm74.92,72.75a.68.68,0,0,1-.18.1l.64-.64C139.8,180.89,139.65,181.05,139.48,181.25Z"/><path d="M121.8,198a4.9,4.9,0,0,1-.93-.1,4.71,4.71,0,0,1-1.94-.89c-.5-.39-.84-.67-1.17-1-1.46-1.49-1.92-2.09-1.67-2.68a5.54,5.54,0,0,0-.59-.72l-3.33-2.8.15-.24a1.17,1.17,0,0,0-.3-.17l-.15-.08L110,188.26l1,0-.66-.66-1.55-1.18a23.05,23.05,0,0,1-4.34-4.5,19.16,19.16,0,0,0-2.86-3.14l-2.21-1.56-.1-.63-.59-.39A10.51,10.51,0,0,1,96.21,174c-2.94-3.44-6.37-6.77-9.69-10-2.58-2.49-5.24-5.07-7.68-7.7l-.09.07-.32-.4a42.31,42.31,0,0,0-6.54-6.36,40,40,0,0,1-6.17-5.95l-1.41-1.75c-.54-.41-1.27-1.08-2.32-2.08-.63-.58-1.24-1.16-1.73-1.57l-4.43-3.75,1.12.6c-.64-.58-1.3-1.2-2-1.81s-1.51-1.41-2.2-2l-.17-.14,0-.22a16.94,16.94,0,0,0-1-1.5c-.4-.55-.83-1.15-1.19-1.71a.71.71,0,0,1-.79.08l-.18.32-.57-.58-.7-.69A16.64,16.64,0,0,1,46.38,125l-3.1-2.13,2.06.87-.12-.14-.13-.16a6.31,6.31,0,0,1-1-.94l-1.38-1.56c-1-.92-2.23-1.82-3.19-2.54l-.74-.57.31-.45a2.26,2.26,0,0,1-.33-.79,23.73,23.73,0,0,1-2-2.07l-.93-1.06a1.59,1.59,0,0,0-.37-.19l-.44-.12,0-.47a15.28,15.28,0,0,0-2.54-2.85l-.46-.28c-.21-.12-.37-.22-.56-.35a6.1,6.1,0,0,1-.59-.5,4.81,4.81,0,0,1-1-1.32l.21-.14a6.93,6.93,0,0,1-.52-1.19,1.69,1.69,0,0,0-.1-.27,3.65,3.65,0,0,1,0-2.11l1.19.28a.57.57,0,0,0-.41-.44.53.53,0,0,0-.6.18,1.25,1.25,0,0,0,.07-.21,5.66,5.66,0,0,1,1.65-2.74l.28-.25a5.44,5.44,0,0,1,2.42-1.26l2.8-.73-1.1.87h0c.72-.06,1.45-.12,2.12-.15a11.5,11.5,0,0,1,2.16,0c.58-.31,2-.34,5.49-.24.59,0,1.11,0,1.49,0v.16a59,59,0,0,1,7.28,0c1.36,0,2.72.12,4.07.09h.22l.64.51a6.2,6.2,0,0,0,2-.46,8.93,8.93,0,0,1,2.9-.55l4.1,0-.57.17c1.56,0,2.91,0,4.78.09l.72,0,0,.24,1.16-.08c.66,0,1.32-.07,1.91-.15l.14,0,.12,0a16.38,16.38,0,0,0,4.15.26l4.1-.13,0-.9c0-.82.12-1.54.22-2.2l-.57-.28V94.34c0-1.84,0-3.57.44-4.44l.12-.23c0-.16,0-.33,0-.47a10.38,10.38,0,0,1-.05-1.75,3.28,3.28,0,0,0-.19-.88.52.52,0,0,0,.5.22.52.52,0,0,0,.42-.27l-1.2-.08c.13-2.1.15-4.65.17-7.11a66.56,66.56,0,0,1,.39-8.67c-.07-1.8-.18-3.44-.3-5-.2-3-.39-5.8-.35-9.35l0-1.29.12.11c.16-2.79.34-4.08.72-4.61-.05-1.38-.18-2.61-.31-3.8a41.48,41.48,0,0,1-.3-7.13l.09-1.72q0-.34-.09-.72a1.13,1.13,0,0,1,.16-.69l0-.82-.06-.4a8.39,8.39,0,0,1-.11-.91l-.18-3,.46.94c0-1.64-.08-3.5-.18-5.43-.11-2.25-.23-4.59-.19-6.71h.3a24.89,24.89,0,0,1-.43-4.62v-.35l0-.55a7,7,0,0,1,.2-1.13,5.82,5.82,0,0,1,.94-1.92A6.24,6.24,0,0,1,88,9.42l.07.13a4.78,4.78,0,0,1,1.62-.36,5,5,0,0,1,1,.05l.7.13a11.15,11.15,0,0,0,1.3.17l0-.41,1.06,0L93,8.6l2.34.25a2.7,2.7,0,0,1,1.35.36c.07,0,.19.12,1.63.15h.3l.37.52,2.44.28h0c.15,0,.47,0,1.09,0a.46.46,0,0,1,.12-.12l-1.7-.63,3.28,0c2.26,0,4.35,0,6.37.11a81.81,81.81,0,0,0,8.44,0h.14l.12,0a21.29,21.29,0,0,0,4.68.35c2.85,0,4,.1,4.4.57,1.19,0,2.26-.06,3.24-.14l.87-.3a33.82,33.82,0,0,1,5.44-.3V10H138l1.3-.11.31.23,3.5,0a22.31,22.31,0,0,0,3.83-.24,25.26,25.26,0,0,1,3.42-.27l1.3,0-.13.16h.12a7.07,7.07,0,0,1,2.92.16l1.74.65c.42-.27.93,0,1.23.18l.16.1.08.16a1.23,1.23,0,0,1,.2.61,4.91,4.91,0,0,1,.7.74,5.05,5.05,0,0,1,1,2.73,27.76,27.76,0,0,0,.42,3.73l0,.18-.15.36c0,1.1.09,2.16.17,3.11a15.68,15.68,0,0,1,.07,3.52L160,27.14c0,.56,0,1.14.07,1.68.08,1.47.14,2.58-.34,3.13a.66.66,0,0,1-.34.44,4,4,0,0,0,.23,1.1,5.5,5.5,0,0,1,.25,2.6h-.09c0,1.8.08,4.24.17,6.8V43l0,.07a28,28,0,0,0-.24,5.49,39.71,39.71,0,0,1-.21,5.91,3.09,3.09,0,0,1,.19.82c0,.11,0,.21,0,.28h0l.48.93-.51,0a1.94,1.94,0,0,0,.16.6,4.34,4.34,0,0,1,.14.43l0,.14,0,.14a8.94,8.94,0,0,0,.05,2.16,8.86,8.86,0,0,1,.08,1.5,5.9,5.9,0,0,1,.1,1.68v.52l-.57,0c.06.59.15,1.08.25,1.59a14.81,14.81,0,0,1,.3,3.76l-.28,1.68a6.86,6.86,0,0,1,.33,2.54.61.61,0,0,0,0,.14l.38-.15-.31,1.16-.09.43a2.9,2.9,0,0,1-.34,1c0,.48,0,1,0,1.53,0,.21,0,.47,0,.72l.27,0a39.54,39.54,0,0,0,.13,5,30.58,30.58,0,0,1,.09,4.4l.19,2.31a12.88,12.88,0,0,1,0,2.88,9.7,9.7,0,0,0,0,2.58v.14c0,.23-.08.74-.49.93,0,0,0,0,0,0A12.83,12.83,0,0,1,160,99l-.12.76.08,0,.59.15V99.6a4.35,4.35,0,0,0,.93-.06,10.21,10.21,0,0,1,2.46-.05c.23,0,.42-.07.57-.1l0-.42a3.2,3.2,0,0,1,1.8.36,4,4,0,0,0,1.71-.27,4.9,4.9,0,0,1,2.69-.15l1.12.12h.42l-.49-.19h3.14l.27-.06v.06a18.39,18.39,0,0,0,2.08-.06l0,.22.26,0a21.58,21.58,0,0,0,4.63.11l.06.48c1.18-.08,1.45-.06,1.7.2l.13.14.19,0a3.53,3.53,0,0,0,1.39-.19,6.39,6.39,0,0,1,2.74-.17l0-.23c1.27.06,2.28.05,3.26,0h2.11a3.14,3.14,0,0,1,1.14-.22l4.93-.42-2.13.73.45,0,.3-.15.2,0a1.62,1.62,0,0,1,.59.21l.65,0a8.24,8.24,0,0,0,2.76-.23,8.91,8.91,0,0,1,3-.21,7.56,7.56,0,0,1,1.39.2c.42.07.91.16,1.43.23a1.07,1.07,0,0,1,.6-.31l.14,0,.14,0a7.78,7.78,0,0,0,1.25.2,6.94,6.94,0,0,1,1.82.38,5.7,5.7,0,0,1,3,2.56,5.27,5.27,0,0,1-1,6.47c-.4.38-.83.77-1.3,1.14l-1.18,1a6.23,6.23,0,0,1-2.17,1.79,15.09,15.09,0,0,1-2.41,2.48c-.29.26-.63.55-1,.92l-.17-.18a13.42,13.42,0,0,0-1.06,1.14l-.7.79-2,2.17.3-.89c-.58.7-1.37,1.54-2.2,2.41-.62.66-1.26,1.33-1.83,2l-.45.51-.1-.11c-1,1.08-2.16,2.12-3.26,3.14-1.42,1.31-2.87,2.65-4.13,4.07.1.41-.35.89-1.72,2.33-.54.57-1.1,1.16-1.34,1.47l-.09.13-.14.06-.24.09a.86.86,0,0,0-.32.16,2.89,2.89,0,0,1-.78,1.13,3.94,3.94,0,0,0-.49.59l-.15.18a1.44,1.44,0,0,1-1,.47,6.7,6.7,0,0,0-.68.63l1.34.18-1.95.88a14.63,14.63,0,0,0-2.31,1.85l-.72.67.08.27-.3.26a33.26,33.26,0,0,0-3.45,3.53c-.57.65-1.12,1.27-1.7,1.86l-1.26,1.28v-.12l-1.15,1.15-.33-.3v0a11.87,11.87,0,0,0-1.91,2.27h-.49l.28.32c-.72.63-1.71,1.55-2.66,2.43a33.38,33.38,0,0,1-2.83,2.51c-.63.69-1.35,1.41-2,2a24.15,24.15,0,0,0-1.7,1.8l.1.14-.32.37a13.84,13.84,0,0,1-1.62,1.46c-.8.65-1.71,1.39-1.89,2l-.07.18-.16.12c-.57.41-.91.67-1.23.56-.11.13-.21.26-.32.38a5.5,5.5,0,0,1-1.2,1.21.88.88,0,0,1-.08.33l-.18.42-.46-.06h0l-.15.1c-.34.27-1,1-1.57,1.53a25.75,25.75,0,0,1-1.94,1.85,1.92,1.92,0,0,1-.47.94l-.82,1.14v.11l-.11,0-.21.29v-.21l-1.39.53-.95,1v0l.32-.15-.33.42c-.07.3-.41.72-1.45,1.86l-.05,0a5.49,5.49,0,0,0-1.32,1.31,19.22,19.22,0,0,1-2.65,2.71l-.13-.16-.52.62-.28-.22.1.25a3,3,0,0,0-.83.77,5.23,5.23,0,0,1-1.24,1.18l-.85.63-.3.29-.24.36-2.21,3.19.48-1.57L125.51,196a4.22,4.22,0,0,1-2.33,1.19l0,.11-.24.3A1.57,1.57,0,0,1,121.8,198Zm-4.5-4.31a11.2,11.2,0,0,0,1.31,1.47c.28.26.6.53,1.07.89a2.33,2.33,0,0,0,.4.27l0-.1.22-.62.6.27a2.82,2.82,0,0,0,1,.27l.08-.1.48,0h0a3,3,0,0,0,2.18-.89l12.23-12.24h0l2.63-2.64.16.15,3.48-4.19-1,2a5.45,5.45,0,0,1,1.57-1.47c.41-.46.64-.73.76-.89a.75.75,0,0,1,0-.47l0-.15,1.67-1.6,1.06-.4v-.39l.18-.17a6.11,6.11,0,0,1,.77-.66,1.27,1.27,0,0,1,.19-.58l.18-.19a19.43,19.43,0,0,0,2.22-2.05c.61-.62,1.09-1.11,1.49-1.44a4.67,4.67,0,0,1,.59-.79l.18-.22h.3c.19,0,.71-.63,1-1a9.75,9.75,0,0,1,1.78-1.81l1.34-1,.71-.58c.47-.39,1-.78,1.32-1.15.12-.54.83-1.25,2.12-2.54.66-.65,1.4-1.4,2-2.1l1.15-1.29,0,.35c.51-.45,1.14-1,1.69-1.55.92-.84,1.88-1.74,2.6-2.37a11.58,11.58,0,0,1,2.12-2.58c.34-.36.68-.71,1-1l.56-.63.22.38a12.62,12.62,0,0,1,1.05-1.28l1.3-1.42-.07.56.37-.42c.77-.88,1.55-1.77,2.5-2.68l-.18-.14-.06-.64,2-2,.06.18h0l.42-.32.42-.41,0,0,1.79-1.36-.52.82.17-.11a2.16,2.16,0,0,1,.63-1c.83-.85,1.19-1.11,1.61-1.08l.15-.11a6,6,0,0,1,.6-.72c.12-.12.28-.3.39-.43l-.15-.18.39-.39a2.22,2.22,0,0,1,1-.63c.3-.36.79-.88,1.3-1.42s.92-1,1.21-1.32l-.19-.19.13-.16a51.21,51.21,0,0,1,4.76-4.79c1.25-1.16,2.54-2.35,3.66-3.56l.45-.49.08.08c.45-.49.92-1,1.4-1.49a35.24,35.24,0,0,0,2.61-2.94,3.48,3.48,0,0,1,1.46-1l.44-.51a18.55,18.55,0,0,1,2.52-2.45l.19.18a14.54,14.54,0,0,0,2.22-2.42l3.33-4.37-.94,2.06c.3-.3.6-.58.89-.86l1.35-1.28-.12.78a4.11,4.11,0,0,0,1-1.52,4,4,0,0,0-.26-3.43h0a4.43,4.43,0,0,0-2.4-2,4.7,4.7,0,0,0-.78-.22,1.17,1.17,0,0,1-.42.2l-.09,0h-.09a26.56,26.56,0,0,1-3.79-.46,12,12,0,0,0-1.23-.18,7.88,7.88,0,0,0-2.74.18,9.3,9.3,0,0,1-2.26.28c-.27.43-1.05.57-2.28.64-2.17,0-2.6-.52-2.67-.93l-.27,0v.13l-.63,0c-1.17-.07-2.13-.07-3.13-.06-.71,0-1.44,0-2.27,0a.8.8,0,0,1-.62.21h0c-2.25-.1-2.49,0-2.71.08a5,5,0,0,1-1.9.26,1.89,1.89,0,0,1-1.12-.4c-.2,0-.54,0-1.11.06s-1.13-.09-1.37-.41c-.39,0-.75,0-1.11,0l.54.2-4.6-.29-.57,0h0c-.18.37-.6.51-1.26.61l-.09,0-.09,0a12.07,12.07,0,0,0-1.51,0c-1.31,0-2.06,0-2.45-.39l-.41-.44a1.9,1.9,0,0,0-.54.14,5.86,5.86,0,0,1-2.54.36h-1c-.24.06-.52.11-.86.16h-.13a14.22,14.22,0,0,0-1.5,0l-.33.16a3.31,3.31,0,0,1-1.33.25l-2.32.13.12-.31,0-.46a5.7,5.7,0,0,1,.08-.8l.13-.78a11.17,11.17,0,0,0,0-2.4v-.15a1.8,1.8,0,0,1,.23-.73l-.31-1.8c0-.12,0-.22-.06-.3l-.27-.08a8.57,8.57,0,0,0,.05-2.73,12.67,12.67,0,0,1,0-3l.08-.58.69.06a29.67,29.67,0,0,0-.11-4c-.07-1-.15-2.18-.16-3.48l0,0a5.55,5.55,0,0,1-.2-2.35c0-.61,0-1.25,0-1.77l-.1-1.1.45.24,0-.14.06-.28a8.51,8.51,0,0,1-.07-1,8.32,8.32,0,0,0-.2-2l-.28-.23.13-.28.31-1.85a13.26,13.26,0,0,0-.29-3.41,14.35,14.35,0,0,1-.32-3.51l.11-4.17.24.88a4.66,4.66,0,0,1,0-1,1.21,1.21,0,0,1-.05-.14,3.69,3.69,0,0,1-.27-1.7l0-.21,0-.18a2.27,2.27,0,0,0-.08-.46l.09,0-.32-.08a30,30,0,0,0,.32-6.31,28.77,28.77,0,0,1,.26-5.69c-.1-2.77-.16-5.39-.18-7.22V34.1c0-.08-.05-.15-.07-.22a6.34,6.34,0,0,1-.26-3c.09-.42.22-1,.69-1,0-.33,0-.66,0-.95a14.78,14.78,0,0,1,.08-3.65l.11-.51c0-.64-.07-1.36-.14-2.14-.09-1.1-.2-2.35-.18-3.67v-.51c-.12-.83-.23-1.89-.32-3.24a3.77,3.77,0,0,0-.73-2.06,3.56,3.56,0,0,0-1.62-1.19l-.17-.06-.12,0a9.26,9.26,0,0,0-.95-.06h-.14c-.22,0-.51-.1-.83-.14a4.38,4.38,0,0,1-2.19-.64,9.82,9.82,0,0,1-1.51.06L149,11l0-.06c-.81.05-1.39.13-1.95.21a24.07,24.07,0,0,1-2.91.24l-.57.13a4.49,4.49,0,0,1-2.19.09,3.55,3.55,0,0,0-1.6,0l-.27.05-.64-.5-.81.08c-1.67.15-4.18.39-6.13.46l-5.58.21.86-.23H127l.21-.42c-.7-.1-2.13-.12-3.23-.14a22,22,0,0,1-5-.39,79.35,79.35,0,0,1-8.45,0c-1.67-.05-3.39-.11-5.19-.11-.18.37-.66.37-1.15.38h-.47l.15.34-.9,0a9.84,9.84,0,0,1-2,0l-3.82-.44a1,1,0,0,1-.67-.37L95,10.69a11.68,11.68,0,0,1-3.81-.12l-.66-.12a3.4,3.4,0,0,0-.79,0,3.83,3.83,0,0,0-2.52,1.14l-.13-.13a4.93,4.93,0,0,0-.72.78,5.07,5.07,0,0,0-.75,1.53,6.12,6.12,0,0,0-.15.89l0,.47v.32A22.78,22.78,0,0,0,85.91,20l0,.16,0,.16a1.7,1.7,0,0,1-.34.72c0,1.84.1,3.81.2,5.72a59.42,59.42,0,0,1,.07,8l0,.52a5.36,5.36,0,0,1,0,1.85l-.09.61a16.65,16.65,0,0,1,.12,3L85.64,43c.06,1.24.18,2.36.3,3.52.14,1.31.28,2.66.33,4.22l0,.64H86a32.23,32.23,0,0,0-.47,5l-.06,1.23,0,0c0,2.92.18,5.39.36,8,.11,1.65.23,3.32.3,5.15v.07l0,.07a65.32,65.32,0,0,0-.38,8.53c0,2.22,0,4.51-.14,6.5A2.93,2.93,0,0,1,86,87.47,11.16,11.16,0,0,0,86,89.1c.08,1.08.13,1.67-.3,2l-.13.1a23.93,23.93,0,0,0-.1,3.14v.74l.72.35-.09.45a20.18,20.18,0,0,0-.28,2.51l-.06,1c0,.13,0,.25,0,.38v.59l-5.28.18a17,17,0,0,1-4.4-.28c-.59.07-1.23.11-1.88.15s-1.31.08-1.89.16l-.84.11.09-.47c-2.88-.08-4.59-.11-8.41,0l-1,0c-.21.06-.42.14-.63.21a7.32,7.32,0,0,1-2.6.54h-.22l-.65-.52c-1.3,0-2.6,0-3.9-.09a53.65,53.65,0,0,0-8,.11l-1.55.18.4-.47a37.25,37.25,0,0,0-4.15,0l.15,1.44-1.21-1.23a10.26,10.26,0,0,0-1.94,0c-.65,0-1.37.09-2.06.15l-.69.06a10,10,0,0,0-1.33.16l-.87.16a7.05,7.05,0,0,0-.61.47l-.2.18a4.36,4.36,0,0,0-1.33,2.2,1.63,1.63,0,0,1-.34.69,2.41,2.41,0,0,0,.11.88s.05.16.09.27a5.88,5.88,0,0,0,1,1.87l.6.78.33.2.55.34A14.56,14.56,0,0,1,36,112.19a7.32,7.32,0,0,1,2.12,1.72l.11.12.08.45a30,30,0,0,0,2.25,2.08,16.83,16.83,0,0,1,2.52,2.54l.21.27-.12.32a.36.36,0,0,0,0-.23h0l-.14.15a18.46,18.46,0,0,1,2,1.92l.08.11a2.29,2.29,0,0,1,.16.35,7.32,7.32,0,0,0,.64.56l.22.23c.25.3.46.53.69.79l.2-.25a9,9,0,0,1,2.21,2l3.19,1.06L51,126.29l0,.06a21.67,21.67,0,0,0,1.58,2.38,11.72,11.72,0,0,1,1.16,1.77c.67.6,1.38,1.27,2.1,1.94A36.12,36.12,0,0,0,61.29,137l.1.07a2.63,2.63,0,0,1,.92,1.25,1.11,1.11,0,0,0,.07.16l.07.12.37.36a19,19,0,0,0,2.7,2.3h.28l.11.2c.37.44.68.81.66,1.16l.47.45,3.24,3.1-1.23-.66c1.18,1.15,2.38,2.14,3.62,3.17a49.39,49.39,0,0,1,5.11,4.67v0l1.39,1.54c2.56,2.81,5.43,5.59,8.19,8.27,3.34,3.24,6.8,6.58,9.77,10.06a9.21,9.21,0,0,0,2.19,1.93c.25.16.51.33.84.58l.2.14.1.62,1.84,1.29a20.68,20.68,0,0,1,3.07,3.35,30.46,30.46,0,0,0,2.26,2.65l-.47-1.18,2.18,2.31c.36.38.88.89,1.4,1.39a14.56,14.56,0,0,1,2,2.08,2.23,2.23,0,0,1,.86.8l.22.32,0,.05,2.6,2.19C117.08,192.53,117.53,193.09,117.3,193.66Zm72.43-61.89h0l.09.08ZM39,116.9l0,0Zm145-16.59v0Zm-11.77-1.23.17,0-.17-.06ZM159.57,88.45c0,.14,0,.28,0,.41h.16l.13-.37Zm-74.08-2v0s0,0,0,0Zm73.43-31.42,0,.14.38,0h0Zm-74-35,.1,0h.41a.48.48,0,0,0-.21-.07A.56.56,0,0,0,84.87,20Zm54.72-9.91.29.22.24,0ZM121.08,188.6l.81-1.37q-.18-.16-.36-.36l-.6-.7a6.58,6.58,0,0,1-.84-1.24,6.33,6.33,0,0,1-1.91-1.53l-.12-.13,0-.41a25.25,25.25,0,0,0-2-1.83,13.36,13.36,0,0,1-2.28-2.29l-.2-.29.14-.32a.32.32,0,0,0,0,.25l.15-.14a15.37,15.37,0,0,1-1.78-1.71l-.08-.11a1.92,1.92,0,0,1-.14-.32,5,5,0,0,0-.54-.46l-.1-.09-.9-.58a7.44,7.44,0,0,1-2-1.79l-2.53-.8,1,0-.05-.09a19.58,19.58,0,0,0-1.36-2.16,9.87,9.87,0,0,1-1-1.61l-1.88-1.72a28.29,28.29,0,0,0-4.9-4l-.11-.07a2.19,2.19,0,0,1-.84-1.19l0-.14,0-.09-.32-.3a15.32,15.32,0,0,0-2.4-2h-.3l-.11-.22c-.31-.38-.61-.74-.59-1.09l-.38-.36-2.94-2.81,1.13.57c-1-1-2.12-1.88-3.22-2.78a40.44,40.44,0,0,1-4.6-4.15v0l-1.27-1.42c-2.27-2.53-4.84-5-7.32-7.4a121.57,121.57,0,0,1-8.73-9,6.94,6.94,0,0,0-2-1.68c-.23-.15-.47-.3-.77-.51l-.23-.16-.06-.58-1.63-1.1a16.52,16.52,0,0,1-2.76-3,24.06,24.06,0,0,0-2-2.36l.38,1.09-2-2.09c-.32-.34-.78-.79-1.25-1.24a12.56,12.56,0,0,1-1.75-1.86,1.87,1.87,0,0,1-.8-.74l-.2-.32,0,0-2.29-1.89c-.66-.73-1.09-1.27-.84-1.83a11.07,11.07,0,0,0-1.13-1.28c-.32-.28-.75-.63-1.17-.94l-.05.08-.37.61-1.29-1.11h0l0,0-.15,0-.37-.37-4.7-1h26.5v.22l4.83-.51-1.92.72a4.82,4.82,0,0,1,2,.07l1-.07a.82.82,0,0,1,.3-.33l.15-.1h2l1,.49.23-.24h.28a5.24,5.24,0,0,1,.86.07,1.17,1.17,0,0,1,.49-.26l.14,0,.14,0a16.22,16.22,0,0,0,2.68.11,16.81,16.81,0,0,1,1.84,0,5.07,5.07,0,0,1,.88-.14l.32,0,.21.24a3.4,3.4,0,0,0,1.2,0,8,8,0,0,1,2.3,0l1.47.26q.4,0,.81.09a14.3,14.3,0,0,0,1.52.11,1.79,1.79,0,0,1,.73-.22l.24,0a4.26,4.26,0,0,0,1-.19,3.57,3.57,0,0,0,1.4-.84,3.17,3.17,0,0,0,.83-1.44l.3-1.16c0-.2,0-.42,0-.65l.06-1.45c0-1.11.1-2.28.16-3.13a9.66,9.66,0,0,1-.33-3c0-.44,0-.88,0-1.28l-.05-.82.41.1a9.88,9.88,0,0,1-.14-1.4l-.09-1.77.34.4,0-.45c-.07-1-.15-2.07-.12-3.23l-.2,0-.52-.38V85.05l.17.08.07-.42v-.6h.08l.29-1.93,0,.13c0-.16,0-.33,0-.49,0-1,0-1.48.38-1.76,0,0,0-.06,0-.1a4.36,4.36,0,0,1-.08-.84c0-.13,0-.31,0-.45l-.24,0V78.1a2,2,0,0,1,.24-1c0-.43-.06-1-.08-1.71,0-.49,0-1.18-.07-1.58h-.28v-.19a40.83,40.83,0,0,1,0-6.06c.07-1.52.14-3.09.08-4.55l0-.67h.12c0-.57,0-1.17-.06-1.76a28.51,28.51,0,0,0-.24-3.5,3.27,3.27,0,0,1,.34-1.6c0-.21,0-.39,0-.56a15.26,15.26,0,0,1,0-3.16l.21-2.34c0-.18,0-.37-.08-.58l-.75-4.93.8,1.92q0-.57,0-1.11l0-1.7.47.58a30,30,0,0,0-.21-3.74,27,27,0,0,1-.18-3.44A1.05,1.05,0,0,1,94,36l0-.1v-.11a20.42,20.42,0,0,1,.46-3.41,9,9,0,0,0,.17-1.08,6,6,0,0,0-.18-2.42,7.92,7.92,0,0,1-.27-2c-.44-.26-.58-1-.65-2.09,0-1.56.35-2.35.93-2.45,0-.07,0-.13,0-.19h-.12l.09-1.56c0-.21,0-.41,0-.62V19.3l1.19,0h.26a.84.84,0,0,1,.6-.2h0c2,.09,2.19,0,2.37-.07a4.1,4.1,0,0,1,1.75-.27,1.77,1.77,0,0,1,1.05.4l.94-.06c.51.05,1,.1,1.29.41.31,0,.61,0,.91,0l-.49-.2,4.16.29c.16,0,.31,0,.44,0v0c.18-.36.58-.5,1.16-.6l.1,0,.1,0a9.36,9.36,0,0,0,1.33,0c1.19,0,1.89,0,2.26.41l.35.41a1.27,1.27,0,0,0,.39-.13,5.12,5.12,0,0,1,2.37-.36h.84a7.62,7.62,0,0,1,.76-.16h.15a10.61,10.61,0,0,0,1.3,0l.27-.15a5,5,0,0,1,2.06-.3l.86,0h.34l.07.1a13.08,13.08,0,0,1,1.5.14,10.47,10.47,0,0,0,2.69.1h.08l.09,0a1.71,1.71,0,0,1,.66.21l1.56-.3.31-.06.09-.26a6.87,6.87,0,0,0,2.4,0,10.39,10.39,0,0,1,2.68,0l.56.09-.06.68a23,23,0,0,0,3.5-.11c.92-.07,1.94-.15,3.09-.16h0a4.57,4.57,0,0,1,2.16-.22c.55,0,1.11,0,1.57,0l1-.1-.21.47.09,0,.23.05a6.05,6.05,0,0,1,.91-.06l.48,0a1.11,1.11,0,0,0,.65-.23l.31-.22.92.47-.13.47c-.08.29-.16.54-.23.75a9.43,9.43,0,0,0,.06,1.19,13,13,0,0,0,.22,1.3,12.12,12.12,0,0,1,.33,3.23l-.1,3.75-.24-.79a4.91,4.91,0,0,1,0,.88l0,.09a3.33,3.33,0,0,1,.28,1.57l0,.2s0,.08,0,.12a2.7,2.7,0,0,0,.07.4l-.18.06.42.1a24.36,24.36,0,0,0-.31,5.62,23.93,23.93,0,0,1-.26,5.11c.09,2.47.16,4.81.17,6.44l0,1.37.06.17a5.26,5.26,0,0,1,.27,2.74c-.1.39-.23.93-.69,1,0,.26,0,.54.05.77a12.51,12.51,0,0,1-.09,3.3l-.1.45c0,.56.07,1.19.13,1.89a25.85,25.85,0,0,1,.18,3.3v.45a58.36,58.36,0,0,1,.53,6.5l0,.53a6.63,6.63,0,0,1,.11,1v.08l0,.09,0,.13.09,2-.31-.77a2.65,2.65,0,0,1-.52,1.36,7.46,7.46,0,0,1,.05,1.32l-.07,1.08-.06,0c0,.69.13,1.19.2,1.68a17.67,17.67,0,0,1,.25,2.61l.13.5a3.75,3.75,0,0,1,.08,2,2.86,2.86,0,0,0,0,1.39l.06.29-.51.58.07.67c.16,1.5.39,3.75.47,5.5l.21,5-.23-.77v.31l-.43-.2c-.09.63-.11,1.85-.12,2.43V101c0,.79,0,1.61-.07,2.34a14.15,14.15,0,0,1-.19,1.66c0,.16-.05.33-.08.49a4.64,4.64,0,0,0,2,2.93,4.54,4.54,0,0,0,1.75.65,10.24,10.24,0,0,0,1.14.06l.59,0,1.24,0c1.47.06,3,.11,4.57.12.18-.37.65-.38,1.08-.38h.36l-.14-.34.87,0a6.68,6.68,0,0,1,1.85,0l3.4.43a1.07,1.07,0,0,1,.64.36l1.24-.14a9.08,9.08,0,0,1,3.45.13,8.38,8.38,0,0,0,3.11.1l0,.19,1.18,0a28.53,28.53,0,0,0,6-.49l.17-.06.18,0a1.44,1.44,0,0,1,.65.33c1.64,0,3.4-.1,5.12-.19l.85,0c1.15-.07,2.28-.12,3.32-.13.53,0,1,0,1.53,0l.56,0a1.67,1.67,0,0,1,.3.07,1,1,0,0,1,.79,0l.22,0,.91-.13-.23.89a1.44,1.44,0,0,1-.58.71l-.38.25-.12-.09-.06.07a1.65,1.65,0,0,0-.1.19l-.08.12-1.37,1.7c-.73.93-1.48,1.89-2.44,2.91l-.44.47-.25-.26a27.86,27.86,0,0,0-3.42,2.77l-.86.78v0c-1.81,1.83-3.24,3.5-4.74,5.24-1,1.12-1.93,2.26-3,3.47l-.12.1a50,50,0,0,0-5.65,5.11c-1.41,1.38-2.86,2.81-4.19,4a2.78,2.78,0,0,1-.75,1.36l-.07.07a8.23,8.23,0,0,0-.92,1c-.6.73-1,1.16-1.49,1.1a.47.47,0,0,1-.17,0,19.19,19.19,0,0,0-2,1.88l-.43.43.29.75-.42.27a37.23,37.23,0,0,0-5.87,5.5,23,23,0,0,1-4.43,4.14c-.32.41-.69.84-1.07,1.27s-.77.88-1.08,1.31l-.5.67-.29-.4c-1.83,1.73-2.94,2.8-5.29,5.26l-.62.64c-.09.18-.16.36-.24.53a6,6,0,0,1-1.29,2.07l-.17.17-.78,0c-.81.81-1.66,1.59-2.5,2.37a41.83,41.83,0,0,0-5,5.15l-.92,1.19-.07-.61a31.21,31.21,0,0,0-2.52,2.55l1.23,1-1.84-.11a33.72,33.72,0,0,0-3.24,3.66l-1.22,1.5v0a16.49,16.49,0,0,1-1.42,1.7,1.29,1.29,0,0,1-.68.38c-.13.16-.23.3-.33.45a6.47,6.47,0,0,1-1.48,1.6l-.48.41c-.06.12-.13.27-.24.47l-.11.15-.36.46-.3-.22Zm.11-4.12s.2.32.68.92l.46.54.08-.15a1.84,1.84,0,0,1,.26-.38,3.15,3.15,0,0,1,.3-.31l3.74-3.72-.21.37a9.61,9.61,0,0,0,.81-1.28l1.41-2.4.05.91a19.45,19.45,0,0,1,2.67-2.91c.18-.6,1-1.51,3.33-3.65l1-.93.11.11a49,49,0,0,1,4.6-4.63c.89-.83,1.78-1.65,2.63-2.5l.17-.17.76,0a5,5,0,0,0,.89-1.53,6.35,6.35,0,0,1,1.47-2.26l2.65-2.59-.24.47c1-1,1.85-1.79,3.06-2.93l.51-.48.14.19c.21-.24.42-.49.64-.73.38-.44.77-.89,1.09-1.31l.09-.12.13-.07c1-.49,2.56-2.16,4.21-3.94a41.58,41.58,0,0,1,5.68-5.41l-.22-.58.29-.28.7-.71c1.16-1.18,2.26-2.29,3.16-2.52l.21-.05.25-.29a9.31,9.31,0,0,1,1-1.12,2.48,2.48,0,0,0,.43-.67.52.52,0,0,0,.2.49.52.52,0,0,0,.53.08h0l-.79-.92c1.42-1.23,3-2.83,4.62-4.37a51.36,51.36,0,0,1,5.77-5.22c1.07-1.18,2-2.29,3-3.38a82.83,82.83,0,0,1,5.68-6.18L190,117l0,.16c1.85-1.62,2.8-2.31,3.41-2.39.82-.9,1.49-1.75,2.14-2.58l1.16-1.45-1.09.27.53-.69h-1c-1,0-2.14.07-3.27.13l-.86,0c-2,.12-4.14.24-6.06.19v-.29a31.76,31.76,0,0,1-6.1.47c-.91,0-1.71,0-2.25.07l0-.15a8.41,8.41,0,0,1-2.32-.21,10,10,0,0,0-1.13-.18l0,.42c-.34,0-.64,0-.89,0l.72.57-2.16-.25a2.33,2.33,0,0,1-1.25-.38s-.15-.1-1.4-.13h-.33l-.33-.53-2.14-.28h0l-.91,0a.68.68,0,0,1-.12.12l1.51.63-3,0c-2,0-3.88,0-5.69-.11l-1.25,0-.55,0a10.67,10.67,0,0,1-1.27-.07,5.73,5.73,0,0,1-2.24-.83,5.83,5.83,0,0,1-2.61-3.82l0-.09v-.1c0-.22.06-.43.1-.63.07-.49.14-1,.17-1.54s.06-1.52.07-2.29v-.44c0-2.3.12-3.19.55-3.58,0-1,0-2-.13-2.82l-.29-.76a25.3,25.3,0,0,1-.31-4.91l.3,0a.06.06,0,0,1,0,0l-.12-1.21.24-.27,0-3.1a18,18,0,0,0-.23-3.41,20.44,20.44,0,0,1-.27-3.08l0-1.21.17.12a.11.11,0,0,1,0,0,5.84,5.84,0,0,1,.16-2.67l.45-1.06a1.1,1.1,0,0,1-.41-.95v-.21l.11-.16a1.59,1.59,0,0,1,.31-.35,39.24,39.24,0,0,0-.57-5.89l0-.21.16-.34c0-1-.1-1.9-.18-2.74a12.36,12.36,0,0,1-.06-3.19l.18-1c0-.49,0-1-.07-1.48-.09-1.35-.15-2.37.35-2.87a.69.69,0,0,1,.32-.39,3,3,0,0,0-.22-.88,4.62,4.62,0,0,1-.25-2.39h.09c0-1.61-.08-3.79-.17-6.08v-.08l0-.09a22.74,22.74,0,0,0,.24-4.88,30.61,30.61,0,0,1,.21-5.27,2.44,2.44,0,0,1-.19-.74c0-.08,0-.16,0-.22l-.55-1,.55,0a1.61,1.61,0,0,0-.13-.42,2.37,2.37,0,0,1-.15-.4l0-.15,0-.15a7.41,7.41,0,0,0-.06-1.9,9.42,9.42,0,0,1-.08-1.34,5.36,5.36,0,0,1-.1-1.52v-.47l.56,0a13.12,13.12,0,0,0-.24-1.4c-.1-.5-.2-.94-.26-1.46a11.67,11.67,0,0,1-.06-1.39l-.22,0-.52,0h-.08l.14.4-1.14-.33-.38-.1a2.37,2.37,0,0,1-.91-.33c-.43,0-.89,0-1.34,0h-.65l0,.27a31.36,31.36,0,0,0-4.47.13,24.54,24.54,0,0,1-3.94.09l-2.07.2a10.83,10.83,0,0,1-2.6-.05,8,8,0,0,0-2.29,0h-.14a1,1,0,0,1-.89-.49,12.25,12.25,0,0,1-2.88-.12,8.66,8.66,0,0,0-1.83-.12l-.22,0-.25.05-.12,0-.67-.14h-.16v.27a3.3,3.3,0,0,0-.81.06,8.27,8.27,0,0,1-2.21.05c-.21,0-.38.07-.51.1l0,.42a2.87,2.87,0,0,1-1.67-.36,3.26,3.26,0,0,0-1.44.26,4.06,4.06,0,0,1-2.47.16l-1-.12h-.35l.44.18h-2.81l-.33.09v-.09c-.61,0-1.14,0-1.78.07l0-.22-.26,0a16.54,16.54,0,0,0-4.11-.11l-.08-.49c-1,.09-1.31.07-1.55-.18L100.6,20l-.11,0a2.66,2.66,0,0,0-1.18.18,5.32,5.32,0,0,1-2.49.18l0,.23-1.17-.05a.28.28,0,0,1,0,.09h0a2.58,2.58,0,0,1,.22,1l.42,4.44-.73-1.91q0,.19,0,.36l.15.27,0,.23a1.49,1.49,0,0,1-.21.54l0,.55a6.94,6.94,0,0,0,.23,2.44,7.32,7.32,0,0,1,.21,2.76,8.15,8.15,0,0,1-.2,1.26c-.07.36-.15.78-.22,1.22a1,1,0,0,1,.3.55l0,.15,0,.15a14.22,14.22,0,0,0-.07,5.06,25.61,25.61,0,0,1,.1,5.52l-.16,1.33a5.5,5.5,0,0,1-.27,2.54,12.4,12.4,0,0,1,0,3.08c0,.35,0,.75-.08,1.23H95a11.89,11.89,0,0,0,.06,1.38c0,.27,0,.57.07.95l.15,2.67-.42-.76c.08.8.11,1.81.14,2.87,0,.81,0,1.63.1,2.4l.05.68H95c0,1.32,0,2.68-.09,4a49,49,0,0,0,0,5.14c.36.22.38.87.43,2.61a16.78,16.78,0,0,0,.1,1.76l0,.17-.07.16a1.51,1.51,0,0,1-.11.22.63.63,0,0,0-.08.22,2.72,2.72,0,0,1,.24,1.24,3.42,3.42,0,0,0,.06.65l0,.12,0,.14a1.27,1.27,0,0,1-.38,1c0,.11,0,.32,0,.74l1.12-.77-.82,1.92a11.87,11.87,0,0,0-.32,2.58l0,.82.25.12,0,.43a26.48,26.48,0,0,0,.06,4.4c0,.77.11,1.51.11,2.26l0,1.65L95.36,95v1.41l-.45,0v0a10.66,10.66,0,0,0,.25,2.58l-.35.37.44,0c-.07.85-.12,2.08-.17,3.24L95,104.14a10.72,10.72,0,0,1-.1,1.31,2.6,2.6,0,0,1-.31.9,4.42,4.42,0,0,1-1.12,1.85,4.73,4.73,0,0,1-1.87,1.13,5.66,5.66,0,0,1-1.3.24l-.21,0h0l0,.18-.48,0a10.51,10.51,0,0,1-2-.11,5.07,5.07,0,0,0-2.36,0l-.19.1-.22,0c-.61-.11-1-.19-1.17-.47l-.37,0a5.13,5.13,0,0,1-1.51,0,1.37,1.37,0,0,1-.25.15l-.46.2-.27-.4-.18,0c-.39,0-1.27,0-1.9,0a20.37,20.37,0,0,1-2.35-.06,1.79,1.79,0,0,1-.91.33l-1.21.22-.1.1-.13-.06-.34.06.15-.15-1.21-.61-1.15,0v0l.26.1-.43.06a5.32,5.32,0,0,1-2.15.3v-.12l0,0a4,4,0,0,0-1.62,0,15.08,15.08,0,0,1-3.42,0l0-.2-.69.07-.06-.39-.13.28a2.15,2.15,0,0,0-1,0,4.61,4.61,0,0,1-1.56,0l-1.3-.16-.35.08-3.55.7,1.34-.78H46.21c.3.23.59.47.82.68,1.33,1.35,1.75,1.93,1.49,2.51a4.44,4.44,0,0,0,.48.6l3,2.51-.14.23a1.18,1.18,0,0,0,.19.1l.14.06,1.83,1-1,.1.56.54,1.4,1a18.72,18.72,0,0,1,3.9,4.06,15.86,15.86,0,0,0,2.52,2.81l2.05,1.38.06.59.49.31a8.11,8.11,0,0,1,2.23,1.93A121.36,121.36,0,0,0,75,138.45c2.31,2.24,4.7,4.54,6.87,6.91l.1-.07c.1.14.19.25.27.35a33,33,0,0,0,5.85,5.67,32.35,32.35,0,0,1,5.55,5.34l1.23,1.57a27.54,27.54,0,0,1,2.1,1.85c.56.52,1.11,1,1.55,1.4l4.06,3.36-1-.51c.56.5,1.13,1,1.7,1.56s1.36,1.26,2,1.82l.17.15,0,.24c0,.14.53.83.87,1.33s.69,1,1,1.49a.65.65,0,0,1,.73-.09l.21-.33.54.56.64.62a10.91,10.91,0,0,1,1.64,1.79l2.27,1.56-1.41-.52.09.1.09.11a6.24,6.24,0,0,1,1,.89l1.22,1.39c.92.81,2,1.6,2.88,2.24l.67.49-.3.46v0a2.29,2.29,0,0,1,.29.74,19.93,19.93,0,0,1,1.8,1.84l.81.93.29.15.49.12,0,.5Zm4.75-1.27.06.07,0-.06Zm59-73.62a.5.5,0,0,0-.11.28.51.51,0,0,0,.07.34L185,110ZM150,86.51l-.17.41.19-.23A1.24,1.24,0,0,1,150,86.51ZM94,82.65l.09.37,0-.13A1.34,1.34,0,0,1,94,82.65Zm.47-8.89v0a.43.43,0,0,0,.3,0Zm56-41.32.14,0,0-.07Zm-.3,0ZM111.06,20.83l.12.05v0ZM134.62,20l.26.1,0-.25h-.29Zm-34-.44a.08.08,0,0,0,0,0Z"/><path d="M49,126.08l.24.2-.26-.37-.27-.11Z"/><path d="M48.79,126.72l-.12-.1-.41-.38L45.93,124l3.41,1.46.36.51Z"/><path d="M190,131.4a1,1,0,0,1-.18.11l.1,0Z"/><path d="M190,132.07,189.5,131l.18-.09.38.59.33.37-.2.15h0Z"/><path d="M149.8,172c2.88-2.32-.75.33,2-2.34l-2.13,2C150.12,171.42,150.72,171.07,149.8,172Z"/><path d="M145.23,175l6.15-5.74.84.88c-.3.29-.51.51-.65.66.18.45-.1.68-1.39,1.72l-.25-.28Z"/><path d="M158.32,163.44c-1.06,1.15.15.12.15.23C159.09,162.88,159.23,162.69,158.32,163.44Z"/><path d="M157.76,165.57l.05-1a.55.55,0,0,1-.38-.21c-.39-.45,0-.87.45-1.36l.06-.05c.64-.53,1-.85,1.45-.44s.15.76-.44,1.52Z"/><path d="M204.54,117.23l.1.33C205.47,116.67,204.57,117.47,204.54,117.23Z"/><path d="M204.39,118.73l-.46-1.42.35-.08-.08-.08c.14-.16.23-.25.26-.3l.23.16.19-.27a.49.49,0,0,0-.4-.06c.58-.28.85-.1,1,.09.32.44,0,.81-.39,1.2Z"/><path d="M212.06,100a4.65,4.65,0,0,0-1-.15A4.65,4.65,0,0,1,212.06,100Z"/><path d="M211.91,100.63l-.37-.08a4.1,4.1,0,0,0-.49-.06l.06-1.21a5.3,5.3,0,0,1,.66.07l.44.1Z"/><path d="M213.68,100.76a4.77,4.77,0,0,0-1.56-.7,4.26,4.26,0,0,1,.92.35A4.36,4.36,0,0,1,213.68,100.76Z"/><path d="M213.35,101.27a4.4,4.4,0,0,0-.56-.31,4.6,4.6,0,0,0-.83-.32l.31-1.17a5.52,5.52,0,0,1,1.76.79Z"/><path d="M212.12,100.06l-.06,0Z"/><path d="M211.94,100.64l.29-1.18Z"/><path d="M159.72,45.45l-.38.36C159.41,46.63,159.84,46.8,159.72,45.45Z"/><path d="M159.68,47.13l-.39-.14a1.32,1.32,0,0,1-.56-1.13l0-.29,1.52-1.44.11,1.27c.07.86,0,1.31-.36,1.53Z"/><path d="M143.51,10.54a6.08,6.08,0,0,0-2.67-.13C141.9,10.44,143,10.59,143.51,10.54Z"/><path d="M143.25,11.16c-.31,0-.69,0-1.11-.06s-.87-.07-1.32-.08L136,10.9l4.71-1.08a6.66,6.66,0,0,1,3,.15l2.5.93-2.66.25Z"/><polygon points="84.9 97.19 85.01 98.98 85.03 98.14 84.9 97.19"/><polygon points="84.4 99.02 84.29 97.22 85.5 97.11 85.63 98.06 85.61 99 84.4 99.02"/></g></g></svg>